<svg width="22" height="22" viewBox="0 0 22 22" fill="none" xmlns="http://www.w3.org/2000/svg">
<path d="M21.1562 11.125C21.1562 12.0039 20.4238 12.7363 19.5938 12.7363H12.5625V19.7676C12.5625 20.5977 11.8301 21.2812 11 21.2812C10.1211 21.2812 9.4375 20.5977 9.4375 19.7676V12.7363H2.40625C1.52734 12.7363 0.84375 12.0039 0.84375 11.125C0.84375 10.2949 1.52734 9.61133 2.40625 9.61133H9.4375V2.58008C9.4375 1.70117 10.1211 0.96875 11 0.96875C11.8301 0.96875 12.5625 1.70117 12.5625 2.58008V9.61133H19.5938C20.4238 9.5625 21.1562 10.2949 21.1562 11.125Z" fill="#2F2F2F"/>
</svg>
