<svg width="31" height="31" viewBox="0 0 31 31" xmlns="http://www.w3.org/2000/svg">
<path d="M4.35781 24.6562L10.8618 7.85625H13.5018L19.9578 24.6562H17.1978L13.3578 14.5282C13.3098 14.4162 13.2138 14.1442 13.0698 13.7122C12.9418 13.2802 12.7898 12.8002 12.6138 12.2722C12.4378 11.7442 12.2778 11.2642 12.1338 10.8322C11.9898 10.3842 11.8938 10.0962 11.8458 9.96825L12.3978 9.94425C12.3018 10.2162 12.1818 10.5602 12.0378 10.9762C11.9098 11.3922 11.7658 11.8322 11.6058 12.2962C11.4618 12.7602 11.3178 13.2002 11.1738 13.6162C11.0298 14.0162 10.9098 14.3522 10.8138 14.6242L6.99781 24.6562H4.35781ZM7.23781 20.4802L8.19781 17.9842H15.8298L16.9338 20.4802H7.23781ZM22.6985 24.6562V12.0562H25.1705V24.6562H22.6985ZM23.8985 9.27225C23.3705 9.27225 22.9625 9.13625 22.6745 8.86425C22.3865 8.59225 22.2425 8.20825 22.2425 7.71225C22.2425 7.24825 22.3865 6.87225 22.6745 6.58425C22.9785 6.29625 23.3865 6.15225 23.8985 6.15225C24.4265 6.15225 24.8345 6.28825 25.1225 6.56025C25.4105 6.83225 25.5545 7.21625 25.5545 7.71225C25.5545 8.17625 25.4025 8.55225 25.0985 8.84025C24.8105 9.12825 24.4105 9.27225 23.8985 9.27225Z"/>
</svg>
