<svg width="30" height="30" viewBox="0 0 30 30" fill="none" xmlns="http://www.w3.org/2000/svg">
<path d="M19.8571 7.71429C19.8571 7.04263 19.3145 6.5 18.6429 6.5H11.3571C10.6855 6.5 10.1429 7.04263 10.1429 7.71429C10.1429 8.38594 10.6855 8.92857 11.3571 8.92857H18.6429C19.3145 8.92857 19.8571 8.38594 19.8571 7.71429ZM23.5 12.5714C23.5 11.8998 22.9574 11.3571 22.2857 11.3571H7.71429C7.04263 11.3571 6.5 11.8998 6.5 12.5714C6.5 13.2431 7.04263 13.7857 7.71429 13.7857H22.2857C22.9574 13.7857 23.5 13.2431 23.5 12.5714ZM6.5 22.2857C6.5 22.9574 7.04263 23.5 7.71429 23.5H22.2857C22.9574 23.5 23.5 22.9574 23.5 22.2857C23.5 21.6141 22.9574 21.0714 22.2857 21.0714H7.71429C7.04263 21.0714 6.5 21.6141 6.5 22.2857ZM19.8571 17.4286C19.8571 16.7569 19.3145 16.2143 18.6429 16.2143H11.3571C10.6855 16.2143 10.1429 16.7569 10.1429 17.4286C10.1429 18.1002 10.6855 18.6429 11.3571 18.6429H18.6429C19.3145 18.6429 19.8571 18.1002 19.8571 17.4286Z" fill="white"/>
</svg>
