<svg width="30" height="30" viewBox="0 0 30 30" fill="none" xmlns="http://www.w3.org/2000/svg">
<path d="M23.5 7.71429C23.5 8.38594 22.9574 8.92857 22.2857 8.92857H13.7857C13.1141 8.92857 12.5714 8.38594 12.5714 7.71429C12.5714 7.04263 13.1141 6.5 13.7857 6.5H22.2857C22.9574 6.5 23.5 7.04263 23.5 7.71429ZM23.5 17.4286C23.5 18.1002 22.9574 18.6429 22.2857 18.6429H13.7857C13.1141 18.6429 12.5714 18.1002 12.5714 17.4286C12.5714 16.7569 13.1141 16.2143 13.7857 16.2143H22.2857C22.9574 16.2143 23.5 16.7569 23.5 17.4286ZM6.5 12.5714C6.5 11.8998 7.04263 11.3571 7.71429 11.3571H22.2857C22.9574 11.3571 23.5 11.8998 23.5 12.5714C23.5 13.2431 22.9574 13.7857 22.2857 13.7857H7.71429C7.04263 13.7857 6.5 13.2431 6.5 12.5714ZM23.5 22.2857C23.5 22.9574 22.9574 23.5 22.2857 23.5H7.71429C7.04263 23.5 6.5 22.9574 6.5 22.2857C6.5 21.6141 7.04263 21.0714 7.71429 21.0714H22.2857C22.9574 21.0714 23.5 21.6141 23.5 22.2857Z" fill="white"/>
</svg>
