<svg width="30" height="30" viewBox="0 0 30 30" fill="none" xmlns="http://www.w3.org/2000/svg">
<path d="M17.4286 7.71429C17.4286 8.38594 16.8859 8.92857 16.2143 8.92857H7.71429C7.04263 8.92857 6.5 8.38594 6.5 7.71429C6.5 7.04263 7.04263 6.5 7.71429 6.5H16.2143C16.8859 6.5 17.4286 7.04263 17.4286 7.71429ZM17.4286 17.4286C17.4286 18.1002 16.8859 18.6429 16.2143 18.6429H7.71429C7.04263 18.6429 6.5 18.1002 6.5 17.4286C6.5 16.7569 7.04263 16.2143 7.71429 16.2143H16.2143C16.8859 16.2143 17.4286 16.7569 17.4286 17.4286ZM6.5 12.5714C6.5 11.8998 7.04263 11.3571 7.71429 11.3571H22.2857C22.9574 11.3571 23.5 11.8998 23.5 12.5714C23.5 13.2431 22.9574 13.7857 22.2857 13.7857H7.71429C7.04263 13.7857 6.5 13.2431 6.5 12.5714ZM23.5 22.2857C23.5 22.9574 22.9574 23.5 22.2857 23.5H7.71429C7.04263 23.5 6.5 22.9574 6.5 22.2857C6.5 21.6141 7.04263 21.0714 7.71429 21.0714H22.2857C22.9574 21.0714 23.5 21.6141 23.5 22.2857Z" fill="white"/>
</svg>
