<svg width="30" height="30" viewBox="0 0 30 30" fill="none" xmlns="http://www.w3.org/2000/svg">
<path d="M18.663 14.6646C19.3893 14.3443 20.0052 13.8137 20.4327 13.1399C20.8603 12.4661 21.0803 11.6794 21.065 10.8793V10.8273C21.0771 10.3055 20.9837 9.78679 20.7904 9.30274C20.5972 8.81869 20.3083 8.37953 19.9412 8.01212C18.7283 6.94449 17.146 6.40564 15.5405 6.51358H9.53565C9.33586 6.50411 9.13627 6.536 8.94914 6.60729C8.76201 6.67857 8.59129 6.78774 8.44747 6.92809C8.30366 7.06844 8.18979 7.237 8.11286 7.42342C8.03593 7.60984 7.99756 7.81018 8.00012 8.01212V21.9927C7.99782 22.1913 8.03486 22.3883 8.10905 22.5722C8.18325 22.7561 8.29311 22.9232 8.43218 23.0636C8.57124 23.204 8.7367 23.315 8.91884 23.3899C9.10097 23.4648 9.2961 23.5022 9.49275 23.4999H15.7807C19.5294 23.4999 22 21.8714 22 18.8397V18.7877C22 16.4836 20.636 15.3402 18.663 14.6646ZM11.157 9.34608H15.0515C16.7672 9.34608 17.7537 10.117 17.7537 11.3643V11.4163C17.7537 12.8715 16.5871 13.5732 14.8542 13.5732H11.157V9.34608ZM18.6116 18.5279C18.6116 19.9051 17.4878 20.6328 15.6434 20.6328H11.157V16.4663H15.4461C17.5821 16.4663 18.6116 17.2286 18.6116 18.5192V18.5279Z" fill="white"/>
</svg>
