<svg width="29" height="31" viewBox="0 0 29 31" xmlns="http://www.w3.org/2000/svg">
<path d="M0.5 30.6563V26.4477H28.5V30.6563H0.5ZM17.7227 14.0241L14.0827 10.3766L8.56344 15.9071C8.48266 15.9881 8.44227 16.087 8.44227 16.2039C8.44227 16.3208 8.48266 16.4198 8.56344 16.5007L11.5895 19.5546C11.6703 19.6356 11.769 19.676 11.8857 19.676C12.0024 19.676 12.1011 19.6356 12.1819 19.5546L17.7227 14.0241ZM15.5795 8.89817L19.198 12.5241L25.175 6.55641C25.2557 6.47547 25.2961 6.37204 25.2961 6.24613C25.2961 6.12022 25.2557 6.0168 25.175 5.93585L22.1543 2.90892C22.0735 2.82798 21.9703 2.78751 21.8446 2.78751C21.719 2.78751 21.6157 2.82798 21.535 2.90892L15.5795 8.89817ZM13.3665 8.13739L19.9572 14.7417L13.6788 21.0546C13.1726 21.5618 12.5785 21.8154 11.8965 21.8154C11.2145 21.8154 10.6204 21.5618 10.1142 21.0546L9.97958 20.9197L8.69802 22.1175H3.25968L7.23886 18.1517L7.13117 18.0438C6.62502 17.5366 6.36476 16.9341 6.35039 16.2363C6.33604 15.5384 6.58194 14.9359 7.08808 14.4287L13.3665 8.13739ZM13.3665 8.13739L20.0731 1.41703C20.5792 0.909845 21.1733 0.65625 21.8554 0.65625C22.5374 0.65625 23.1315 0.909845 23.6377 1.41703L26.6853 4.44939C27.1915 4.95658 27.4445 5.55189 27.4445 6.23533C27.4445 6.91879 27.1915 7.51411 26.6853 8.0213L19.9572 14.7417L13.3665 8.13739Z"/>
</svg>
