<svg width="27" height="26" viewBox="0 0 27 26" xmlns="http://www.w3.org/2000/svg">
<path d="M5.74586 15.8274H15.8599V13.8047H5.74586V15.8274ZM5.74586 11.7818H21.2542V9.75899H5.74586V11.7818ZM5.74586 7.73609H21.2542V5.71333H5.74586V7.73609ZM0.688782 25.6562V3.09403C0.688782 2.41283 0.924779 1.83623 1.39677 1.36424C1.86877 0.892247 2.44536 0.65625 3.12656 0.65625H23.8735C24.5547 0.65625 25.1313 0.892247 25.6033 1.36424C26.0752 1.83623 26.3112 2.41283 26.3112 3.09403V18.4467C26.3112 19.1279 26.0752 19.7045 25.6033 20.1765C25.1313 20.6485 24.5547 20.8845 23.8735 20.8845H5.46057L0.688782 25.6562ZM4.59959 18.8617H23.8735C23.9772 18.8617 24.0723 18.8185 24.1588 18.732C24.2452 18.6456 24.2884 18.5505 24.2884 18.4467V3.09403C24.2884 2.99028 24.2452 2.89518 24.1588 2.80871C24.0723 2.72227 23.9772 2.67905 23.8735 2.67905H3.12656C3.02281 2.67905 2.92771 2.72227 2.84124 2.80871C2.7548 2.89518 2.71158 2.99028 2.71158 3.09403V20.7289L4.59959 18.8617Z"/>
</svg>
