<svg width="30" height="30" viewBox="0 0 30 30" fill="none" xmlns="http://www.w3.org/2000/svg">
<path d="M7.4391 19V18.408L8.8151 18.2C9.02843 18.168 9.1351 18.0507 9.1351 17.848V10.552H8.4471C8.18043 10.552 7.94043 10.5627 7.7271 10.584C7.51376 10.6053 7.35376 10.632 7.2471 10.664C7.06576 10.728 6.9591 10.8507 6.9271 11.032L6.5431 12.664H5.8551C5.81243 12.1733 5.79643 11.704 5.8071 11.256C5.81776 10.808 5.84976 10.3547 5.9031 9.896H13.6471C13.6898 10.3547 13.7111 10.808 13.7111 11.256C13.7218 11.704 13.7058 12.1733 13.6631 12.664H12.9751L12.5911 11.016C12.5804 10.92 12.5484 10.8453 12.4951 10.792C12.4418 10.7387 12.3778 10.696 12.3031 10.664C12.0471 10.5893 11.6524 10.552 11.1191 10.552H10.4151V17.848C10.4151 18.0507 10.5218 18.168 10.7351 18.2L12.0951 18.408V19H7.4391Z" fill="white"/>
<path d="M19.5 19.2344L15.1033 12.8882H23.8968L19.5 19.2344Z" fill="white"/>
</svg>
