<svg width="139" height="140" viewBox="0 0 139 140" fill="none" xmlns="http://www.w3.org/2000/svg">
<rect x="0.390747" y="0.71875" width="138.385" height="138.385" rx="5.32506" fill="#2F2F2F"/>
<line y1="-1.10708" x2="22.1416" y2="-1.10708" transform="matrix(1 0 0 -1 83.4221 104.773)" stroke="white" stroke-width="2.21416"/>
<line y1="-1.10708" x2="22.1416" y2="-1.10708" transform="matrix(-3.7222e-08 -1 -1 5.13321e-08 104.457 105.891)" stroke="white" stroke-width="2.21416"/>
<line x1="83.4221" y1="32.8226" x2="105.564" y2="32.8226" stroke="white" stroke-width="2.21416"/>
<line x1="105.564" y1="32.8203" x2="105.564" y2="54.9619" stroke="white" stroke-width="2.21416"/>
<line x1="55.7448" y1="106.998" x2="33.6031" y2="106.998" stroke="white" stroke-width="2.21416"/>
<line x1="33.6031" y1="107" x2="33.6031" y2="84.8584" stroke="white" stroke-width="2.21416"/>
<line y1="-1.10708" x2="22.1416" y2="-1.10708" transform="matrix(-1 0 0 1 55.7448 35.0469)" stroke="white" stroke-width="2.21416"/>
<line y1="-1.10708" x2="22.1416" y2="-1.10708" transform="matrix(1.85022e-07 1 1 -1.03268e-08 34.7102 33.9297)" stroke="white" stroke-width="2.21416"/>
<path d="M60.2101 63.381V61.3595H64.7889V78.9688H62.5482V63.381H60.2101ZM70.0552 79.1149C69.633 79.1149 69.2758 78.9688 68.9835 78.6765C68.6913 78.3842 68.5451 78.027 68.5451 77.6048C68.5451 77.1827 68.6913 76.8254 68.9835 76.5332C69.2758 76.2409 69.633 76.0948 70.0552 76.0948C70.4611 76.0948 70.8021 76.2409 71.0781 76.5332C71.3704 76.8254 71.5165 77.1827 71.5165 77.6048C71.5165 78.027 71.3704 78.3842 71.0781 78.6765C70.8021 78.9688 70.4611 79.1149 70.0552 79.1149ZM70.0552 68.6906C69.633 68.6906 69.2758 68.5445 68.9835 68.2522C68.6913 67.9599 68.5451 67.6027 68.5451 67.1805C68.5451 66.7584 68.6913 66.4012 68.9835 66.1089C69.2758 65.8166 69.633 65.6705 70.0552 65.6705C70.4611 65.6705 70.8021 65.8166 71.0781 66.1089C71.3704 66.4012 71.5165 66.7584 71.5165 67.1805C71.5165 67.6027 71.3704 67.9599 71.0781 68.2522C70.8021 68.5445 70.4611 68.6906 70.0552 68.6906ZM73.9716 63.381V61.3595H78.5505V78.9688H76.3098V63.381H73.9716Z" fill="white"/>
</svg>
