<svg width="139" height="140" viewBox="0 0 139 140" fill="none" xmlns="http://www.w3.org/2000/svg">
<rect x="0.200684" y="0.71875" width="138.385" height="138.385" rx="5.32506" fill="#2F2F2F"/>
<line x1="96.5168" y1="32.8226" x2="118.658" y2="32.8226" stroke="white" stroke-width="2.21416"/>
<line x1="118.658" y1="32.8203" x2="118.658" y2="54.9619" stroke="white" stroke-width="2.21416"/>
<line y1="-1.10708" x2="22.1416" y2="-1.10708" transform="matrix(1 0 0 -1 96.5168 104.773)" stroke="white" stroke-width="2.21416"/>
<line y1="-1.10708" x2="22.1416" y2="-1.10708" transform="matrix(-3.7222e-08 -1 -1 5.13321e-08 117.551 105.891)" stroke="white" stroke-width="2.21416"/>
<line x1="41.1632" y1="106.998" x2="19.0216" y2="106.998" stroke="white" stroke-width="2.21416"/>
<line x1="19.0216" y1="107" x2="19.0216" y2="84.8584" stroke="white" stroke-width="2.21416"/>
<line y1="-1.10708" x2="22.1416" y2="-1.10708" transform="matrix(-1 0 0 1 41.1632 35.0469)" stroke="white" stroke-width="2.21416"/>
<line y1="-1.10708" x2="22.1416" y2="-1.10708" transform="matrix(1.85022e-07 1 1 -1.03268e-08 20.1287 33.9297)" stroke="white" stroke-width="2.21416"/>
<path d="M52.2907 73.9381V72.2575L60.8396 60.4206H63.4944V72.014H65.93V73.9381H63.4944V77.8594H61.3024V73.9381H52.2907ZM61.3998 62.7344L54.8481 72.014H61.3998V62.7344ZM69.6032 78.0055C69.181 78.0055 68.8238 77.8594 68.5316 77.5671C68.2393 77.2748 68.0932 76.9176 68.0932 76.4955C68.0932 76.0733 68.2393 75.7161 68.5316 75.4238C68.8238 75.1315 69.181 74.9854 69.6032 74.9854C70.0091 74.9854 70.3501 75.1315 70.6262 75.4238C70.9184 75.7161 71.0646 76.0733 71.0646 76.4955C71.0646 76.9176 70.9184 77.2748 70.6262 77.5671C70.3501 77.8594 70.0091 78.0055 69.6032 78.0055ZM69.6032 67.5812C69.181 67.5812 68.8238 67.4351 68.5316 67.1428C68.2393 66.8506 68.0932 66.4933 68.0932 66.0712C68.0932 65.649 68.2393 65.2918 68.5316 64.9995C68.8238 64.7073 69.181 64.5611 69.6032 64.5611C70.0091 64.5611 70.3501 64.7073 70.6262 64.9995C70.9184 65.2918 71.0646 65.649 71.0646 66.0712C71.0646 66.4933 70.9184 66.8506 70.6262 67.1428C70.3501 67.4351 70.0091 67.5812 69.6032 67.5812ZM74.0554 64.6829C74.1691 63.1891 74.7455 62.02 75.7847 61.1757C76.8239 60.3313 78.1716 59.9092 79.8278 59.9092C80.9319 59.9092 81.8818 60.1121 82.6774 60.5181C83.4892 60.9077 84.0981 61.4436 84.5041 62.1255C84.9262 62.8075 85.1373 63.5788 85.1373 64.4393C85.1373 65.446 84.8451 66.3147 84.2605 67.0454C83.6922 67.7761 82.9453 68.247 82.0198 68.458V68.5798C83.0752 68.8396 83.9114 69.3511 84.5284 70.1142C85.1454 70.8774 85.4539 71.876 85.4539 73.11C85.4539 74.0355 85.2429 74.8717 84.8207 75.6186C84.3985 76.3493 83.7653 76.9257 82.9209 77.3479C82.0766 77.7701 81.0618 77.9812 79.8765 77.9812C78.1553 77.9812 76.7427 77.5346 75.6386 76.6416C74.5344 75.7323 73.9174 74.4496 73.7875 72.7934H75.9308C76.0445 73.7676 76.4423 74.5632 77.1243 75.1802C77.8062 75.7973 78.7155 76.1058 79.8521 76.1058C80.9887 76.1058 81.8493 75.8135 82.4338 75.229C83.0346 74.6282 83.335 73.8569 83.335 72.9152C83.335 71.6974 82.9291 70.8206 82.1172 70.2847C81.3053 69.7489 80.0794 69.481 78.4395 69.481H77.8793V67.6299H78.4638C79.9577 67.6137 81.0861 67.3701 81.8493 66.8993C82.6124 66.4122 82.994 65.6652 82.994 64.6585C82.994 63.798 82.7099 63.1079 82.1416 62.5883C81.5895 62.0687 80.7939 61.8089 79.7547 61.8089C78.748 61.8089 77.9361 62.0687 77.3191 62.5883C76.7021 63.1079 76.3368 63.8061 76.2231 64.6829H74.0554Z" fill="white"/>
</svg>
