<svg width="139" height="140" viewBox="0 0 139 140" fill="none" xmlns="http://www.w3.org/2000/svg">
<rect x="0.0106812" y="0.71875" width="138.385" height="138.385" rx="5.32506" fill="#2F2F2F"/>
<line y1="-1.10708" x2="22.1416" y2="-1.10708" transform="matrix(1 0 0 -1 83.0418 119.172)" stroke="white" stroke-width="2.21416"/>
<line y1="-1.10708" x2="22.1416" y2="-1.10708" transform="matrix(-3.7222e-08 -1 -1 5.13321e-08 104.076 120.289)" stroke="white" stroke-width="2.21416"/>
<line x1="83.0418" y1="19.5414" x2="105.183" y2="19.5414" stroke="white" stroke-width="2.21416"/>
<line x1="105.183" y1="19.5391" x2="105.183" y2="41.6807" stroke="white" stroke-width="2.21416"/>
<line x1="55.365" y1="121.388" x2="33.2234" y2="121.388" stroke="white" stroke-width="2.21416"/>
<line x1="33.2234" y1="121.391" x2="33.2234" y2="99.249" stroke="white" stroke-width="2.21416"/>
<line y1="-1.10708" x2="22.1416" y2="-1.10708" transform="matrix(-1 0 0 1 55.365 21.7578)" stroke="white" stroke-width="2.21416"/>
<line y1="-1.10708" x2="22.1416" y2="-1.10708" transform="matrix(1.85022e-07 1 1 -1.03268e-08 34.3304 20.6406)" stroke="white" stroke-width="2.21416"/>
<path d="M52.5878 64.6829C52.7015 63.1891 53.2779 62.02 54.3171 61.1757C55.3562 60.3313 56.7039 59.9092 58.3601 59.9092C59.4642 59.9092 60.4141 60.1121 61.2097 60.5181C62.0216 60.9077 62.6305 61.4436 63.0364 62.1255C63.4586 62.8075 63.6697 63.5788 63.6697 64.4393C63.6697 65.446 63.3774 66.3147 62.7929 67.0454C62.2246 67.7761 61.4777 68.247 60.5521 68.458V68.5798C61.6076 68.8396 62.4438 69.3511 63.0608 70.1142C63.6778 70.8774 63.9863 71.876 63.9863 73.11C63.9863 74.0355 63.7752 74.8717 63.3531 75.6186C62.9309 76.3493 62.2976 76.9257 61.4533 77.3479C60.609 77.7701 59.5941 77.9812 58.4088 77.9812C56.6877 77.9812 55.2751 77.5346 54.1709 76.6416C53.0668 75.7323 52.4498 74.4496 52.3199 72.7934H54.4632C54.5769 73.7676 54.9747 74.5632 55.6566 75.1802C56.3386 75.7973 57.2479 76.1058 58.3845 76.1058C59.5211 76.1058 60.3816 75.8135 60.9662 75.229C61.567 74.6282 61.8674 73.8569 61.8674 72.9152C61.8674 71.6974 61.4614 70.8206 60.6496 70.2847C59.8377 69.7489 58.6118 69.481 56.9718 69.481H56.4117V67.6299H56.9962C58.49 67.6137 59.6185 67.3701 60.3816 66.8993C61.1448 66.4122 61.5264 65.6652 61.5264 64.6585C61.5264 63.798 61.2422 63.1079 60.6739 62.5883C60.1219 62.0687 59.3262 61.8089 58.2871 61.8089C57.2803 61.8089 56.4685 62.0687 55.8515 62.5883C55.2345 63.1079 54.8691 63.8061 54.7555 64.6829H52.5878ZM68.438 78.0055C68.0158 78.0055 67.6586 77.8594 67.3663 77.5671C67.074 77.2748 66.9279 76.9176 66.9279 76.4955C66.9279 76.0733 67.074 75.7161 67.3663 75.4238C67.6586 75.1315 68.0158 74.9854 68.438 74.9854C68.8439 74.9854 69.1849 75.1315 69.4609 75.4238C69.7532 75.7161 69.8993 76.0733 69.8993 76.4955C69.8993 76.9176 69.7532 77.2748 69.4609 77.5671C69.1849 77.8594 68.8439 78.0055 68.438 78.0055ZM68.438 67.5812C68.0158 67.5812 67.6586 67.4351 67.3663 67.1428C67.074 66.8506 66.9279 66.4933 66.9279 66.0712C66.9279 65.649 67.074 65.2918 67.3663 64.9995C67.6586 64.7073 68.0158 64.5611 68.438 64.5611C68.8439 64.5611 69.1849 64.7073 69.4609 64.9995C69.7532 65.2918 69.8993 65.649 69.8993 66.0712C69.8993 66.4933 69.7532 66.8506 69.4609 67.1428C69.1849 67.4351 68.8439 67.5812 68.438 67.5812ZM72.4031 73.9381V72.2575L80.952 60.4206H83.6067V72.014H86.0423V73.9381H83.6067V77.8594H81.4147V73.9381H72.4031ZM81.5121 62.7344L74.9604 72.014H81.5121V62.7344Z" fill="white"/>
</svg>
