<svg width="26" height="26" viewBox="0 0 26 26" xmlns="http://www.w3.org/2000/svg">
<path fill-rule="evenodd" clip-rule="evenodd" d="M20.8441 20.7282L25.5 25.5V2.93778C25.5 2.25658 25.2697 1.67998 24.8092 1.20799C24.3487 0.735997 23.7861 0.5 23.1214 0.5H2.87856C2.21391 0.5 1.65132 0.735997 1.19079 1.20799C0.730264 1.67998 0.5 2.25658 0.5 2.93778V18.2905C0.5 18.9717 0.730264 19.5483 1.19079 20.0203C1.65132 20.4922 2.21391 20.7282 2.87856 20.7282H20.8441ZM23.5263 20.5727L21.6842 18.7054H2.87856C2.77733 18.7054 2.68453 18.6622 2.60017 18.5758C2.51583 18.4893 2.47366 18.3942 2.47366 18.2905V2.93778C2.47366 2.83403 2.51583 2.73893 2.60017 2.65246C2.68453 2.56602 2.77733 2.5228 2.87856 2.5228H23.1214C23.2227 2.5228 23.3155 2.56602 23.3998 2.65246C23.4842 2.73893 23.5263 2.83403 23.5263 2.93778V20.5727Z"/>
<path d="M16.3948 18.98L11.6248 12.734L13.2268 11.672L17.9428 17.864L16.3948 18.98ZM12.3988 17.18C11.5108 17.18 10.6888 17.018 9.93284 16.694C9.18884 16.37 8.53484 15.92 7.97084 15.344C7.41884 14.756 6.98684 14.072 6.67484 13.292C6.37484 12.5 6.22484 11.636 6.22484 10.7C6.22484 9.764 6.37484 8.906 6.67484 8.126C6.98684 7.334 7.41884 6.65 7.97084 6.074C8.53484 5.486 9.18884 5.03 9.93284 4.706C10.6888 4.382 11.5108 4.22 12.3988 4.22C13.2868 4.22 14.1028 4.382 14.8468 4.706C15.6028 5.03 16.2568 5.486 16.8088 6.074C17.3728 6.662 17.8048 7.352 18.1048 8.144C18.4168 8.924 18.5728 9.776 18.5728 10.7C18.5728 11.624 18.4168 12.482 18.1048 13.274C17.8048 14.054 17.3728 14.738 16.8088 15.326C16.2568 15.914 15.6028 16.37 14.8468 16.694C14.1028 17.018 13.2868 17.18 12.3988 17.18ZM12.3988 15.29C13.0108 15.29 13.5688 15.176 14.0728 14.948C14.5888 14.72 15.0328 14.402 15.4048 13.994C15.7768 13.574 16.0648 13.088 16.2688 12.536C16.4848 11.972 16.5928 11.36 16.5928 10.7C16.5928 10.04 16.4848 9.434 16.2688 8.882C16.0648 8.318 15.7768 7.832 15.4048 7.424C15.0328 7.004 14.5888 6.68 14.0728 6.452C13.5688 6.224 13.0108 6.11 12.3988 6.11C11.7868 6.11 11.2228 6.224 10.7068 6.452C10.2028 6.68 9.75884 6.998 9.37484 7.406C9.00284 7.814 8.71484 8.3 8.51084 8.864C8.30684 9.416 8.20484 10.028 8.20484 10.7C8.20484 11.36 8.30684 11.972 8.51084 12.536C8.71484 13.1 9.00284 13.586 9.37484 13.994C9.75884 14.402 10.2028 14.72 10.7068 14.948C11.2228 15.176 11.7868 15.29 12.3988 15.29Z"/>
</svg>
