<svg width="26" height="26" viewBox="0 0 26 26" xmlns="http://www.w3.org/2000/svg">
<path d="M20.8441 20.7282L25.5 25.5V2.93778C25.5 2.25658 25.2697 1.67998 24.8092 1.20799C24.3487 0.735997 23.7861 0.5 23.1214 0.5H2.87856C2.21391 0.5 1.65132 0.735997 1.19079 1.20799C0.730264 1.67998 0.5 2.25658 0.5 2.93778V18.2905C0.5 18.9717 0.730264 19.5483 1.19079 20.0203C1.65132 20.4922 2.21391 20.7282 2.87856 20.7282H20.8441ZM23.5263 20.5727L21.6842 18.7054H2.87856C2.77733 18.7054 2.68453 18.6622 2.60017 18.5758C2.51583 18.4893 2.47366 18.3942 2.47366 18.2905V2.93778C2.47366 2.83403 2.51583 2.73893 2.60017 2.65246C2.68453 2.56602 2.77733 2.5228 2.87856 2.5228H23.1214C23.2227 2.5228 23.3155 2.56602 23.3998 2.65246C23.4842 2.73893 23.5263 2.83403 23.5263 2.93778V20.5727Z"/>
<path d="M9.04267 17.5469V4.94687H14.4067C15.1267 4.94687 15.7867 5.12687 16.3867 5.48687C16.9987 5.83487 17.4847 6.31487 17.8447 6.92687C18.2047 7.52687 18.3847 8.20487 18.3847 8.96087C18.3847 9.64487 18.2047 10.2809 17.8447 10.8689C17.4847 11.4569 17.0047 11.9309 16.4047 12.2909C15.8047 12.6389 15.1387 12.8129 14.4067 12.8129H10.9867V17.5469H9.04267ZM16.5307 17.5469L13.3267 11.8589L15.3247 11.4089L18.8887 17.5649L16.5307 17.5469ZM10.9867 10.9409H14.5867C14.9347 10.9409 15.2467 10.8569 15.5227 10.6889C15.7987 10.5089 16.0147 10.2689 16.1707 9.96887C16.3267 9.65687 16.4047 9.31487 16.4047 8.94287C16.4047 8.52287 16.3027 8.15687 16.0987 7.84487C15.9067 7.52087 15.6307 7.26887 15.2707 7.08887C14.9227 6.90887 14.5267 6.81887 14.0827 6.81887H10.9867V10.9409Z"/>
</svg>
