<svg width="30" height="30" viewBox="0 0 30 30" fill="none" xmlns="http://www.w3.org/2000/svg">
<path d="M5.96429 10.3636C6.48525 10.3636 6.98487 10.1601 7.35325 9.79782C7.72162 9.43553 7.92857 8.94417 7.92857 8.43182C7.92857 7.91947 7.72162 7.4281 7.35325 7.06582C6.98487 6.70353 6.48525 6.5 5.96429 6.5C5.44332 6.5 4.9437 6.70353 4.57533 7.06582C4.20695 7.4281 4 7.91947 4 8.43182C4 8.94417 4.20695 9.43553 4.57533 9.79782C4.9437 10.1601 5.44332 10.3636 5.96429 10.3636ZM5.96429 16.9318C6.48525 16.9318 6.98487 16.7283 7.35325 16.366C7.72162 16.0037 7.92857 15.5124 7.92857 15C7.92857 14.4876 7.72162 13.9963 7.35325 13.634C6.98487 13.2717 6.48525 13.0682 5.96429 13.0682C5.44332 13.0682 4.9437 13.2717 4.57533 13.634C4.20695 13.9963 4 14.4876 4 15C4 15.5124 4.20695 16.0037 4.57533 16.366C4.9437 16.7283 5.44332 16.9318 5.96429 16.9318ZM7.92857 21.5682C7.92857 22.0805 7.72162 22.5719 7.35325 22.9342C6.98487 23.2965 6.48525 23.5 5.96429 23.5C5.44332 23.5 4.9437 23.2965 4.57533 22.9342C4.20695 22.5719 4 22.0805 4 21.5682C4 21.0558 4.20695 20.5645 4.57533 20.2022C4.9437 19.8399 5.44332 19.6364 5.96429 19.6364C6.48525 19.6364 6.98487 19.8399 7.35325 20.2022C7.72162 20.5645 7.92857 21.0558 7.92857 21.5682ZM11.4643 7.27273C11.1517 7.27273 10.8519 7.39485 10.6309 7.61222C10.4099 7.82959 10.2857 8.12441 10.2857 8.43182C10.2857 8.73923 10.4099 9.03405 10.6309 9.25142C10.8519 9.46879 11.1517 9.59091 11.4643 9.59091H24.8214C25.134 9.59091 25.4338 9.46879 25.6548 9.25142C25.8758 9.03405 26 8.73923 26 8.43182C26 8.12441 25.8758 7.82959 25.6548 7.61222C25.4338 7.39485 25.134 7.27273 24.8214 7.27273H11.4643ZM10.2857 15C10.2857 14.6926 10.4099 14.3978 10.6309 14.1804C10.8519 13.963 11.1517 13.8409 11.4643 13.8409H24.8214C25.134 13.8409 25.4338 13.963 25.6548 14.1804C25.8758 14.3978 26 14.6926 26 15C26 15.3074 25.8758 15.6022 25.6548 15.8196C25.4338 16.037 25.134 16.1591 24.8214 16.1591H11.4643C11.1517 16.1591 10.8519 16.037 10.6309 15.8196C10.4099 15.6022 10.2857 15.3074 10.2857 15ZM11.4643 20.4091C11.1517 20.4091 10.8519 20.5312 10.6309 20.7486C10.4099 20.966 10.2857 21.2608 10.2857 21.5682C10.2857 21.8756 10.4099 22.1704 10.6309 22.3878C10.8519 22.6052 11.1517 22.7273 11.4643 22.7273H24.8214C25.134 22.7273 25.4338 22.6052 25.6548 22.3878C25.8758 22.1704 26 21.8756 26 21.5682C26 21.2608 25.8758 20.966 25.6548 20.7486C25.4338 20.5312 25.134 20.4091 24.8214 20.4091H11.4643Z" fill="white"/>
</svg>
