<svg width="31" height="31" viewBox="0 0 31 31" xmlns="http://www.w3.org/2000/svg">
<path d="M4.42306 5.15625L6.67306 9.65625H11.1731L8.92306 5.15625H11.9231L14.1731 9.65625H18.6731L16.4231 5.15625H19.4231L21.6731 9.65625H26.1731L23.9231 5.15625H26.5769C27.2673 5.15625 27.8438 5.3875 28.3063 5.85C28.7688 6.3125 29 6.88894 29 7.57931V23.7332C29 24.4236 28.7688 25 28.3063 25.4625C27.8438 25.925 27.2673 26.1562 26.5769 26.1562H4.42306C3.73269 26.1562 3.15625 25.925 2.69375 25.4625C2.23125 25 2 24.4236 2 23.7332V7.57931C2 6.88894 2.23125 6.3125 2.69375 5.85C3.15625 5.3875 3.73269 5.15625 4.42306 5.15625ZM3.5 11.1562V23.7332C3.5 24.0024 3.58654 24.2236 3.75961 24.3966C3.93269 24.5697 4.15384 24.6562 4.42306 24.6562H26.5769C26.8462 24.6562 27.0673 24.5697 27.2404 24.3966C27.4135 24.2236 27.5 24.0024 27.5 23.7332V11.1562H3.5Z"/>
</svg>
