<svg width="31" height="31" viewBox="0 0 31 31" xmlns="http://www.w3.org/2000/svg">
<path d="M11.4323 28.1563C8.82016 28.1563 6.58288 27.2817 4.72046 25.5326C2.85807 23.7835 1.92688 21.6304 1.92688 19.0731C1.92688 16.5159 2.85807 14.3656 4.72046 12.6223C6.58288 10.8789 8.82016 10.0073 11.4323 10.0073H23.9703L19.0011 5.03809L20.8829 3.15625L29.0732 11.3465L20.8829 19.5367L19.0011 17.6549L23.9703 12.6857H11.4323C9.56877 12.6857 7.96506 13.2982 6.62118 14.523C5.27731 15.7478 4.60537 17.2645 4.60537 19.0731C4.60537 20.8817 5.27731 22.4013 6.62118 23.6319C7.96506 24.8624 9.56877 25.4777 11.4323 25.4777H24.2483V28.1563H11.4323Z"/>
</svg>
