<svg width="26" height="26" viewBox="0 0 26 26" fill="none" xmlns="http://www.w3.org/2000/svg">
<path d="M6.01472 19.9853H15.5735V17.7795H6.01472V19.9853ZM6.01472 14.1029H19.9853V11.8971H6.01472V14.1029ZM6.01472 8.22054H19.9853V6.01472H6.01472V8.22054ZM3.15839 25.5C2.41554 25.5 1.78677 25.2426 1.27206 24.7279C0.757354 24.2132 0.5 23.5845 0.5 22.8416V3.15839C0.5 2.41555 0.757354 1.78677 1.27206 1.27206C1.78677 0.757354 2.41554 0.5 3.15839 0.5H22.8416C23.5845 0.5 24.2132 0.757354 24.7279 1.27206C25.2426 1.78677 25.5 2.41555 25.5 3.15839V22.8416C25.5 23.5845 25.2426 24.2132 24.7279 24.7279C24.2132 25.2426 23.5845 25.5 22.8416 25.5H3.15839ZM3.15839 23.2941H22.8416C22.9547 23.2941 23.0585 23.247 23.1527 23.1528C23.247 23.0585 23.2941 22.9547 23.2941 22.8416V3.15839C23.2941 3.04525 23.247 2.94154 23.1527 2.84725C23.0585 2.75299 22.9547 2.70585 22.8416 2.70585H3.15839C3.04525 2.70585 2.94154 2.75299 2.84725 2.84725C2.75298 2.94154 2.70585 3.04525 2.70585 3.15839V22.8416C2.70585 22.9547 2.75298 23.0585 2.84725 23.1528C2.94154 23.247 3.04525 23.2941 3.15839 23.2941Z" fill="url(#paint0_linear_7139_6563)"/>
<defs>
<linearGradient id="paint0_linear_7139_6563" x1="3.79457" y1="-2.0641" x2="23.8015" y2="25.3551" gradientUnits="userSpaceOnUse">
<stop stop-color="#EBEAEA"/>
<stop offset="0.398333" stop-color="#BFBFBF"/>
<stop offset="0.697917" stop-color="#E0E0E0"/>
<stop offset="1" stop-color="#C4C4C4"/>
</linearGradient>
</defs>
</svg>
