<svg width="30" height="30" viewBox="0 0 30 30" fill="none" xmlns="http://www.w3.org/2000/svg">
<path d="M7.33044 11.864V9.32H11.7624V21H8.91444V11.864H7.33044ZM19.4101 12.472C19.3247 12.0773 19.1754 11.784 18.9621 11.592C18.7487 11.3893 18.4447 11.288 18.0501 11.288C17.4421 11.288 17.0047 11.5547 16.7381 12.088C16.4714 12.6107 16.3327 13.4427 16.3221 14.584C16.5567 14.2107 16.8927 13.9173 17.3301 13.704C17.7781 13.4907 18.2687 13.384 18.8021 13.384C19.8474 13.384 20.6847 13.7147 21.3141 14.376C21.9541 15.0373 22.2741 15.96 22.2741 17.144C22.2741 17.9227 22.1141 18.6053 21.7941 19.192C21.4847 19.7787 21.0261 20.2373 20.4181 20.568C19.8207 20.8987 19.1114 21.064 18.2901 21.064C16.6474 21.064 15.5061 20.552 14.8661 19.528C14.2261 18.4933 13.9061 17.0107 13.9061 15.08C13.9061 13.0533 14.2421 11.5493 14.9141 10.568C15.5967 9.576 16.6847 9.08 18.1781 9.08C18.9781 9.08 19.6501 9.24 20.1941 9.56C20.7487 9.86933 21.1647 10.28 21.4421 10.792C21.7301 11.304 21.9007 11.864 21.9541 12.472H19.4101ZM18.1461 15.544C17.6874 15.544 17.3034 15.6827 16.9941 15.96C16.6954 16.2267 16.5461 16.6107 16.5461 17.112C16.5461 17.624 16.6847 18.024 16.9621 18.312C17.2501 18.6 17.6554 18.744 18.1781 18.744C18.6474 18.744 19.0154 18.6053 19.2821 18.328C19.5594 18.04 19.6981 17.6507 19.6981 17.16C19.6981 16.6587 19.5647 16.264 19.2981 15.976C19.0314 15.688 18.6474 15.544 18.1461 15.544Z" fill="white"/>
</svg>
