<svg width="30" height="30" viewBox="0 0 30 30" fill="none" xmlns="http://www.w3.org/2000/svg">
<path d="M23.8 21.8095H6.2C4.99 21.8095 4 22.7524 4 23.9048C4 25.0571 4.99 26 6.2 26H23.8C25.01 26 26 25.0571 26 23.9048C26 22.7524 25.01 21.8095 23.8 21.8095ZM9.621 18.6667C10.149 18.6667 10.622 18.3524 10.787 17.881L11.898 14.9162H18.113L19.202 17.8705C19.378 18.3524 19.851 18.6667 20.379 18.6667C21.248 18.6667 21.842 17.839 21.534 17.0743L16.859 5.22571C16.573 4.49238 15.825 4 15 4C14.175 4 13.427 4.49238 13.141 5.22571L8.466 17.0743C8.158 17.839 8.763 18.6667 9.621 18.6667ZM14.934 6.72381H15.066L17.299 12.7895H12.701L14.934 6.72381Z" fill="white"/>
</svg>
