<svg width="30" height="30" viewBox="0 0 30 30" fill="none" xmlns="http://www.w3.org/2000/svg">
<path d="M8.00001 6.58571C8.00001 6.29776 8.11801 6.02161 8.32805 5.818C8.53809 5.61439 8.82296 5.5 9.12001 5.5C9.41705 5.5 9.70192 5.61439 9.91196 5.818C10.122 6.02161 10.24 6.29776 10.24 6.58571V13.1011C10.2366 16.8609 11.7184 18.5286 14.9966 18.5286C18.276 18.5286 19.76 16.8598 19.76 13.1V6.58571C19.76 6.29776 19.878 6.02161 20.088 5.818C20.2981 5.61439 20.583 5.5 20.88 5.5C21.177 5.5 21.4619 5.61439 21.672 5.818C21.882 6.02161 22 6.29776 22 6.58571V13.1C22 18.0291 19.5584 20.7 14.9966 20.7C10.4349 20.7 7.99553 18.0281 8.00001 13.1V6.58571ZM9.12001 24.5C8.82296 24.5 8.53809 24.3856 8.32805 24.182C8.11801 23.9784 8.00001 23.7022 8.00001 23.4143C8.00001 23.1263 8.11801 22.8502 8.32805 22.6466C8.53809 22.443 8.82296 22.3286 9.12001 22.3286H20.88C21.177 22.3286 21.4619 22.443 21.672 22.6466C21.882 22.8502 22 23.1263 22 23.4143C22 23.7022 21.882 23.9784 21.672 24.182C21.4619 24.3856 21.177 24.5 20.88 24.5H9.12001Z" fill="white"/>
</svg>
