<svg width="31" height="31" viewBox="0 0 31 31"  xmlns="http://www.w3.org/2000/svg">
<path d="M6.75176 28.1563V25.4777H19.5677C21.4313 25.4777 23.035 24.8624 24.3789 23.6319C25.7228 22.4013 26.3947 20.8817 26.3947 19.0731C26.3947 17.2645 25.7228 15.7478 24.3789 14.523C23.035 13.2982 21.4313 12.6857 19.5677 12.6857H7.0298L11.999 17.6549L10.1171 19.5367L1.92688 11.3465L10.1171 3.15625L11.999 5.03809L7.0298 10.0073H19.5677C22.1799 10.0073 24.4172 10.8789 26.2796 12.6223C28.142 14.3656 29.0732 16.5159 29.0732 19.0731C29.0732 21.6304 28.142 23.7835 26.2796 25.5326C24.4172 27.2817 22.1799 28.1563 19.5677 28.1563H6.75176Z" />
</svg>
