<svg width="31" height="30" viewBox="0 0 31 30" fill="none" xmlns="http://www.w3.org/2000/svg">
<path d="M16.3622 21.4628H14.638V14.5663V18.2732V3.35938H16.3622V21.4628ZM6.21628 27.4973C5.42275 27.4973 4.76018 27.2315 4.22857 26.6999C3.69696 26.1683 3.43115 25.5057 3.43115 24.7122V20.5345H5.15529V24.7122C5.15529 24.9774 5.26581 25.2206 5.48684 25.4416C5.70791 25.6627 5.95105 25.7732 6.21628 25.7732H24.784C25.0492 25.7732 25.2923 25.6627 25.5134 25.4416C25.7344 25.2206 25.8449 24.9774 25.8449 24.7122V20.5345H27.5691V24.7122C27.5691 25.5057 27.3033 26.1683 26.7717 26.6999C26.2401 27.2315 25.5775 27.4973 24.784 27.4973H6.21628Z" fill="url(#paint0_linear_11542_215)"/>
<line x1="15.8537" y1="2.85355" x2="8.95712" y2="9.7501" stroke="url(#paint1_linear_11542_215)"/>
<line x1="22.0432" y1="9.75199" x2="15.1466" y2="2.85544" stroke="url(#paint2_linear_11542_215)"/>
<defs>
<linearGradient id="paint0_linear_11542_215" x1="12.903" y1="0.533098" x2="27.5691" y2="25.2057" gradientUnits="userSpaceOnUse">
<stop stop-color="#DEBF1A"/>
<stop offset="0.408854" stop-color="#F2E28A"/>
<stop offset="0.692708" stop-color="#CDB016"/>
<stop offset="1" stop-color="#EDDA75"/>
</linearGradient>
<linearGradient id="paint1_linear_11542_215" x1="12.8767" y1="5.28904" x2="11.8427" y2="4.37389" gradientUnits="userSpaceOnUse">
<stop stop-color="#DEBF1A"/>
<stop offset="0.408854" stop-color="#F2E28A"/>
<stop offset="0.692708" stop-color="#CDB016"/>
<stop offset="1" stop-color="#EDDA75"/>
</linearGradient>
<linearGradient id="paint2_linear_11542_215" x1="19.6077" y1="6.77499" x2="20.5228" y2="5.74106" gradientUnits="userSpaceOnUse">
<stop stop-color="#DEBF1A"/>
<stop offset="0.408854" stop-color="#F2E28A"/>
<stop offset="0.692708" stop-color="#CDB016"/>
<stop offset="1" stop-color="#EDDA75"/>
</linearGradient>
</defs>
</svg>
