<svg width="31" height="31" viewBox="0 0 31 31" fill="none" xmlns="http://www.w3.org/2000/svg">
<mask id="mask0_9981_6794" style="mask-type:alpha" maskUnits="userSpaceOnUse" x="0" y="0" width="31" height="31">
<rect x="0.5" y="0.335938" width="30" height="30" fill="#D9D9D9"/>
</mask>
<g mask="url(#mask0_9981_6794)">
<path d="M20.2159 16.548L18.8121 15.1442C18.9996 14.1089 18.7043 13.1782 17.9263 12.3521C17.1482 11.526 16.1935 11.2067 15.0621 11.3942L13.6583 9.99038C13.9403 9.86377 14.2296 9.76882 14.5261 9.70553C14.8225 9.64222 15.147 9.61056 15.4996 9.61056C16.9179 9.61056 18.1218 10.1054 19.1114 11.0949C20.1009 12.0845 20.5957 13.2884 20.5957 14.7067C20.5957 15.0593 20.5641 15.3878 20.5008 15.6923C20.4375 15.9967 20.3425 16.282 20.2159 16.548ZM24.1919 20.4374L22.8121 19.1442C23.6038 18.54 24.3069 17.8786 24.9215 17.1598C25.5361 16.4411 26.0621 15.6234 26.4996 14.7067C25.4579 12.6025 23.9631 10.9306 22.0152 9.69106C20.0673 8.45148 17.8954 7.83169 15.4996 7.83169C14.8954 7.83169 14.3017 7.87335 13.7184 7.95669C13.135 8.04002 12.5621 8.16502 11.9996 8.33169L10.5429 6.875C11.333 6.5609 12.1399 6.32932 12.9636 6.18028C13.7873 6.03124 14.6326 5.95672 15.4996 5.95672C18.4291 5.95672 21.0709 6.76441 23.425 8.37978C25.7792 9.99518 27.4964 12.1041 28.5765 14.7067C28.1133 15.8237 27.5152 16.8661 26.782 17.8341C26.0488 18.802 25.1855 19.6698 24.1919 20.4374ZM25.2015 27.6682L20.1439 22.6489C19.5028 22.8861 18.7925 23.08 18.0129 23.2307C17.2332 23.3813 16.3954 23.4567 15.4996 23.4567C12.5621 23.4567 9.92031 22.649 7.57417 21.0336C5.22802 19.4182 3.51088 17.3092 2.42273 14.7067C2.88427 13.6025 3.48043 12.5725 4.2112 11.6165C4.94197 10.6606 5.74646 9.8317 6.62467 9.12978L3.1631 5.62978L4.48042 4.3125L26.5188 26.3509L25.2015 27.6682ZM7.94195 10.447C7.2817 10.9727 6.63947 11.6045 6.01526 12.3425C5.39105 13.0805 4.88583 13.8685 4.4996 14.7067C5.54127 16.8109 7.03606 18.4827 8.98398 19.7223C10.9319 20.9619 13.1038 21.5817 15.4996 21.5817C16.0685 21.5817 16.635 21.5336 17.1992 21.4374C17.7633 21.3413 18.2416 21.2419 18.6343 21.1394L17.0525 19.5192C16.8394 19.6057 16.5926 19.6746 16.3121 19.7259C16.0317 19.7772 15.7608 19.8028 15.4996 19.8028C14.0814 19.8028 12.8774 19.308 11.8879 18.3184C10.8983 17.3289 10.4035 16.1249 10.4035 14.7067C10.4035 14.4535 10.4291 14.1887 10.4804 13.9122C10.5317 13.6358 10.6006 13.3829 10.6871 13.1538L7.94195 10.447Z" fill="#555555"/>
</g>
</svg>
