<svg width="31" height="31" viewBox="0 0 31 31" fill="none" xmlns="http://www.w3.org/2000/svg">
<path d="M15.5027 20.5243C16.8566 20.5243 18.0065 20.0505 18.9524 19.1028C19.8983 18.155 20.3713 17.0042 20.3713 15.6503C20.3713 14.2964 19.8975 13.1465 18.9497 12.2006C18.002 11.2547 16.8512 10.7817 15.4973 10.7817C14.1434 10.7817 12.9935 11.2556 12.0476 12.2033C11.1017 13.151 10.6287 14.3019 10.6287 15.6558C10.6287 17.0096 11.1025 18.1595 12.0503 19.1055C12.998 20.0514 14.1488 20.5243 15.5027 20.5243ZM15.5 18.8791C14.6039 18.8791 13.8421 18.5655 13.2148 17.9382C12.5875 17.3109 12.2739 16.5492 12.2739 15.653C12.2739 14.7569 12.5875 13.9952 13.2148 13.3679C13.8421 12.7406 14.6039 12.4269 15.5 12.4269C16.3961 12.4269 17.1579 12.7406 17.7852 13.3679C18.4125 13.9952 18.7261 14.7569 18.7261 15.653C18.7261 16.5492 18.4125 17.3109 17.7852 17.9382C17.1579 18.5655 16.3961 18.8791 15.5 18.8791ZM15.5016 24.017C12.7539 24.017 10.2503 23.2591 7.9908 21.7433C5.7313 20.2276 4.0677 18.1975 3 15.653C4.0677 13.1086 5.73077 11.0785 7.98919 9.56273C10.2476 8.04695 12.7506 7.28906 15.4984 7.28906C18.2461 7.28906 20.7497 8.04695 23.0092 9.56273C25.2687 11.0785 26.9323 13.1086 28 15.653C26.9323 18.1975 25.2692 20.2276 23.0108 21.7433C20.7524 23.2591 18.2494 24.017 15.5016 24.017ZM15.5 22.2247C17.7503 22.2247 19.8164 21.6323 21.6983 20.4474C23.5802 19.2625 25.019 17.6644 26.0147 15.653C25.019 13.6417 23.5802 12.0436 21.6983 10.8587C19.8164 9.67377 17.7503 9.08132 15.5 9.08132C13.2497 9.08132 11.1836 9.67377 9.30168 10.8587C7.41978 12.0436 5.98097 13.6417 4.98526 15.653C5.98097 17.6644 7.41978 19.2625 9.30168 20.4474C11.1836 21.6323 13.2497 22.2247 15.5 22.2247Z" fill="white"/>
</svg>
