<svg width="25" height="24" viewBox="0 0 25 24" fill="none" xmlns="http://www.w3.org/2000/svg">
<path d="M21.9546 10.1543C22.0776 10.8133 22.1446 11.5023 22.1446 12.2213C22.1446 17.8453 18.3806 21.8442 12.6956 21.8442C11.4027 21.8446 10.1225 21.5903 8.92796 21.0957C7.73345 20.6012 6.6481 19.8761 5.73392 18.9619C4.81975 18.0477 4.09466 16.9624 3.60009 15.7679C3.10552 14.5733 2.85117 13.2931 2.85156 12.0003C2.85117 10.7074 3.10552 9.42716 3.60009 8.23265C4.09466 7.03814 4.81975 5.95279 5.73392 5.03861C6.6481 4.12443 7.73345 3.39935 8.92796 2.90478C10.1225 2.41021 11.4027 2.15586 12.6956 2.15625C15.3536 2.15625 17.5746 3.13425 19.2786 4.72225L16.5036 7.49725V7.49025C15.4706 6.50625 14.1596 6.00125 12.6956 6.00125C9.44756 6.00125 6.80756 8.74525 6.80756 11.9943C6.80756 15.2423 9.44756 17.9923 12.6956 17.9923C15.6426 17.9923 17.6486 16.3073 18.0606 13.9933H12.6956V10.1543H21.9556H21.9546Z" fill="white"/>
</svg>
