<svg xmlns="http://www.w3.org/2000/svg" width="159" height="170" viewBox="0 0 159 170" fill="none">
  <path d="M94.2448 80.8331C95.2493 80.8331 96.2127 80.4349 96.923 79.726C97.6333 79.0171 98.0324 78.0556 98.0324 77.0531C98.0324 73.3154 98.9723 67.0425 105.255 67.0425C111.537 67.0425 112.48 73.3145 112.48 77.0531C112.48 78.0556 112.879 79.0171 113.589 79.726C114.299 80.4349 115.263 80.8331 116.267 80.8331H134.473C135.478 80.8331 136.441 80.4349 137.152 79.726C137.862 79.0171 138.261 78.0556 138.261 77.0531V22.7683C138.259 20.6969 137.434 18.7109 135.966 17.2462C134.499 15.7815 132.509 14.9579 130.433 14.9562H119.83C118.684 6.30194 113.218 0.890625 105.254 0.890625C97.2892 0.890625 91.8256 6.30194 90.6803 14.9562H21.6446C19.5692 14.958 17.5792 15.7816 16.1116 17.2463C14.6441 18.711 13.8188 20.697 13.817 22.7683V91.7048C5.30707 92.927 0 98.352 0 106.213C0 114.075 5.30707 119.497 13.817 120.719V131.34C13.8188 133.411 14.6441 135.397 16.1116 136.862C17.5792 138.326 19.5692 139.15 21.6446 139.152H71.9947C74.0702 139.15 76.0602 138.326 77.5277 136.862C78.9953 135.397 79.8206 133.411 79.8224 131.34V80.8331H94.2448ZM91.4535 22.5141C91.7289 22.514 92.0036 22.4847 92.2728 22.4267C92.4894 22.4074 92.7851 22.3883 93.0839 22.3693C94.4373 22.2789 98.0318 22.0439 98.0318 18.4563C98.0318 14.7182 98.9717 8.44844 105.254 8.44844C111.537 8.44844 112.479 14.7182 112.479 18.4563C112.479 22.0403 116.073 22.2789 117.427 22.3693C117.723 22.3883 118.016 22.4074 118.232 22.4239C118.503 22.4845 118.78 22.5147 119.057 22.5141H130.43C130.464 22.5138 130.497 22.5201 130.528 22.5328C130.559 22.5455 130.587 22.5642 130.611 22.5879C130.635 22.6115 130.653 22.6397 130.666 22.6706C130.679 22.7016 130.685 22.7348 130.685 22.7683V73.2753H119.79C118.565 64.7823 113.13 59.4858 105.253 59.4858C97.3756 59.4858 91.9423 64.7823 90.7176 73.2753H79.8224V57.5826C79.8232 56.5951 79.4366 55.6465 78.7453 54.94C78.054 54.2335 77.113 53.8252 76.1237 53.8026C71.655 53.6987 66.3286 52.367 66.3286 46.6085C66.3286 40.85 71.655 39.5183 76.1237 39.4144C77.1129 39.3917 78.0539 38.9834 78.7452 38.2769C79.4365 37.5704 79.8231 36.6219 79.8224 35.6344V22.5141H91.4535ZM72.2495 131.34C72.2492 131.408 72.2223 131.472 72.1746 131.52C72.1269 131.567 72.0622 131.594 71.9947 131.595H21.6446C21.5771 131.594 21.5125 131.567 21.4648 131.52C21.4171 131.472 21.3902 131.408 21.3899 131.34V117.2C21.3899 116.198 20.9908 115.236 20.2805 114.527C19.5702 113.818 18.6068 113.42 17.6023 113.42C13.8569 113.42 7.57175 112.482 7.57175 106.212C7.57175 99.9421 13.8563 99.0016 17.6023 99.0016C18.0997 99.0016 18.5922 98.9038 19.0518 98.7139C19.5113 98.5239 19.9288 98.2455 20.2805 97.8945C20.6322 97.5435 20.9112 97.1267 21.1016 96.6681C21.2919 96.2095 21.3899 95.718 21.3899 95.2216V80.8295H32.2835C33.5081 89.3228 38.944 94.6165 46.8209 94.6165C54.6979 94.6165 60.1313 89.3228 61.3559 80.8295H72.2495V131.34Z" fill="#E8CE47"/>
  <path d="M158.945 146.206C158.942 145.195 158.538 144.227 157.822 143.513C157.106 142.799 156.136 142.399 155.125 142.4H155.108C152.29 142.503 149.504 141.785 147.086 140.334C146.188 139.68 145.469 138.812 144.995 137.808C144.52 136.804 144.305 135.697 144.369 134.588V134.586C144.336 127.747 151.024 126.692 155.014 126.672C155.515 126.67 156.011 126.569 156.473 126.375C156.936 126.182 157.355 125.899 157.708 125.543C158.061 125.187 158.34 124.765 158.53 124.301C158.719 123.837 158.816 123.34 158.813 122.838L158.747 106.072C158.743 105.061 158.339 104.093 157.623 103.38C156.907 102.666 155.938 102.266 154.927 102.266H154.913L140.105 102.324C139.731 99.3586 138.646 96.5279 136.942 94.0734C135.635 92.2695 133.904 90.8146 131.903 89.8367C129.902 88.8588 127.691 88.3878 125.466 88.4653H125.381C123.138 88.395 120.912 88.8815 118.903 89.8814C116.893 90.8812 115.163 92.3632 113.866 94.1951C112.186 96.6679 111.128 99.5097 110.782 102.479L95.9823 102.536C95.4801 102.537 94.9831 102.637 94.5196 102.831C94.0562 103.024 93.6355 103.307 93.2817 103.664C92.9279 104.02 92.648 104.443 92.4578 104.908C92.2677 105.373 92.1712 105.871 92.1739 106.373L92.4254 161.251C92.4349 163.338 93.2705 165.337 94.7496 166.81C96.2287 168.283 98.2307 169.109 100.318 169.109H100.356L151.144 168.874C153.236 168.863 155.239 168.021 156.712 166.534C158.185 165.047 159.008 163.036 159 160.943L158.945 146.206Z" fill="#E8CE47"/>
</svg>