<svg width="49" height="44" viewBox="0 0 49 44" fill="none" xmlns="http://www.w3.org/2000/svg">
<rect x="0.816406" y="0.382812" width="48" height="43" rx="10" fill="url(#paint0_linear_4376_19722)"/>
<path d="M30.8298 10.5682V8.38009C30.8298 7.80501 30.3992 7.32812 29.8799 7.32812C29.3607 7.32812 28.9301 7.80501 28.9301 8.38009V10.484H20.6985V8.38009C20.6985 7.80501 20.2679 7.32812 19.7487 7.32812C19.2295 7.32812 18.7989 7.80501 18.7989 8.38009V10.5682C15.3796 10.9188 13.7206 13.177 13.4673 16.5293C13.442 16.936 13.7459 17.2727 14.1005 17.2727H35.5281C35.8954 17.2727 36.1993 16.922 36.1613 16.5293C35.9081 13.177 34.2491 10.9188 30.8298 10.5682Z" fill="#2F2F2F"/>
<path d="M34.9479 19.3828H14.6854C13.9888 19.3828 13.4189 20.0139 13.4189 20.7854V29.4255C13.4189 33.6333 15.3186 36.4386 19.751 36.4386H29.8823C34.3147 36.4386 36.2143 33.6333 36.2143 29.4255V20.7854C36.2143 20.0139 35.6445 19.3828 34.9479 19.3828ZM21.2834 31.1226C21.22 31.1788 21.1567 31.2489 21.0934 31.291C21.0174 31.3471 20.9414 31.3891 20.8654 31.4172C20.7895 31.4593 20.7135 31.4873 20.6375 31.5014C20.5488 31.5154 20.4729 31.5294 20.3842 31.5294C20.2196 31.5294 20.0549 31.4873 19.903 31.4172C19.7383 31.3471 19.6117 31.2489 19.4851 31.1226C19.2571 30.8562 19.1178 30.4915 19.1178 30.1268C19.1178 29.7621 19.2571 29.3974 19.4851 29.1309C19.6117 29.0047 19.7383 28.9065 19.903 28.8364C20.1309 28.7242 20.3842 28.6961 20.6375 28.7522C20.7135 28.7663 20.7895 28.7943 20.8654 28.8364C20.9414 28.8644 21.0174 28.9065 21.0934 28.9626C21.1567 29.0187 21.22 29.0748 21.2834 29.1309C21.5113 29.3974 21.6506 29.7621 21.6506 30.1268C21.6506 30.4915 21.5113 30.8562 21.2834 31.1226ZM21.2834 26.2135C21.0427 26.466 20.7135 26.6203 20.3842 26.6203C20.0549 26.6203 19.7257 26.466 19.4851 26.2135C19.2571 25.947 19.1178 25.5823 19.1178 25.2176C19.1178 24.853 19.2571 24.4883 19.4851 24.2218C19.8396 23.829 20.3969 23.7028 20.8654 23.9272C21.0301 23.9974 21.1694 24.0955 21.2834 24.2218C21.5113 24.4883 21.6506 24.853 21.6506 25.2176C21.6506 25.5823 21.5113 25.947 21.2834 26.2135ZM25.7158 31.1226C25.4752 31.3751 25.1459 31.5294 24.8166 31.5294C24.4874 31.5294 24.1581 31.3751 23.9175 31.1226C23.6895 30.8562 23.5502 30.4915 23.5502 30.1268C23.5502 29.7621 23.6895 29.3974 23.9175 29.1309C24.3861 28.612 25.2472 28.612 25.7158 29.1309C25.9438 29.3974 26.0831 29.7621 26.0831 30.1268C26.0831 30.4915 25.9438 30.8562 25.7158 31.1226ZM25.7158 26.2135C25.6525 26.2696 25.5892 26.3257 25.5258 26.3818C25.4499 26.4379 25.3739 26.48 25.2979 26.508C25.2219 26.5501 25.1459 26.5782 25.0699 26.5922C24.9813 26.6062 24.9053 26.6203 24.8166 26.6203C24.4874 26.6203 24.1581 26.466 23.9175 26.2135C23.6895 25.947 23.5502 25.5823 23.5502 25.2176C23.5502 24.853 23.6895 24.4883 23.9175 24.2218C24.0315 24.0955 24.1708 23.9974 24.3354 23.9272C24.804 23.7028 25.3612 23.829 25.7158 24.2218C25.9438 24.4883 26.0831 24.853 26.0831 25.2176C26.0831 25.5823 25.9438 25.947 25.7158 26.2135ZM30.1482 31.1226C29.9076 31.3751 29.5784 31.5294 29.2491 31.5294C28.9198 31.5294 28.5905 31.3751 28.3499 31.1226C28.122 30.8562 27.9827 30.4915 27.9827 30.1268C27.9827 29.7621 28.122 29.3974 28.3499 29.1309C28.8185 28.612 29.6797 28.612 30.1482 29.1309C30.3762 29.3974 30.5155 29.7621 30.5155 30.1268C30.5155 30.4915 30.3762 30.8562 30.1482 31.1226ZM30.1482 26.2135C30.0849 26.2696 30.0216 26.3257 29.9583 26.3818C29.8823 26.4379 29.8063 26.48 29.7303 26.508C29.6543 26.5501 29.5784 26.5782 29.5024 26.5922C29.4137 26.6062 29.3251 26.6203 29.2491 26.6203C28.9198 26.6203 28.5905 26.466 28.3499 26.2135C28.122 25.947 27.9827 25.5823 27.9827 25.2176C27.9827 24.853 28.122 24.4883 28.3499 24.2218C28.4766 24.0955 28.6032 23.9974 28.7678 23.9272C28.9958 23.815 29.2491 23.787 29.5024 23.8431C29.5784 23.8571 29.6543 23.8852 29.7303 23.9272C29.8063 23.9553 29.8823 23.9974 29.9583 24.0535L30.1482 24.2218C30.3762 24.4883 30.5155 24.853 30.5155 25.2176C30.5155 25.5823 30.3762 25.947 30.1482 26.2135Z" fill="#2F2F2F"/>
<defs>
<linearGradient id="paint0_linear_4376_19722" x1="19.6518" y1="-4.652" x2="44.3293" y2="41.69" gradientUnits="userSpaceOnUse">
<stop stop-color="#DEBF1A"/>
<stop offset="0.408854" stop-color="#F2E28A"/>
<stop offset="0.692708" stop-color="#CDB016"/>
<stop offset="1" stop-color="#EDDA75"/>
</linearGradient>
</defs>
</svg>
