<svg xmlns="http://www.w3.org/2000/svg" width="31" height="31" viewBox="0 0 31 31" fill="none">
<path d="M3.62554 28.3295H5.85176L23.9164 10.2649L21.6901 8.03872L3.62554 26.1033V28.3295ZM0.978516 30.9766V25.0038L24.2558 1.73676C24.5226 1.49437 24.8173 1.30708 25.1397 1.17487C25.4621 1.04267 25.8003 0.976562 26.1541 0.976562C26.5079 0.976562 26.8507 1.03936 27.1824 1.16495C27.514 1.29051 27.8077 1.49015 28.0633 1.76389L30.2183 3.946C30.4921 4.20165 30.6872 4.49582 30.8037 4.82853C30.9202 5.16121 30.9785 5.49389 30.9785 5.82656C30.9785 6.18142 30.9179 6.52006 30.7967 6.84251C30.6755 7.16498 30.4827 7.45964 30.2183 7.7265L6.95131 30.9766H0.978516ZM22.7837 9.17135L21.6901 8.03872L23.9164 10.2649L22.7837 9.17135Z" fill="white"/>
</svg>