<?xml version="1.0" encoding="UTF-8"?>
<svg version="1.1" xmlns="http://www.w3.org/2000/svg" width="512" height="512">
<path d="M0 0 C2.27096558 1.69554138 2.27096558 1.69554138 4.62060547 3.89624023 C5.49489197 4.71244843 6.36917847 5.52865662 7.2699585 6.36959839 C11.83776495 10.77069099 16.34784038 15.22491826 20.8203125 19.72265625 C21.81470996 20.71892513 22.80933313 21.71496877 23.8041687 22.71080017 C26.38733113 25.29773085 28.96747319 27.88765258 31.54693604 30.47827148 C34.193488 33.13516194 36.84297092 35.7891263 39.4921875 38.44335938 C44.66428467 43.6260931 49.83318542 48.81199932 55 54 C58.76809948 52.43507719 61.14055675 50.09509513 63.99633789 47.21484375 C64.47978165 46.73008575 64.9632254 46.24532776 65.46131897 45.74588013 C67.05308523 44.14763994 68.63775515 42.54254569 70.22265625 40.9375 C71.33025393 39.82362917 72.43837016 38.71027376 73.54698181 37.59741211 C76.46155894 34.66954491 79.37051503 31.7361616 82.27789307 28.80114746 C86.93368405 24.10220455 91.59621763 19.40997591 96.26202202 14.72097778 C97.89023113 13.08255017 99.51498156 11.44074949 101.13941956 9.79858398 C102.13718243 8.79399269 103.13505553 7.78951087 104.13305664 6.78515625 C105.00257462 5.90738525 105.87209259 5.02961426 106.76795959 4.12524414 C110.94687602 0.14627601 113.58231722 -0.55598185 119.1640625 -0.43261719 C124.52901929 0.38579736 128.87457338 3.16197321 133.5 5.875 C134.54591309 6.46563232 135.59182617 7.05626465 136.66943359 7.66479492 C138.78931479 8.86327715 140.90447527 10.07015074 143.01464844 11.28564453 C146.45320817 13.26025742 149.92063325 15.17733815 153.39624023 17.08569336 C155.57645216 18.28577715 157.74821638 19.49987515 159.91796875 20.71875 C162.63623592 22.24506704 165.36784427 23.74190331 168.11328125 25.21875 C169.38811475 25.91649511 170.66285921 26.61440292 171.9375 27.3125 C173.03964844 27.90675781 174.14179688 28.50101563 175.27734375 29.11328125 C178.24082885 31.16688714 179.49325465 32.75155917 181 36 C181.65464271 40.50066863 181.33335762 42.43745901 179 46.375 C175.44572186 49.48499337 172.60485079 50.12681723 168 50 C165.3560988 49.08995077 163.3338607 48.21575267 160.9375 46.875 C160.27411621 46.5246167 159.61073242 46.1742334 158.92724609 45.81323242 C156.60153707 44.57038068 154.29982303 43.2901226 152 42 C151.06978027 41.47905762 150.13956055 40.95811523 149.18115234 40.42138672 C145.19421786 38.18146987 141.21071614 35.93651289 137.24584961 33.65771484 C136.32167236 33.12742676 135.39749512 32.59713867 134.4453125 32.05078125 C133.63594238 31.58325439 132.82657227 31.11572754 131.99267578 30.6340332 C127.72465754 28.30364928 123.3494063 26.17470315 119 24 C104.48 38.52 89.96 53.04 75 68 C77.98302901 70.23727176 80.586161 71.95176003 83.83203125 73.6796875 C84.78303711 74.18935059 85.73404297 74.69901367 86.71386719 75.22412109 C87.73641602 75.76891113 88.75896484 76.31370117 89.8125 76.875 C98.01613642 81.27818637 106.16428531 85.75897626 114.25 90.375 C122.86532187 95.28402598 131.56279442 100.02394688 140.3125 104.6875 C150.06679021 109.88692916 159.76903123 115.16461568 169.41650391 120.55957031 C174.97712243 123.65989627 180.55139665 126.73559987 186.125 129.8125 C186.74493835 130.15488708 187.36487671 130.49727417 188.00360107 130.85003662 C197.65606912 136.179314 207.33784124 141.45196339 217.05224609 146.66772461 C223.10742836 149.93040786 229.03116044 153.31689349 234.828125 157.0234375 C237.52422543 158.23571287 238.26788282 158.03606226 241 157 C243.1674392 155.26706034 243.1674392 155.26706034 245.30957031 153.03100586 C246.15013977 152.19020981 246.99070923 151.34941376 247.85675049 150.48313904 C248.75480408 149.56960159 249.65285767 148.65606415 250.578125 147.71484375 C251.96798615 146.31861534 251.96798615 146.31861534 253.38592529 144.8941803 C255.84539987 142.42326879 258.29573101 139.94348031 260.7442627 137.46173096 C263.24592051 134.92934747 265.75612622 132.4054687 268.265625 129.88085938 C273.18548013 124.92886047 278.09572753 119.96743051 283 115 C280.4794179 112.36958254 278.06569621 110.8058731 274.828125 109.1015625 C273.25828857 108.26806274 273.25828857 108.26806274 271.65673828 107.41772461 C270.53251465 106.82612549 269.40829102 106.23452637 268.25 105.625 C265.89756069 104.37009133 263.54588667 103.11385674 261.1953125 101.85546875 C260.59818451 101.53624954 260.00105652 101.21703033 259.38583374 100.88813782 C253.27301626 97.61773771 247.18526884 94.3044248 241.125 90.9375 C239.68302246 90.15270264 239.68302246 90.15270264 238.21191406 89.35205078 C229.65822736 84.56859688 229.65822736 84.56859688 227 80 C226.22964045 76.89731051 226.35450936 74.12553362 227 71 C229.47235733 67.40384388 231.02368563 66.2464255 235.25 65.1796875 C239.61793619 64.97039056 242.22901395 66.06516406 245.9375 68.125 C246.60861816 68.47900879 247.27973633 68.83301758 247.97119141 69.19775391 C250.32453501 70.44660611 252.66158506 71.72342792 255 73 C256.91475261 74.02718325 258.83015085 75.05316365 260.74609375 76.078125 C272.24341347 82.24971835 283.69126973 88.51723382 295.06494141 94.9140625 C296.33346356 95.62594574 297.60391332 96.33440738 298.87646484 97.0390625 C300.56815785 97.97597179 302.25305995 98.92511266 303.9375 99.875 C304.85402344 100.38804688 305.77054687 100.90109375 306.71484375 101.4296875 C309.77633842 103.53348384 311.59585704 105.44199961 312.5390625 109.078125 C312.66904617 112.3631668 312.65077483 115.01374716 310.80088806 117.81726074 C310.259366 118.40285767 309.71784393 118.98845459 309.15991211 119.59179688 C308.52221893 120.28362061 307.88452576 120.97544434 307.22750854 121.68823242 C302.80979243 126.27305564 298.32990065 130.79120426 293.81640625 135.28125 C292.75001915 136.34576772 291.68385581 137.41050962 290.61790466 138.47546387 C287.83694593 141.25263833 285.05299556 144.02679425 282.26837158 146.80029297 C279.4173052 149.64105638 276.56913331 152.48471872 273.72070312 155.328125 C268.14993482 160.8882283 262.57599681 166.44514018 257 172 C261.82874037 177.86605938 267.10339366 183.22279648 272.49321938 188.56838417 C274.080039 190.1423011 275.6635912 191.71944292 277.24638367 193.29740906 C280.59893389 196.63861396 283.95543557 199.97583158 287.3125 203.3125 C291.2221572 207.19853894 295.13016871 211.08620426 299.03401756 214.97807884 C300.59473077 216.53230784 302.158421 218.08349898 303.72224426 219.63459778 C304.67345598 220.58217906 305.62452875 221.52989985 306.57543945 222.4777832 C307.40783646 223.30494339 308.24023346 224.13210358 309.09785461 224.98432922 C311.76095991 227.80637614 312.19136492 229.51905936 312.3125 233.3125 C312.36857422 234.45138672 312.36857422 234.45138672 312.42578125 235.61328125 C311.79053597 239.17415158 310.62084778 240.45238179 308 243 C304.50863693 245.2191096 300.86143589 247.10287726 297.1875 249 C295.02240702 250.14388501 292.85837176 251.28977392 290.6953125 252.4375 C289.58833008 253.02273437 288.48134766 253.60796875 287.34082031 254.2109375 C282.03208741 257.05384854 276.79600777 260.0214621 271.5625 263 C269.73047886 264.04168445 267.89844808 265.08335193 266.06640625 266.125 C265.30271729 266.56070312 264.53902832 266.99640625 263.75219727 267.4453125 C261.28321073 268.84001722 258.80719654 270.22074943 256.32798767 271.59716797 C255.51750945 272.04720184 254.70703123 272.49723572 253.87199306 272.96090698 C253.25423535 273.30380768 252.63647764 273.64670837 252 274 C251.99635437 275.31687302 251.99270874 276.63374603 251.98895264 277.99052429 C251.9520273 290.39482578 251.89428134 302.79887845 251.81609726 315.20299053 C251.77657155 321.58024317 251.74440791 327.95735666 251.72900391 334.3347168 C251.71387112 340.48810236 251.67948508 346.64110552 251.63169098 352.79432106 C251.6168424 355.14304088 251.608957 357.49181529 251.60811615 359.84058189 C251.60575529 363.12810516 251.57874512 366.41456405 251.54589844 369.7019043 C251.5509288 370.6751062 251.55595917 371.64830811 251.56114197 372.65100098 C251.49482877 376.93486255 251.40849135 379.34185618 249.10914612 383.04646301 C246.89202842 385.10000563 244.84771035 386.48193621 242.16796875 387.875 C241.21696289 388.37821777 240.26595703 388.88143555 239.28613281 389.39990234 C238.26358398 389.92793457 237.24103516 390.4559668 236.1875 391 C233.99766461 392.15690039 231.80888669 393.3158043 229.62109375 394.4765625 C227.95602783 395.35683105 227.95602783 395.35683105 226.25732422 396.25488281 C221.37047435 398.87302124 216.56102193 401.62075044 211.75 404.375 C202.65039006 409.56262073 193.44675276 414.53928899 184.1998291 419.4574585 C176.23592665 423.69590831 168.33448633 428.02629895 160.5 432.5 C151.48415511 437.64828836 142.36427194 442.58330129 133.19873047 447.45800781 C125.23518706 451.69628397 117.33434765 456.02687357 109.5 460.5 C100.83786264 465.44134341 92.10255928 470.22887399 83.3125 474.9375 C82.16652344 475.55238281 81.02054687 476.16726563 79.83984375 476.80078125 C77.63669865 477.97681908 75.42927276 479.14487865 73.21728516 480.30419922 C71.04754092 481.44785102 68.89099533 482.61685367 66.74755859 483.80908203 C65.71066895 484.36837402 64.6737793 484.92766602 63.60546875 485.50390625 C62.23684692 486.26102905 62.23684692 486.26102905 60.84057617 487.03344727 C56.09704499 488.64751172 52.42659855 487.61699002 47.9206543 485.66821289 C46.89883057 485.1086792 45.87700684 484.54914551 44.82421875 483.97265625 C43.10247437 483.03981812 43.10247437 483.03981812 41.34594727 482.08813477 C40.12631028 481.41320241 38.90683132 480.73798441 37.6875 480.0625 C36.4170664 479.36882842 35.14614686 478.67604612 33.87475586 477.98413086 C30.24221325 476.00306871 26.62035694 474.00324313 23 472 C22.14374023 471.52820313 21.28748047 471.05640625 20.40527344 470.5703125 C16.88219115 468.62867522 13.36610578 466.67498043 9.85546875 464.7109375 C3.54142056 461.18006422 -2.79162539 457.68354325 -9.125 454.1875 C-9.74693237 453.84411591 -10.36886475 453.50073181 -11.00964355 453.14694214 C-20.54261392 447.88552451 -30.10482839 442.68036103 -39.68530273 437.50585938 C-46.82055443 433.64864281 -53.919405 429.73066938 -61.00390625 425.78125 C-67.36883607 422.23414833 -73.74631261 418.70977815 -80.125 415.1875 C-81.05685623 414.67269577 -81.05685623 414.67269577 -82.00753784 414.14749146 C-89.5594309 409.9768567 -97.12802524 405.84045819 -104.7253418 401.75292969 C-112.80548055 397.40404235 -120.86585788 393.02686651 -128.8125 388.4375 C-129.50633789 388.04385254 -130.20017578 387.65020508 -130.91503906 387.24462891 C-134.40456641 385.19944235 -136.87210114 383.44622047 -139 380 C-139.38476086 377.8523674 -139.38476086 377.8523674 -139.39872742 375.49481201 C-139.41126556 374.59741302 -139.42380371 373.70001404 -139.4367218 372.77542114 C-139.43528671 371.79862396 -139.43385162 370.82182678 -139.43237305 369.81542969 C-139.44766052 368.26373581 -139.44766052 368.26373581 -139.46325684 366.68069458 C-139.49345388 363.26103344 -139.50266323 359.84165211 -139.51171875 356.421875 C-139.52856042 354.05103621 -139.54670996 351.68020639 -139.56611633 349.30938721 C-139.61367783 343.06887613 -139.64344757 336.82840135 -139.66955566 330.58776855 C-139.69933005 324.21989774 -139.74587112 317.85215212 -139.79101562 311.484375 C-139.8771188 298.98964874 -139.944433 286.49489676 -140 274 C-142.83839554 272.42193755 -145.67699371 270.84423991 -148.515625 269.26660156 C-149.3092041 268.82538971 -150.1027832 268.38417786 -150.92041016 267.92959595 C-155.85720261 265.1861264 -160.79980942 262.45359111 -165.75 259.734375 C-166.96745572 259.06511835 -168.1849046 258.39584929 -169.40234375 257.7265625 C-171.21580624 256.72987287 -173.02958831 255.73378401 -174.84423828 254.73925781 C-178.90695305 252.51190639 -182.95889388 250.26642759 -187 248 C-188.48113281 247.16952148 -188.48113281 247.16952148 -189.9921875 246.32226562 C-190.88164062 245.80857422 -191.77109375 245.29488281 -192.6875 244.765625 C-193.45449219 244.32508789 -194.22148437 243.88455078 -195.01171875 243.43066406 C-197.8245779 241.40667651 -199.66251329 239.30103573 -200.5390625 235.921875 C-200.66904617 232.6368332 -200.65077483 229.98625284 -198.80088806 227.18273926 C-197.98860497 226.30434387 -197.98860497 226.30434387 -197.15991211 225.40820312 C-196.52221893 224.71637939 -195.88452576 224.02455566 -195.22750854 223.31176758 C-190.80979243 218.72694436 -186.32990065 214.20879574 -181.81640625 209.71875 C-180.75001915 208.65423228 -179.68385581 207.58949038 -178.61790466 206.52453613 C-175.83694593 203.74736167 -173.05299556 200.97320575 -170.26837158 198.19970703 C-167.4173052 195.35894362 -164.56913331 192.51528128 -161.72070312 189.671875 C-156.14993482 184.1117717 -150.57599681 178.55485982 -145 173 C-149.82874037 167.13394062 -155.10339366 161.77720352 -160.49321938 156.43161583 C-162.080039 154.8576989 -163.6635912 153.28055708 -165.24638367 151.70259094 C-168.59893389 148.36138604 -171.95543557 145.02416842 -175.3125 141.6875 C-179.2221572 137.80146106 -183.13016871 133.91379574 -187.03401756 130.02192116 C-188.59473077 128.46769216 -190.158421 126.91650102 -191.72224426 125.36540222 C-192.67345598 124.41782094 -193.62452875 123.47010015 -194.57543945 122.5222168 C-195.40783646 121.69505661 -196.24023346 120.86789642 -197.09785461 120.01567078 C-199.76095991 117.19362386 -200.19136492 115.48094064 -200.3125 111.6875 C-200.34988281 110.92824219 -200.38726562 110.16898437 -200.42578125 109.38671875 C-199.80707837 105.91857693 -198.49852403 104.4868122 -196 102 C-193.33470378 100.28036958 -190.53239813 98.89688384 -187.6875 97.5 C-185.9592547 96.62179338 -184.23276354 95.74012834 -182.5078125 94.85546875 C-181.15091309 94.1601001 -181.15091309 94.1601001 -179.76660156 93.45068359 C-175.13255621 91.02079501 -170.60220809 88.41316459 -166.0625 85.8125 C-157.45005593 80.89736524 -148.75490695 76.15526043 -140 71.5 C-131.43477666 66.94485255 -122.92496162 62.31087822 -114.5 57.5 C-105.48415511 52.35171164 -96.36427194 47.41669871 -87.19873047 42.54199219 C-78.29959692 37.80578575 -69.49616296 32.92463455 -60.74243164 27.92504883 C-51.85460851 22.87030762 -42.8464086 18.04781119 -33.80908203 13.26733398 C-28.30622691 10.34742812 -22.87930583 7.3854029 -17.58129883 4.10839844 C-11.75580572 0.53758538 -6.80414627 -2.15161276 0 0 Z M-15.25 27 C-16.89818512 27.92102469 -18.54664194 28.8415633 -20.1953125 29.76171875 C-21.11473633 30.27524902 -22.03416016 30.7887793 -22.98144531 31.31787109 C-28.68766752 34.49773773 -34.40600277 37.65568921 -40.125 40.8125 C-41.05672028 41.32703232 -41.05672028 41.32703232 -42.00726318 41.85195923 C-50.4399698 46.50741109 -58.8954913 51.11768396 -67.375 55.6875 C-75.0535645 59.82606238 -82.67150959 64.0560542 -90.25 68.375 C-98.86573889 73.28333316 -107.56288059 78.02373179 -116.3125 82.6875 C-134.71091731 92.49661543 -152.86100734 102.72010552 -171 113 C-171 116.93532776 -169.85538473 117.53881751 -167.13208008 120.30371094 C-166.2873262 121.16760437 -165.44257233 122.0314978 -164.57221985 122.92156982 C-163.18488899 124.31390839 -163.18488899 124.31390839 -161.76953125 125.734375 C-160.81721321 126.69633031 -159.86512375 127.65851196 -158.91325378 128.62091064 C-156.91519776 130.63693975 -154.91102544 132.64665876 -152.90307617 134.65283203 C-150.32964587 137.2259573 -147.77747293 139.81909967 -145.23016834 142.41805649 C-143.26984673 144.41171501 -141.29605947 146.39160717 -139.31821251 148.36786652 C-137.91045805 149.78088861 -136.51638457 151.20749784 -135.12251282 152.63421631 C-134.26199814 153.4855011 -133.40148346 154.33678589 -132.51489258 155.21386719 C-131.76210526 155.97092957 -131.00931793 156.72799194 -130.23371887 157.50799561 C-128.09013805 159.26536374 -128.09013805 159.26536374 -125.43070984 158.84429932 C-121.88950915 157.61427454 -118.73356856 155.80410055 -115.5 153.9375 C-113.88847897 153.02523189 -112.27646394 152.11383612 -110.6640625 151.203125 C-109.32263184 150.44225586 -109.32263184 150.44225586 -107.95410156 149.66601562 C-102.2827294 146.46754921 -96.57695867 143.33098671 -90.875 140.1875 C-89.62068555 139.49520092 -88.3663724 138.80289948 -87.11206055 138.1105957 C-78.2038475 133.19722968 -69.26590736 128.34048967 -60.31469727 123.50585938 C-53.17944557 119.64864281 -46.080595 115.73066938 -38.99609375 111.78125 C-32.63116442 108.23414861 -26.25372812 104.70970363 -19.875 101.1875 C-18.94214676 100.67219727 -18.94214676 100.67219727 -17.990448 100.14648438 C-9.47737537 95.44558703 -0.93793249 90.7971307 7.625 86.1875 C17.87425978 80.66695761 27.96723186 74.90371616 38 69 C33.25272015 63.29306727 28.17180505 58.02600679 22.91796875 52.78515625 C21.63579216 51.50154457 21.63579216 51.50154457 20.32771301 50.19200134 C18.53293621 48.39654746 16.73690964 46.60234209 14.93969727 44.80932617 C12.17543024 42.0504538 9.41658841 39.28623611 6.65820312 36.52148438 C4.91177924 34.77572058 3.16504556 33.03026663 1.41796875 31.28515625 C0.58887497 30.45403824 -0.24021881 29.62292023 -1.09443665 28.76661682 C-1.85580429 28.00840134 -2.61717194 27.25018585 -3.40161133 26.46899414 C-4.0741243 25.79727676 -4.74663727 25.12555939 -5.43952942 24.43348694 C-8.67153789 21.46448388 -11.98070651 25.1613345 -15.25 27 Z M47.6875 87 C46.04852061 87.92118438 44.40917125 88.84171071 42.76953125 89.76171875 C41.39982178 90.53201416 41.39982178 90.53201416 40.00244141 91.31787109 C34.30755002 94.50845506 28.59070553 97.65941412 22.875 100.8125 C21.94563629 101.3255368 21.94563629 101.3255368 20.99749756 101.84893799 C11.46216166 107.11176158 1.89759234 112.31833151 -7.68530273 117.49414062 C-14.82055443 121.35135719 -21.919405 125.26933062 -29.00390625 129.21875 C-45.43975724 138.37825939 -61.92534206 147.44747644 -78.48095703 156.38867188 C-88.01604735 161.54031665 -97.51256228 166.76121518 -107 172 C-102.85922673 175.60885576 -98.48423965 177.97332625 -93.625 180.4375 C-86.34268772 184.19763894 -79.17757446 188.12024086 -72.0625 192.1875 C-63.44955182 197.10177501 -54.75493002 201.8447273 -46 206.5 C-36.4922163 211.55641884 -27.07434698 216.74587219 -17.72265625 222.0859375 C-9.63062557 226.68750834 -1.43182777 231.07930368 6.78616333 235.44995117 C15.06693529 239.8569661 23.28195506 244.36486332 31.4375 249 C32.38036865 249.53310791 33.3232373 250.06621582 34.29467773 250.61547852 C38.25100833 252.85505118 42.19517816 255.10790063 46.1015625 257.43359375 C47.24367187 258.09488281 48.38578125 258.75617188 49.5625 259.4375 C50.49191406 259.99308594 51.42132813 260.54867187 52.37890625 261.12109375 C56.0744273 262.36027741 57.45642011 261.63097153 61 260 C64.42542121 258.18884452 67.77501695 256.2589874 71.125 254.3125 C80.00377703 249.21924806 88.96023001 244.30116639 98 239.5 C106.56579846 234.94597037 115.07507357 230.31085813 123.5 225.5 C132.51584489 220.35171164 141.63572806 215.41669871 150.80126953 210.54199219 C159.69400003 205.80919352 168.49373194 200.93590241 177.23779297 195.93383789 C182.61008019 192.8747888 188.01839716 189.89821374 193.4765625 186.99609375 C194.11265442 186.65764435 194.74874634 186.31919495 195.40411377 185.9704895 C198.52350226 184.31302648 201.64678073 182.66342437 204.77539062 181.0234375 C205.90396484 180.42660156 207.03253906 179.82976562 208.1953125 179.21484375 C209.69602295 178.42775024 209.69602295 178.42775024 211.22705078 177.62475586 C214.05277743 175.96907609 216.49743833 174.10662291 219 172 C218.27224365 171.61368408 217.5444873 171.22736816 216.79467773 170.8293457 C204.28872533 164.18233828 191.79926082 157.52453082 179.5 150.5 C171.07507403 145.68904298 162.56510871 141.05536549 154 136.5 C144.49234287 131.44333877 135.07435366 126.25413162 125.72265625 120.9140625 C118.2169649 116.64591624 110.6225824 112.55420411 103 108.5 C92.2139906 102.76280419 81.53725814 96.85821459 70.92578125 90.8046875 C70.1054541 90.33772461 69.28512695 89.87076172 68.43994141 89.38964844 C66.76854736 88.43771979 65.09903932 87.48247421 63.43115234 86.52441406 C62.62242676 86.06518555 61.81370117 85.60595703 60.98046875 85.1328125 C60.26141357 84.7217627 59.5423584 84.31071289 58.80151367 83.88720703 C54.59651741 81.81633613 51.3555603 84.91339099 47.6875 87 Z M-132.26611328 190.00732422 C-133.58725632 191.31901077 -133.58725632 191.31901077 -134.93508911 192.65719604 C-135.89708562 193.62277217 -136.85882052 194.58860898 -137.8203125 195.5546875 C-138.80365197 196.53668055 -139.78728823 197.51837649 -140.77120972 198.49978638 C-142.83398131 200.55960558 -144.8930822 202.62300892 -146.94970703 204.68896484 C-149.59060545 207.34125785 -152.24037919 209.98447273 -154.8929615 212.62507439 C-156.92625542 214.65115279 -158.9547757 216.6819565 -160.98186874 218.71423721 C-161.95725406 219.69095988 -162.934136 220.66619027 -163.91250992 221.63991928 C-165.27739503 222.99974445 -166.6352203 224.36664479 -167.99267578 225.73388672 C-168.76829865 226.51110077 -169.54392151 227.28831482 -170.3430481 228.08908081 C-172.21837203 229.8303012 -172.21837203 229.8303012 -172 232 C-171.33282959 232.35602295 -170.66565918 232.7120459 -169.97827148 233.07885742 C-158.1240467 239.41265795 -146.29856644 245.77505591 -134.625 252.4375 C-125.56681702 257.60467557 -116.40553024 262.56128605 -107.19927979 267.45773315 C-98.29328947 272.19757909 -89.48353586 277.08324113 -80.72265625 282.0859375 C-72.63062557 286.68750834 -64.43182777 291.07930368 -56.21383667 295.44995117 C-47.93308001 299.85695796 -39.71770837 304.36428704 -31.5625 309 C-30.62108154 309.53310791 -29.67966309 310.06621582 -28.7097168 310.61547852 C-24.73662646 312.86735906 -20.77178204 315.13055211 -16.828125 317.43359375 C-15.65654937 318.10208743 -14.48470294 318.77010691 -13.3125 319.4375 C-12.35988281 319.99308594 -11.40726563 320.54867187 -10.42578125 321.12109375 C-8.08936839 322.26221839 -8.08936839 322.26221839 -6.11773682 321.30810547 C-3.6276626 319.7700108 -1.76336484 318.0176799 0.30957031 315.94921875 C1.15013977 315.11495361 1.99070923 314.28068848 2.85675049 313.42114258 C3.75480408 312.51904053 4.65285767 311.61693848 5.578125 310.6875 C6.5046991 309.76283936 7.43127319 308.83817871 8.38592529 307.88549805 C10.3425837 305.93178301 12.29559143 303.97450889 14.24609375 302.01464844 C16.75015854 299.49915795 19.26313724 296.99279451 21.7788887 294.48899841 C24.17515944 292.1016736 26.5638015 289.70677812 28.953125 287.3125 C30.31235077 285.95934692 30.31235077 285.95934692 31.69903564 284.57885742 C32.52699646 283.74459229 33.35495728 282.91032715 34.20800781 282.05078125 C34.94206848 281.31512939 35.67612915 280.57947754 36.43243408 279.8215332 C38.21742992 278.14787246 38.21742992 278.14787246 38 276 C33.66761695 273.60244513 29.334183 271.20679897 25 268.8125 C24.34441101 268.45030365 23.68882202 268.0881073 23.0133667 267.7149353 C14.24062896 262.8700917 5.44797624 258.06543229 -3.375 253.3125 C-11.05364061 249.1740861 -18.67155645 244.9440178 -26.25 240.625 C-35.35073275 235.43929648 -44.55319743 230.4607375 -53.8001709 225.5425415 C-61.76407381 221.30409144 -69.66551121 216.97369858 -77.5 212.5 C-87.38115406 206.85764145 -97.37914959 201.45495711 -107.42382812 196.11132812 C-108.53951172 195.51771484 -109.65519531 194.92410156 -110.8046875 194.3125 C-112.39168457 193.46945313 -112.39168457 193.46945313 -114.01074219 192.609375 C-117.47277864 190.74546253 -120.89318908 188.81503962 -124.29736328 186.84765625 C-128.1933636 184.90803579 -129.4968504 187.24373084 -132.26611328 190.00732422 Z M232.3125 188.9296875 C231.45840294 189.3880172 231.45840294 189.3880172 230.58705139 189.85560608 C228.72238875 190.8578427 226.86113465 191.86622913 225 192.875 C223.70641376 193.57256019 222.41271193 194.26990606 221.11889648 194.96704102 C212.99820979 199.34882223 204.90902173 203.78510614 196.85546875 208.2890625 C190.54141894 211.81993669 184.20828226 215.3162869 177.875 218.8125 C177.25140594 219.1568811 176.62781189 219.50126221 175.98532104 219.8560791 C167.55508551 224.51015394 159.10201829 229.1190261 150.625 233.6875 C142.94643907 237.82606046 135.32841 242.05591656 127.75 246.375 C118.45781342 251.67072975 109.06134428 256.75368441 99.62158203 261.77926636 C90.99242468 266.37417492 82.42658494 271.0422536 74 276 C75.48343 279.44677 77.43050188 281.67343301 80.08251953 284.30957031 C80.92324005 285.15013977 81.76396057 285.99070923 82.63015747 286.85675049 C83.99272171 288.20383087 83.99272171 288.20383087 85.3828125 289.578125 C86.31221649 290.5046991 87.24162048 291.43127319 88.19918823 292.38592529 C90.6640385 294.84315789 93.13483666 297.29432361 95.60693359 299.7442627 C98.13090765 302.24773809 100.64919388 304.75692063 103.16796875 307.265625 C108.10643597 312.18267525 113.051212 317.09333788 118 322 C121.79509912 320.76819107 125.18182048 319.49625854 128.6328125 317.48828125 C129.50679688 316.98554688 130.38078125 316.4828125 131.28125 315.96484375 C132.2196875 315.41957031 133.158125 314.87429688 134.125 314.3125 C143.00377703 309.21924806 151.96023001 304.30116639 161 299.5 C169.56579846 294.94597037 178.07507357 290.31085813 186.5 285.5 C195.51584489 280.35171164 204.63572806 275.41669871 213.80126953 270.54199219 C222.69518395 265.80856342 231.4935823 260.93048162 240.2421875 255.93383789 C249.27315946 250.7977888 258.4264567 245.89931417 267.59960938 241.0234375 C273.11330947 238.09082045 278.60420857 235.14493076 284 232 C282.51856023 228.56699701 280.58138096 226.32828517 277.94921875 223.69042969 C277.11495361 222.84986023 276.28068848 222.00929077 275.42114258 221.14324951 C274.51904053 220.24519592 273.61693848 219.34714233 272.6875 218.421875 C271.76283936 217.4953009 270.83817871 216.56872681 269.88549805 215.61407471 C267.93178301 213.6574163 265.97450889 211.70440857 264.01464844 209.75390625 C261.49915795 207.24984146 258.99279451 204.73686276 256.48899841 202.2211113 C254.1016736 199.82484056 251.70677812 197.4361985 249.3125 195.046875 C248.41039795 194.14072449 247.5082959 193.23457397 246.57885742 192.30096436 C245.74459229 191.47300354 244.91032715 190.64504272 244.05078125 189.79199219 C242.94730347 188.69090118 242.94730347 188.69090118 241.8215332 187.56756592 C238.32977787 184.56264861 235.96015668 186.96396846 232.3125 188.9296875 Z M-118 286 C-118 313.72 -118 341.44 -118 370 C-110.08 374.29 -102.16 378.58 -94 383 C-82.75 389.375 -82.75 389.375 -79.58422852 391.17651367 C-72.01759321 395.47085251 -64.36464573 399.59561639 -56.6875 403.6875 C-46.93320979 408.88692916 -37.23096877 414.16461568 -27.58349609 419.55957031 C-22.02287857 422.65989571 -16.44867404 425.73572961 -10.875 428.8125 C-9.94309845 429.32707764 -9.94309845 429.32707764 -8.99237061 429.85205078 C0.56675122 435.12852974 10.15446927 440.34986691 19.76660156 445.52929688 C26.34963849 449.08319091 32.88655307 452.71002941 39.35864258 456.46264648 C42.4775652 458.38490661 42.4775652 458.38490661 46 459 C46.00142502 457.68090637 46.00285004 456.36181274 46.00431824 455.00274658 C46.02097354 442.58339609 46.06370245 430.16437387 46.13209057 417.7451973 C46.16640992 411.36003148 46.19147829 404.97510618 46.19555664 398.58984375 C46.19982889 392.42992562 46.22820312 386.27055054 46.27343178 380.1108017 C46.28644106 377.75846263 46.29070241 375.40605869 46.28615379 373.05368805 C46.28127242 369.76338248 46.30723275 366.47467919 46.34057617 363.18457031 C46.33195053 362.20777313 46.32332489 361.23097595 46.31443787 360.22457886 C46.42697621 353.61840015 46.42697621 353.61840015 49.41230774 350.39666748 C51.87837623 349.06564457 53.23581696 348.4554164 56 348.5 C56.639375 348.4896875 57.27875 348.479375 57.9375 348.46875 C61.23280995 349.31754196 62.6685844 350.48396527 65 353 C65.77020607 356.38264753 65.68995077 359.72759444 65.65942383 363.18457031 C65.66990753 364.2190329 65.68039124 365.25349548 65.69119263 366.31930542 C65.7199983 369.73921499 65.71364428 373.15811557 65.70703125 376.578125 C65.72014286 378.94896721 65.73544542 381.31979824 65.75285339 383.69061279 C65.79277855 389.93121203 65.80289875 396.17151955 65.80688477 402.41223145 C65.81620195 408.78011975 65.85360666 415.14783563 65.88867188 421.515625 C65.95332446 434.01040856 65.98650171 446.50506382 66 459 C70.32971963 457.60502355 74.11207585 455.98657189 78.0859375 453.76171875 C78.65601028 453.44468491 79.22608307 453.12765106 79.81343079 452.80101013 C81.03508346 452.12094749 82.2554762 451.43861738 83.47470093 450.75421143 C86.06170055 449.3020284 88.6547007 447.86072326 91.24754333 446.41900635 C92.57235045 445.68235108 93.89686315 444.94516607 95.22108459 444.2074585 C101.34938193 440.79614098 107.51356503 437.45295189 113.6875 434.125 C121.82409165 429.7313599 129.92719455 425.28380009 138.00390625 420.78125 C144.36883343 417.2341498 150.74609717 413.70938388 157.125 410.1875 C158.05735474 409.67269577 158.05735474 409.67269577 159.00854492 409.14749146 C168.53241842 403.89112658 178.08548351 398.69091402 187.65673828 393.52124023 C201.86252481 385.84155983 215.92474141 377.91733296 230 370 C230 342.28 230 314.56 230 286 C225.43976435 287.52007855 222.02434358 288.93705072 217.9140625 291.23828125 C217.34398972 291.55531509 216.77391693 291.87234894 216.18656921 292.19898987 C214.96491654 292.87905251 213.7445238 293.56138262 212.52529907 294.24578857 C209.93829945 295.6979716 207.3452993 297.13927674 204.75245667 298.58099365 C203.42764955 299.31764892 202.10313685 300.05483393 200.77891541 300.7925415 C194.65061807 304.20385902 188.48643497 307.54704811 182.3125 310.875 C175.62588083 314.48567624 168.95075243 318.11358097 162.3125 321.8125 C161.63010254 322.1926123 160.94770508 322.57272461 160.24462891 322.96435547 C158.74021779 323.80254185 157.23582443 324.64076009 155.73144531 325.47900391 C150.37955808 328.45918423 145.02540295 331.43520228 139.66659546 334.40292358 C138.35725089 335.12873549 137.04850437 335.85562741 135.74038696 336.58364868 C133.89484711 337.61061065 132.04727099 338.63381777 130.19921875 339.65625 C128.58793091 340.55053711 128.58793091 340.55053711 126.9440918 341.46289062 C121.46182431 344.32518071 118.15398434 345.77318193 112 344 C104.98191256 338.90510494 99.04148441 332.17172511 92.9375 326.03515625 C91.8954026 324.99118934 90.85308091 323.94744628 89.81054688 322.90391541 C87.09255554 320.18214078 84.3775831 317.45737477 81.66326904 314.73193359 C78.88282982 311.94118927 76.09948971 309.15334129 73.31640625 306.36523438 C67.87479158 300.91295642 62.43636897 295.45750891 57 290 C53.19241731 291.57187292 50.81567885 293.96095284 47.94360352 296.87695312 C47.45361877 297.37146469 46.96363403 297.86597626 46.45880127 298.37547302 C45.39863177 299.44657584 44.3407489 300.51994576 43.28491402 301.59532166 C41.61226405 303.29819288 39.93297369 304.99425006 38.25169373 306.68859863 C33.47389566 311.50610253 28.70890827 316.33620708 23.94702148 321.16943359 C21.03098679 324.12822002 18.10764807 327.07963189 15.17991447 330.02684021 C14.06744559 331.14986393 12.95790077 332.27579219 11.8513813 333.40467834 C10.30296705 334.98434428 8.74549714 336.55454049 7.18579102 338.12304688 C6.30294937 339.01858276 5.42010773 339.91411865 4.51051331 340.83679199 C0.86175371 343.9807809 -1.61434064 345.07513265 -6.42651367 344.81420898 C-10.11837541 343.97302849 -12.86146527 342.78752059 -16.17578125 340.97265625 C-17.32361084 340.35076416 -18.47144043 339.72887207 -19.65405273 339.08813477 C-20.87368972 338.41320241 -22.09316868 337.73798441 -23.3125 337.0625 C-24.5829336 336.36882842 -25.85385314 335.67604612 -27.12524414 334.98413086 C-30.75778675 333.00306871 -34.37964306 331.00324313 -38 329 C-38.85625977 328.52820313 -39.71251953 328.05640625 -40.59472656 327.5703125 C-44.11780885 325.62867522 -47.63389422 323.67498043 -51.14453125 321.7109375 C-57.45857993 318.18006394 -63.79165317 314.68359435 -70.125 311.1875 C-70.74327667 310.84610992 -71.36155334 310.50471985 -71.99856567 310.15298462 C-81.74705801 304.7721756 -91.52178824 299.44206715 -101.32470703 294.16088867 C-102.23591309 293.66951416 -103.14711914 293.17813965 -104.0859375 292.671875 C-104.93124023 292.21619141 -105.77654297 291.76050781 -106.64746094 291.29101562 C-108.80078616 290.10932366 -110.92165426 288.8851336 -113.0390625 287.640625 C-115.72738616 285.83844572 -115.72738616 285.83844572 -118 286 Z " fill="#FFE34D" transform="translate(200,0)"/>
<path d="M0 0 C2.87029869 1.79393668 4.49131638 2.98263276 6 6 C6.43598616 15.01038062 6.43598616 15.01038062 4 18 C0.60229091 20.29147823 -1.44666853 21 -5.5625 21 C-9.76271886 19.77811815 -11.40536649 18.51038651 -14 15 C-15.21043896 10.83911606 -15.28411902 8.75291539 -13.75 4.6875 C-10.22492672 -0.7260054 -5.95226484 -0.87717587 0 0 Z " fill="#FFE34D" transform="translate(409,48)"/>
<path d="M0 0 C2.50670319 4.0107251 2.38447518 7.91619245 1.5625 12.5 C-0.3125 15.625 -0.3125 15.625 -3.4375 17.5 C-8.46372846 18.48876625 -12.14263784 18.2769173 -16.5625 15.625 C-19.19852749 11.23162086 -19.47197266 7.49995121 -18.4375 2.5 C-16.32123654 -0.38046971 -14.7301342 -1.8536829 -11.5625 -3.4375 C-7.23660249 -3.56473228 -3.64731257 -2.24450004 0 0 Z " fill="#FFE34D" transform="translate(264.4375,317.5)"/>
</svg>
