<svg width="27" height="25" viewBox="0 0 27 25" fill="none" xmlns="http://www.w3.org/2000/svg">
<path d="M14.818 3.08594H10.125C8.00368 3.08594 6.94302 3.08594 6.28401 3.68823C5.625 4.29052 5.625 5.2599 5.625 7.19865V17.4804C5.625 19.4192 5.625 20.3886 6.28401 20.9909C6.94302 21.5932 8.00368 21.5932 10.125 21.5932H16.875C18.9963 21.5932 20.057 21.5932 20.716 20.9909C21.375 20.3886 21.375 19.4192 21.375 17.4804V9.0786C21.375 8.65833 21.375 8.4482 21.2894 8.25925C21.2037 8.0703 21.0411 7.92171 20.716 7.62454L16.409 3.68823C16.0839 3.39106 15.9213 3.24247 15.7145 3.1642C15.5078 3.08594 15.2779 3.08594 14.818 3.08594Z" stroke="#FFE34E" stroke-width="2"/>
<path d="M10.125 13.3672L16.875 13.3672" stroke="#FFE34E" stroke-width="2" stroke-linecap="round"/>
<path d="M10.125 17.4766L14.625 17.4766" stroke="#FFE34E" stroke-width="2" stroke-linecap="round"/>
<path d="M14.625 3.08594V7.19865C14.625 8.16803 14.625 8.65272 14.9545 8.95386C15.284 9.25501 15.8143 9.25501 16.875 9.25501H21.375" stroke="#FFE34E" stroke-width="2"/>
</svg>
