<svg width="35" height="35" viewBox="0 0 35 35" fill="none" xmlns="http://www.w3.org/2000/svg">
<path d="M17.5 0.921875C26.7969 0.921875 34.4531 8.57812 34.4531 17.875C34.4531 27.2402 26.7969 34.8281 17.5 34.8281C8.13477 34.8281 0.546875 27.2402 0.546875 17.875C0.546875 8.57812 8.13477 0.921875 17.5 0.921875ZM17.5 8.44141C15.8594 8.44141 14.6289 9.74023 14.6289 11.3125C14.6289 12.9531 15.8594 14.1836 17.5 14.1836C19.0723 14.1836 20.3711 12.9531 20.3711 11.3125C20.3711 9.74023 19.0723 8.44141 17.5 8.44141ZM21.3281 25.8047V24.1641C21.3281 23.7539 20.918 23.3438 20.5078 23.3438H19.6875V16.5078C19.6875 16.0977 19.2773 15.6875 18.8672 15.6875H14.4922C14.0137 15.6875 13.6719 16.0977 13.6719 16.5078V18.1484C13.6719 18.627 14.0137 18.9688 14.4922 18.9688H15.3125V23.3438H14.4922C14.0137 23.3438 13.6719 23.7539 13.6719 24.1641V25.8047C13.6719 26.2832 14.0137 26.625 14.4922 26.625H20.5078C20.918 26.625 21.3281 26.2832 21.3281 25.8047Z" fill="url(#paint0_linear_4790_20547)"/>
<defs>
<linearGradient id="paint0_linear_4790_20547" x1="13.7342" y1="-0.512659" x2="30.5208" y2="32.4341" gradientUnits="userSpaceOnUse">
<stop stop-color="#DEBF1A"/>
<stop offset="0.408854" stop-color="#F2E28A"/>
<stop offset="0.692708" stop-color="#CDB016"/>
<stop offset="1" stop-color="#EDDA75"/>
</linearGradient>
</defs>
</svg>
