<svg width="24" height="31" viewBox="0 0 24 31" fill="none" xmlns="http://www.w3.org/2000/svg">
<path d="M18.2389 3.58989V1.308C18.2389 0.708272 17.8084 0.210938 17.2891 0.210938C16.7699 0.210938 16.3393 0.708272 16.3393 1.308V3.50212H8.10768V1.308C8.10768 0.708272 7.6771 0.210938 7.15788 0.210938C6.63865 0.210938 6.20807 0.708272 6.20807 1.308V3.58989C2.78876 3.95557 1.12976 6.3106 0.876477 9.80657C0.851149 10.2308 1.15509 10.5818 1.50968 10.5818H22.9373C23.3046 10.5818 23.6085 10.2161 23.5705 9.80657C23.3172 6.3106 21.6582 3.95557 18.2389 3.58989Z" fill="#2F2F2F"/>
<path d="M22.3571 12.7812H2.09454C1.39801 12.7812 0.828125 13.4394 0.828125 14.2439V23.2545C0.828125 27.6427 2.72774 30.5682 7.16018 30.5682H17.2915C21.7239 30.5682 23.6235 27.6427 23.6235 23.2545V14.2439C23.6235 13.4394 23.0536 12.7812 22.3571 12.7812ZM8.69254 25.0244C8.62922 25.0829 8.5659 25.156 8.50258 25.1999C8.42659 25.2584 8.35061 25.3023 8.27462 25.3316C8.19864 25.3755 8.12265 25.4047 8.04667 25.4193C7.95802 25.434 7.88203 25.4486 7.79339 25.4486C7.62875 25.4486 7.46412 25.4047 7.31215 25.3316C7.14752 25.2584 7.02087 25.156 6.89423 25.0244C6.66628 24.7465 6.52697 24.3662 6.52697 23.9858C6.52697 23.6055 6.66628 23.2252 6.89423 22.9473C7.02087 22.8156 7.14752 22.7133 7.31215 22.6401C7.5401 22.5231 7.79339 22.4938 8.04667 22.5524C8.12265 22.567 8.19864 22.5962 8.27462 22.6401C8.35061 22.6694 8.42659 22.7133 8.50258 22.7718C8.5659 22.8303 8.62922 22.8888 8.69254 22.9473C8.92049 23.2252 9.0598 23.6055 9.0598 23.9858C9.0598 24.3662 8.92049 24.7465 8.69254 25.0244ZM8.69254 19.9048C8.45192 20.1681 8.12265 20.329 7.79339 20.329C7.46412 20.329 7.13485 20.1681 6.89423 19.9048C6.66628 19.6269 6.52697 19.2465 6.52697 18.8662C6.52697 18.4859 6.66628 18.1056 6.89423 17.8277C7.24883 17.4181 7.80605 17.2865 8.27462 17.5205C8.43926 17.5936 8.57856 17.696 8.69254 17.8277C8.92049 18.1056 9.0598 18.4859 9.0598 18.8662C9.0598 19.2465 8.92049 19.6269 8.69254 19.9048ZM13.125 25.0244C12.8844 25.2877 12.5551 25.4486 12.2258 25.4486C11.8966 25.4486 11.5673 25.2877 11.3267 25.0244C11.0987 24.7465 10.9594 24.3662 10.9594 23.9858C10.9594 23.6055 11.0987 23.2252 11.3267 22.9473C11.7952 22.4061 12.6564 22.4061 13.125 22.9473C13.3529 23.2252 13.4922 23.6055 13.4922 23.9858C13.4922 24.3662 13.3529 24.7465 13.125 25.0244ZM13.125 19.9048C13.0617 19.9633 12.9983 20.0218 12.935 20.0803C12.859 20.1388 12.783 20.1827 12.7071 20.212C12.6311 20.2558 12.5551 20.2851 12.4791 20.2997C12.3905 20.3143 12.3145 20.329 12.2258 20.329C11.8966 20.329 11.5673 20.1681 11.3267 19.9048C11.0987 19.6269 10.9594 19.2465 10.9594 18.8662C10.9594 18.4859 11.0987 18.1056 11.3267 17.8277C11.4406 17.696 11.58 17.5936 11.7446 17.5205C12.2132 17.2865 12.7704 17.4181 13.125 17.8277C13.3529 18.1056 13.4922 18.4859 13.4922 18.8662C13.4922 19.2465 13.3529 19.6269 13.125 19.9048ZM17.5574 25.0244C17.3168 25.2877 16.9875 25.4486 16.6583 25.4486C16.329 25.4486 15.9997 25.2877 15.7591 25.0244C15.5312 24.7465 15.3919 24.3662 15.3919 23.9858C15.3919 23.6055 15.5312 23.2252 15.7591 22.9473C16.2277 22.4061 17.0888 22.4061 17.5574 22.9473C17.7854 23.2252 17.9247 23.6055 17.9247 23.9858C17.9247 24.3662 17.7854 24.7465 17.5574 25.0244ZM17.5574 19.9048C17.4941 19.9633 17.4308 20.0218 17.3675 20.0803C17.2915 20.1388 17.2155 20.1827 17.1395 20.212C17.0635 20.2558 16.9875 20.2851 16.9115 20.2997C16.8229 20.3143 16.7342 20.329 16.6583 20.329C16.329 20.329 15.9997 20.1681 15.7591 19.9048C15.5312 19.6269 15.3919 19.2465 15.3919 18.8662C15.3919 18.4859 15.5312 18.1056 15.7591 17.8277C15.8858 17.696 16.0124 17.5936 16.177 17.5205C16.405 17.4035 16.6583 17.3742 16.9115 17.4327C16.9875 17.4474 17.0635 17.4766 17.1395 17.5205C17.2155 17.5498 17.2915 17.5936 17.3675 17.6521L17.5574 17.8277C17.7854 18.1056 17.9247 18.4859 17.9247 18.8662C17.9247 19.2465 17.7854 19.6269 17.5574 19.9048Z" fill="#2F2F2F"/>
</svg>
