<svg width="28" height="28" viewBox="0 0 28 28" fill="none" xmlns="http://www.w3.org/2000/svg">
<mask id="mask0_8894_8165" style="mask-type:alpha" maskUnits="userSpaceOnUse" x="0" y="0" width="28" height="28">
<rect width="28" height="28" fill="#D9D9D9"/>
</mask>
<g mask="url(#mask0_8894_8165)">
<path d="M11.6673 13.9974C10.384 13.9974 9.28537 13.5405 8.37148 12.6266C7.4576 11.7127 7.00065 10.6141 7.00065 9.33073C7.00065 8.0474 7.4576 6.94879 8.37148 6.0349C9.28537 5.12101 10.384 4.66406 11.6673 4.66406C12.9507 4.66406 14.0493 5.12101 14.9632 6.0349C15.877 6.94879 16.334 8.0474 16.334 9.33073C16.334 10.6141 15.877 11.7127 14.9632 12.6266C14.0493 13.5405 12.9507 13.9974 11.6673 13.9974ZM2.33398 23.3307V20.0641C2.33398 19.4224 2.49926 18.8196 2.82982 18.2557C3.16037 17.6918 3.61732 17.2641 4.20065 16.9724C5.19232 16.4668 6.31037 16.0391 7.55482 15.6891C8.79926 15.3391 10.1701 15.1641 11.6673 15.1641H12.0757C12.1923 15.1641 12.309 15.1835 12.4257 15.2224C12.2701 15.5724 12.1388 15.937 12.0319 16.3161C11.925 16.6953 11.8423 17.0891 11.784 17.4974H11.6673C10.2868 17.4974 9.04718 17.6724 7.94857 18.0224C6.84996 18.3724 5.95065 18.7224 5.25065 19.0724C5.07565 19.1696 4.93468 19.3057 4.82773 19.4807C4.72079 19.6557 4.66732 19.8502 4.66732 20.0641V20.9974H12.0173C12.134 21.4057 12.2895 21.8092 12.484 22.2078C12.6784 22.6064 12.8923 22.9807 13.1257 23.3307H2.33398ZM18.6673 24.4974L18.3173 22.7474C18.084 22.6502 17.8652 22.5481 17.6611 22.4411C17.4569 22.3342 17.2479 22.203 17.034 22.0474L15.3423 22.5724L14.1757 20.5891L15.5173 19.4224C15.4784 19.1502 15.459 18.8974 15.459 18.6641C15.459 18.4307 15.4784 18.178 15.5173 17.9057L14.1757 16.7391L15.3423 14.7557L17.034 15.2807C17.2479 15.1252 17.4569 14.9939 17.6611 14.887C17.8652 14.78 18.084 14.678 18.3173 14.5807L18.6673 12.8307H21.0007L21.3507 14.5807C21.584 14.678 21.8027 14.7849 22.0069 14.9016C22.2111 15.0182 22.4201 15.1641 22.634 15.3391L24.3257 14.7557L25.4923 16.7974L24.1507 17.9641C24.1895 18.1974 24.209 18.4405 24.209 18.6932C24.209 18.946 24.1895 19.1891 24.1507 19.4224L25.4923 20.5891L24.3257 22.5724L22.634 22.0474C22.4201 22.203 22.2111 22.3342 22.0069 22.4411C21.8027 22.5481 21.584 22.6502 21.3507 22.7474L21.0007 24.4974H18.6673ZM19.834 20.9974C20.4757 20.9974 21.025 20.7689 21.4819 20.312C21.9388 19.855 22.1673 19.3057 22.1673 18.6641C22.1673 18.0224 21.9388 17.4731 21.4819 17.0161C21.025 16.5592 20.4757 16.3307 19.834 16.3307C19.1923 16.3307 18.643 16.5592 18.1861 17.0161C17.7291 17.4731 17.5007 18.0224 17.5007 18.6641C17.5007 19.3057 17.7291 19.855 18.1861 20.312C18.643 20.7689 19.1923 20.9974 19.834 20.9974ZM11.6673 11.6641C12.309 11.6641 12.8583 11.4356 13.3152 10.9786C13.7722 10.5217 14.0007 9.9724 14.0007 9.33073C14.0007 8.68906 13.7722 8.13976 13.3152 7.68281C12.8583 7.22587 12.309 6.9974 11.6673 6.9974C11.0257 6.9974 10.4763 7.22587 10.0194 7.68281C9.56246 8.13976 9.33398 8.68906 9.33398 9.33073C9.33398 9.9724 9.56246 10.5217 10.0194 10.9786C10.4763 11.4356 11.0257 11.6641 11.6673 11.6641Z" fill="url(#paint0_linear_8894_8165)"/>
</g>
<defs>
<linearGradient id="paint0_linear_8894_8165" x1="11.4214" y1="2.3418" x2="22.5138" y2="24.1308" gradientUnits="userSpaceOnUse">
<stop stop-color="#DEBF1A"/>
<stop offset="0.408854" stop-color="#F2E28A"/>
<stop offset="0.692708" stop-color="#CDB016"/>
<stop offset="1" stop-color="#EDDA75"/>
</linearGradient>
</defs>
</svg>
