<svg xmlns="http://www.w3.org/2000/svg" width="42" height="45" viewBox="0 0 42 45" fill="none">
  <path d="M24.8948 21.1169C25.1602 21.1169 25.4147 21.0117 25.6023 20.8244C25.7899 20.6372 25.8953 20.3832 25.8953 20.1184C25.8953 19.131 26.1436 17.4741 27.8031 17.4741C29.4627 17.4741 29.7116 19.1308 29.7116 20.1184C29.7116 20.3832 29.817 20.6372 30.0047 20.8244C30.1923 21.0117 30.4468 21.1169 30.7121 21.1169H35.5213C35.7866 21.1169 36.0411 21.0117 36.2287 20.8244C36.4163 20.6372 36.5217 20.3832 36.5217 20.1184V5.779C36.5213 5.23185 36.3033 4.70724 35.9156 4.32034C35.528 3.93345 35.0023 3.71589 34.4541 3.71544H31.6531C31.3506 1.4294 29.9067 0 27.8028 0C25.699 0 24.2558 1.4294 23.9533 3.71544H5.71744C5.16921 3.71591 4.64356 3.93347 4.2559 4.32036C3.86824 4.70725 3.65024 5.23186 3.64977 5.779V23.9886C1.40187 24.3115 0 25.7445 0 27.8211C0 29.8976 1.40187 31.3299 3.64977 31.6529V34.4582C3.65024 35.0053 3.86824 35.5299 4.2559 35.9168C4.64356 36.3037 5.16921 36.5213 5.71744 36.5217H19.0175C19.5657 36.5213 20.0913 36.3037 20.479 35.9168C20.8667 35.5299 21.0847 35.0053 21.0851 34.4582V21.1169H24.8948ZM24.1575 5.71184C24.2303 5.71182 24.3028 5.70409 24.3739 5.68877C24.4311 5.68366 24.5092 5.67863 24.5882 5.6736C24.9457 5.64971 25.8952 5.58766 25.8952 4.63998C25.8952 3.65257 26.1434 1.9964 27.803 1.9964C29.4625 1.9964 29.7113 3.65257 29.7113 4.63998C29.7113 5.5867 30.6608 5.64971 31.0183 5.6736C31.0965 5.67863 31.174 5.68366 31.2311 5.68803C31.3026 5.70403 31.3757 5.71202 31.449 5.71184H34.4532C34.462 5.71176 34.4708 5.71345 34.479 5.71679C34.4872 5.72014 34.4947 5.72509 34.5009 5.73134C34.5072 5.73759 34.5122 5.74502 34.5155 5.75321C34.5189 5.76139 34.5206 5.77016 34.5205 5.779V19.1205H31.6426C31.3191 16.877 29.8833 15.478 27.8025 15.478C25.7218 15.478 24.2866 16.877 23.9631 19.1205H21.0851V14.9752C21.0854 14.7144 20.9832 14.4638 20.8006 14.2772C20.618 14.0906 20.3694 13.9827 20.1081 13.9767C18.9277 13.9493 17.5207 13.5975 17.5207 12.0764C17.5207 10.5553 18.9277 10.2035 20.1081 10.1761C20.3694 10.1701 20.618 10.0622 20.8006 9.87561C20.9832 9.68899 21.0853 9.43843 21.0851 9.17759V5.71184H24.1575ZM19.0848 34.4583C19.0847 34.4761 19.0776 34.4932 19.065 34.5058C19.0524 34.5183 19.0353 34.5255 19.0175 34.5256H5.71744C5.69961 34.5255 5.68254 34.5183 5.66994 34.5058C5.65734 34.4932 5.65023 34.4761 5.65015 34.4583V30.7232C5.65015 30.4584 5.54474 30.2044 5.35712 30.0172C5.16949 29.8299 4.91501 29.7247 4.64967 29.7247C3.6603 29.7247 2.00008 29.477 2.00008 27.8208C2.00008 26.1645 3.66015 25.9161 4.64967 25.9161C4.78105 25.9161 4.91115 25.8903 5.03254 25.8401C5.15392 25.7899 5.26421 25.7164 5.35712 25.6236C5.45002 25.5309 5.52372 25.4208 5.574 25.2997C5.62427 25.1786 5.65015 25.0487 5.65015 24.9176V21.1159H8.5277C8.85119 23.3594 10.2871 24.7578 12.3678 24.7578C14.4485 24.7578 15.8837 23.3594 16.2072 21.1159H19.0848V34.4583Z" fill="#FBFAFC"/>
  <path d="M41.9852 38.3854C41.9845 38.1183 41.8778 37.8624 41.6886 37.6739C41.4994 37.4854 41.2432 37.3797 40.9762 37.38H40.9718C40.2275 37.4071 39.4913 37.2175 38.8527 36.8342C38.6156 36.6616 38.4257 36.4321 38.3003 36.1669C38.175 35.9018 38.1182 35.6093 38.1352 35.3165V35.3158C38.1264 33.5094 39.8929 33.2306 40.9469 33.2254C41.0793 33.2249 41.2103 33.1982 41.3324 33.147C41.4545 33.0959 41.5653 33.0211 41.6585 32.9271C41.7517 32.833 41.8255 32.7215 41.8756 32.5989C41.9257 32.4764 41.9512 32.3451 41.9506 32.2127L41.9331 27.7838C41.932 27.5168 41.8252 27.2611 41.6361 27.0726C41.447 26.8842 41.1909 26.7784 40.924 26.7784H40.9203L37.0086 26.7937C36.91 26.0105 36.6233 25.2628 36.1731 24.6144C35.8278 24.1379 35.3708 23.7536 34.8422 23.4953C34.3136 23.237 33.7296 23.1126 33.1417 23.133H33.1193C32.5267 23.1145 31.9389 23.243 31.4081 23.5071C30.8773 23.7712 30.4202 24.1627 30.0776 24.6466C29.634 25.2998 29.3545 26.0504 29.2629 26.8348L25.3537 26.8497C25.221 26.85 25.0897 26.8765 24.9673 26.9276C24.8449 26.9788 24.7338 27.0536 24.6403 27.1478C24.5469 27.2419 24.4729 27.3536 24.4227 27.4764C24.3725 27.5993 24.347 27.7308 24.3477 27.8635L24.4141 42.3594C24.4166 42.9108 24.6374 43.4388 25.0281 43.8278C25.4187 44.2168 25.9476 44.4352 26.4989 44.4352H26.509L39.9246 44.3732C40.4774 44.37 41.0063 44.1477 41.3954 43.7549C41.7845 43.3622 42.0018 42.8311 41.9998 42.2782L41.9852 38.3854Z" fill="#FBFAFC"/>
</svg>