<svg width="30" height="30" viewBox="0 0 30 30" fill="none" xmlns="http://www.w3.org/2000/svg">
<path d="M15 23.0175L20.6901 17.3274L19.4837 16.121L15.901 19.7037V11.677H14.099V19.7037L10.5163 16.121L9.30985 17.3274L15 23.0175ZM3.30202 7.51085V26.2092C3.30202 26.3518 3.34784 26.4689 3.43948 26.5605C3.53112 26.6522 3.64821 26.698 3.79076 26.698H26.2092C26.3518 26.698 26.4689 26.6522 26.5605 26.5605C26.6522 26.4689 26.698 26.3518 26.698 26.2092V7.51085H3.30202ZM3.91293 28.5C3.28833 28.5 2.73003 28.254 2.23801 27.762C1.746 27.27 1.5 26.7117 1.5 26.0871V6.77788C1.5 6.52646 1.53971 6.28101 1.61912 6.04153C1.69853 5.80208 1.81765 5.58123 1.97647 5.379L4.27029 2.39188C4.47186 2.12106 4.7342 1.90471 5.0573 1.74284C5.3804 1.58095 5.72281 1.5 6.08453 1.5H23.8605C24.2222 1.5 24.5671 1.58095 24.8953 1.74284C25.2235 1.90471 25.4884 2.12106 25.69 2.39188L28.0235 5.40953C28.1824 5.61177 28.3015 5.83517 28.3809 6.07973C28.4603 6.32429 28.5 6.57228 28.5 6.8237V26.0871C28.5 26.7117 28.254 27.27 27.762 27.762C27.27 28.254 26.7117 28.5 26.0871 28.5H3.91293ZM3.94648 5.70884H25.9986L24.1973 3.47002C24.1464 3.41911 24.0879 3.37839 24.0217 3.34784C23.9555 3.31729 23.8868 3.30202 23.8155 3.30202H6.12424C6.05298 3.30202 5.98171 3.31729 5.91042 3.34784C5.83916 3.37839 5.78316 3.41911 5.74243 3.47002L3.94648 5.70884Z" fill="#F4F4F4"/>
</svg>
