<svg width="31" height="30" viewBox="0 0 31 30" fill="none" xmlns="http://www.w3.org/2000/svg">
<path d="M15.5 23.0175L21.1901 17.3274L19.9837 16.121L16.401 19.7037V11.677H14.599V19.7037L11.0163 16.121L9.80985 17.3274L15.5 23.0175ZM3.80202 7.51085V26.2092C3.80202 26.3518 3.84784 26.4689 3.93948 26.5605C4.03112 26.6522 4.14821 26.698 4.29076 26.698H26.7092C26.8518 26.698 26.9689 26.6522 27.0605 26.5605C27.1522 26.4689 27.198 26.3518 27.198 26.2092V7.51085H3.80202ZM4.41293 28.5C3.78833 28.5 3.23003 28.254 2.73801 27.762C2.246 27.27 2 26.7117 2 26.0871V6.77788C2 6.52646 2.03971 6.28101 2.11912 6.04153C2.19853 5.80208 2.31765 5.58123 2.47647 5.379L4.77029 2.39188C4.97186 2.12106 5.2342 1.90471 5.5573 1.74284C5.8804 1.58095 6.22281 1.5 6.58453 1.5H24.3605C24.7222 1.5 25.0671 1.58095 25.3953 1.74284C25.7235 1.90471 25.9884 2.12106 26.19 2.39188L28.5235 5.40953C28.6824 5.61177 28.8015 5.83517 28.8809 6.07973C28.9603 6.32429 29 6.57228 29 6.8237V26.0871C29 26.7117 28.754 27.27 28.262 27.762C27.77 28.254 27.2117 28.5 26.5871 28.5H4.41293ZM4.44648 5.70884H26.4986L24.6973 3.47002C24.6464 3.41911 24.5879 3.37839 24.5217 3.34784C24.4555 3.31729 24.3868 3.30202 24.3155 3.30202H6.62424C6.55298 3.30202 6.48171 3.31729 6.41042 3.34784C6.33916 3.37839 6.28316 3.41911 6.24243 3.47002L4.44648 5.70884Z" fill="url(#paint0_linear_8985_5786)"/>
<defs>
<linearGradient id="paint0_linear_8985_5786" x1="12.5949" y1="-1.66139" x2="29" y2="25.9367" gradientUnits="userSpaceOnUse">
<stop stop-color="#DEBF1A"/>
<stop offset="0.408854" stop-color="#F2E28A"/>
<stop offset="0.692708" stop-color="#CDB016"/>
<stop offset="1" stop-color="#EDDA75"/>
</linearGradient>
</defs>
</svg>
