<svg width="28" height="28" viewBox="0 0 30 28" fill="none" xmlns="http://www.w3.org/2000/svg">
<path d="M14 21.6738L19.6901 15.9837L18.4837 14.7772L14.901 18.3599V10.3332H13.099V18.3599L9.51628 14.7772L8.30985 15.9837L14 21.6738ZM2.30202 6.1671V24.8655C2.30202 25.008 2.34784 25.1251 2.43948 25.2168C2.53112 25.3084 2.64821 25.3542 2.79076 25.3542H25.2092C25.3518 25.3542 25.4689 25.3084 25.5605 25.2168C25.6522 25.1251 25.698 25.008 25.698 24.8655V6.1671H2.30202ZM2.91293 27.1562C2.28833 27.1562 1.73003 26.9102 1.23801 26.4182C0.746005 25.9262 0.5 25.3679 0.5 24.7433V5.43413C0.5 5.18271 0.539706 4.93726 0.619118 4.69778C0.69853 4.45833 0.817648 4.23748 0.976472 4.03525L3.27029 1.04813C3.47186 0.777306 3.7342 0.560961 4.0573 0.399093C4.3804 0.237198 4.72281 0.15625 5.08453 0.15625H22.8605C23.2222 0.15625 23.5671 0.237198 23.8953 0.399093C24.2235 0.560961 24.4884 0.777306 24.69 1.04813L27.0235 4.06578C27.1824 4.26802 27.3015 4.49142 27.3809 4.73598C27.4603 4.98054 27.5 5.22853 27.5 5.47995V24.7433C27.5 25.3679 27.254 25.9262 26.762 26.4182C26.27 26.9102 25.7117 27.1562 25.0871 27.1562H2.91293ZM2.94648 4.36509H24.9986L23.1973 2.12627C23.1464 2.07536 23.0879 2.03464 23.0217 2.00409C22.9555 1.97354 22.8868 1.95827 22.8155 1.95827H5.12424C5.05298 1.95827 4.98171 1.97354 4.91042 2.00409C4.83916 2.03464 4.78316 2.07536 4.74243 2.12627L2.94648 4.36509Z" fill="url(#paint0_linear_8793_2121)"/>
<defs>
<linearGradient id="paint0_linear_8793_2121" x1="11.0949" y1="-3.00514" x2="27.5" y2="24.593" gradientUnits="userSpaceOnUse">
<stop stop-color="#DEBF1A"/>
<stop offset="0.408854" stop-color="#F2E28A"/>
<stop offset="0.692708" stop-color="#CDB016"/>
<stop offset="1" stop-color="#EDDA75"/>
</linearGradient>
</defs>
</svg>
