<svg width="22" height="28" viewBox="0 0 22 28" fill="none" xmlns="http://www.w3.org/2000/svg">
<path d="M0 27.7708V2.89421C0 2.0696 0.276215 1.38108 0.828646 0.828646C1.38108 0.276215 2.0696 0 2.89421 0H18.6058C19.4304 0 20.1189 0.276215 20.6714 0.828646C21.2238 1.38108 21.5 2.0696 21.5 2.89421V27.7708L10.75 23.1538L0 27.7708ZM1.79167 24.9938L10.75 21.1417L19.7083 24.9938V2.89421C19.7083 2.6186 19.5935 2.36593 19.3638 2.1362C19.1341 1.90651 18.8814 1.79167 18.6058 1.79167H2.89421C2.6186 1.79167 2.36593 1.90651 2.1362 2.1362C1.90651 2.36593 1.79167 2.6186 1.79167 2.89421V24.9938Z" fill="white"/>
</svg>
