<svg width="25" height="25" viewBox="0 0 25 25" fill="none" xmlns="http://www.w3.org/2000/svg">
<path d="M2.65839 25C1.91554 25 1.28677 24.7426 0.772061 24.2279C0.257354 23.7132 0 23.0845 0 22.3416V2.65839C0 1.91555 0.257354 1.28677 0.772061 0.772061C1.28677 0.257354 1.91554 0 2.65839 0H22.3416C23.0845 0 23.7132 0.257354 24.2279 0.772061C24.7426 1.28677 25 1.91555 25 2.65839V22.3416C25 23.0845 24.7426 23.7132 24.2279 24.2279C23.7132 24.7426 23.0845 25 22.3416 25H2.65839ZM2.65839 22.7941H11.3971V2.20585H2.65839C2.54525 2.20585 2.44154 2.25299 2.34725 2.34725C2.25298 2.44154 2.20585 2.54525 2.20585 2.65839V22.3416C2.20585 22.4547 2.25298 22.5585 2.34725 22.6528C2.44154 22.747 2.54525 22.7941 2.65839 22.7941ZM13.6029 22.7941H22.3416C22.4547 22.7941 22.5585 22.747 22.6527 22.6528C22.747 22.5585 22.7941 22.4547 22.7941 22.3416V12.5H13.6029V22.7941ZM13.6029 10.2941H22.7941V2.65839C22.7941 2.54525 22.747 2.44154 22.6527 2.34725C22.5585 2.25299 22.4547 2.20585 22.3416 2.20585H13.6029V10.2941Z" fill="white"/>
</svg>
