<svg width="30" height="30" viewBox="0 0 30 30" fill="none" xmlns="http://www.w3.org/2000/svg">
<path d="M28.2018 20.3783L18.6143 4.47828C18.2267 3.8718 17.6925 3.37268 17.0612 3.02695C16.4299 2.68122 15.7216 2.5 15.0018 2.5C14.282 2.5 13.5738 2.68122 12.9425 3.02695C12.3111 3.37268 11.777 3.8718 11.3893 4.47828L1.80183 20.3783C1.46315 20.9428 1.27907 21.5866 1.2681 22.2449C1.25713 22.9032 1.41965 23.5527 1.73933 24.1283C2.10893 24.7761 2.64391 25.3142 3.28959 25.6875C3.93526 26.0609 4.66849 26.2561 5.41433 26.2533H24.5893C25.3303 26.2612 26.0602 26.0735 26.7054 25.7092C27.3507 25.3449 27.8884 24.8168 28.2643 24.1783C28.5934 23.5968 28.7611 22.9379 28.7501 22.2698C28.7391 21.6017 28.5499 20.9487 28.2018 20.3783ZM15.0018 21.2533C14.7546 21.2533 14.5129 21.18 14.3074 21.0426C14.1018 20.9053 13.9416 20.71 13.847 20.4816C13.7524 20.2532 13.7276 20.0019 13.7759 19.7594C13.8241 19.5169 13.9431 19.2942 14.118 19.1194C14.2928 18.9446 14.5155 18.8255 14.758 18.7773C15.0004 18.7291 15.2518 18.7538 15.4802 18.8484C15.7086 18.943 15.9038 19.1033 16.0412 19.3088C16.1785 19.5144 16.2518 19.7561 16.2518 20.0033C16.2518 20.3348 16.1201 20.6527 15.8857 20.8872C15.6513 21.1216 15.3334 21.2533 15.0018 21.2533ZM16.2518 16.2533C16.2518 16.5848 16.1201 16.9027 15.8857 17.1372C15.6513 17.3716 15.3334 17.5033 15.0018 17.5033C14.6703 17.5033 14.3524 17.3716 14.118 17.1372C13.8835 16.9027 13.7518 16.5848 13.7518 16.2533V11.2533C13.7518 10.9218 13.8835 10.6038 14.118 10.3694C14.3524 10.135 14.6703 10.0033 15.0018 10.0033C15.3334 10.0033 15.6513 10.135 15.8857 10.3694C16.1201 10.6038 16.2518 10.9218 16.2518 11.2533V16.2533Z" fill="#FF6464"/>
</svg>