<svg width="41" height="41" viewBox="0 0 41 41" fill="none" xmlns="http://www.w3.org/2000/svg">
<path d="M8.54097 32.4557H10.6961L28.1836 14.9682L26.0285 12.8131L8.54097 30.3006V32.4557ZM5.97852 35.0181V29.2362L28.5121 6.71247C28.7704 6.47783 29.0557 6.29652 29.3678 6.16854C29.68 6.04055 30.0073 5.97656 30.3498 5.97656C30.6923 5.97656 31.0241 6.03735 31.3452 6.15893C31.6663 6.28048 31.9506 6.47374 32.1981 6.73874L34.2842 8.85113C34.5492 9.09861 34.7381 9.38339 34.8509 9.70547C34.9637 10.0275 35.0201 10.3496 35.0201 10.6716C35.0201 11.0151 34.9614 11.343 34.8441 11.6551C34.7268 11.9673 34.5402 12.2525 34.2842 12.5109L11.7605 35.0181H5.97852ZM27.0871 13.9096L26.0285 12.8131L28.1836 14.9682L27.0871 13.9096Z" fill="#555555"/>
</svg>
