<svg width="288" height="46" viewBox="0 0 288 46" fill="none" xmlns="http://www.w3.org/2000/svg">
<rect x="1" y="1" width="285.8" height="44" rx="14" stroke="url(#paint0_linear_8285_2300)" stroke-width="2"/>
<path d="M53.8036 21.884H60.6076V25.736H53.8036V32.504H49.9516V25.736H43.1476V21.884H49.9516V15.044H53.8036V21.884Z" fill="url(#paint1_linear_8285_2300)"/>
<path d="M95.2154 31.5H92.9404L83.7904 17.625V31.5H81.5154V14.05H83.7904L92.9404 27.9V14.05H95.2154V31.5ZM111.619 24.125C111.619 24.5583 111.594 25.0167 111.544 25.5H100.594C100.677 26.85 101.135 27.9083 101.969 28.675C102.819 29.425 103.844 29.8 105.044 29.8C106.027 29.8 106.844 29.575 107.494 29.125C108.16 28.6583 108.627 28.0417 108.894 27.275H111.344C110.977 28.5917 110.244 29.6667 109.144 30.5C108.044 31.3167 106.677 31.725 105.044 31.725C103.744 31.725 102.577 31.4333 101.544 30.85C100.527 30.2667 99.7269 29.4417 99.1436 28.375C98.5602 27.2917 98.2686 26.0417 98.2686 24.625C98.2686 23.2083 98.5519 21.9667 99.1186 20.9C99.6852 19.8333 100.477 19.0167 101.494 18.45C102.527 17.8667 103.71 17.575 105.044 17.575C106.344 17.575 107.494 17.8583 108.494 18.425C109.494 18.9917 110.26 19.775 110.794 20.775C111.344 21.7583 111.619 22.875 111.619 24.125ZM109.269 23.65C109.269 22.7833 109.077 22.0417 108.694 21.425C108.31 20.7917 107.785 20.3167 107.119 20C106.469 19.6667 105.744 19.5 104.944 19.5C103.794 19.5 102.81 19.8667 101.994 20.6C101.194 21.3333 100.735 22.35 100.619 23.65H109.269ZM132.896 17.8L128.621 31.5H126.271L122.971 20.625L119.671 31.5H117.321L113.021 17.8H115.346L118.496 29.3L121.896 17.8H124.221L127.546 29.325L130.646 17.8H132.896ZM153.519 19.175C153.519 20.625 153.019 21.8333 152.019 22.8C151.036 23.75 149.528 24.225 147.494 24.225H144.144V31.5H141.869V14.075H147.494C149.461 14.075 150.953 14.55 151.969 15.5C153.003 16.45 153.519 17.675 153.519 19.175ZM147.494 22.35C148.761 22.35 149.694 22.075 150.294 21.525C150.894 20.975 151.194 20.1917 151.194 19.175C151.194 17.025 149.961 15.95 147.494 15.95H144.144V22.35H147.494ZM158.647 20.025C159.047 19.2417 159.614 18.6333 160.347 18.2C161.097 17.7667 162.005 17.55 163.072 17.55V19.9H162.472C159.922 19.9 158.647 21.2833 158.647 24.05V31.5H156.372V17.8H158.647V20.025ZM171.698 31.725C170.415 31.725 169.248 31.4333 168.198 30.85C167.165 30.2667 166.348 29.4417 165.748 28.375C165.165 27.2917 164.873 26.0417 164.873 24.625C164.873 23.225 165.173 21.9917 165.773 20.925C166.39 19.8417 167.223 19.0167 168.273 18.45C169.323 17.8667 170.498 17.575 171.798 17.575C173.098 17.575 174.273 17.8667 175.323 18.45C176.373 19.0167 177.198 19.8333 177.798 20.9C178.415 21.9667 178.723 23.2083 178.723 24.625C178.723 26.0417 178.406 27.2917 177.773 28.375C177.156 29.4417 176.315 30.2667 175.248 30.85C174.181 31.4333 172.998 31.725 171.698 31.725ZM171.698 29.725C172.515 29.725 173.281 29.5333 173.998 29.15C174.715 28.7667 175.29 28.1917 175.723 27.425C176.173 26.6583 176.398 25.725 176.398 24.625C176.398 23.525 176.181 22.5917 175.748 21.825C175.315 21.0583 174.748 20.4917 174.048 20.125C173.348 19.7417 172.59 19.55 171.773 19.55C170.94 19.55 170.173 19.7417 169.473 20.125C168.79 20.4917 168.24 21.0583 167.823 21.825C167.406 22.5917 167.198 23.525 167.198 24.625C167.198 25.7417 167.398 26.6833 167.798 27.45C168.215 28.2167 168.765 28.7917 169.448 29.175C170.131 29.5417 170.881 29.725 171.698 29.725ZM184.014 20.325C184.464 19.5417 185.131 18.8917 186.014 18.375C186.914 17.8417 187.956 17.575 189.139 17.575C190.356 17.575 191.456 17.8667 192.439 18.45C193.439 19.0333 194.223 19.8583 194.789 20.925C195.356 21.975 195.639 23.2 195.639 24.6C195.639 25.9833 195.356 27.2167 194.789 28.3C194.223 29.3833 193.439 30.225 192.439 30.825C191.456 31.425 190.356 31.725 189.139 31.725C187.973 31.725 186.939 31.4667 186.039 30.95C185.156 30.4167 184.481 29.7583 184.014 28.975V38H181.739V17.8H184.014V20.325ZM193.314 24.6C193.314 23.5667 193.106 22.6667 192.689 21.9C192.273 21.1333 191.706 20.55 190.989 20.15C190.289 19.75 189.514 19.55 188.664 19.55C187.831 19.55 187.056 19.7583 186.339 20.175C185.639 20.575 185.073 21.1667 184.639 21.95C184.223 22.7167 184.014 23.6083 184.014 24.625C184.014 25.6583 184.223 26.5667 184.639 27.35C185.073 28.1167 185.639 28.7083 186.339 29.125C187.056 29.525 187.831 29.725 188.664 29.725C189.514 29.725 190.289 29.525 190.989 29.125C191.706 28.7083 192.273 28.1167 192.689 27.35C193.106 26.5667 193.314 25.65 193.314 24.6ZM204.634 31.725C203.35 31.725 202.184 31.4333 201.134 30.85C200.1 30.2667 199.284 29.4417 198.684 28.375C198.1 27.2917 197.809 26.0417 197.809 24.625C197.809 23.225 198.109 21.9917 198.709 20.925C199.325 19.8417 200.159 19.0167 201.209 18.45C202.259 17.8667 203.434 17.575 204.734 17.575C206.034 17.575 207.209 17.8667 208.259 18.45C209.309 19.0167 210.134 19.8333 210.734 20.9C211.35 21.9667 211.659 23.2083 211.659 24.625C211.659 26.0417 211.342 27.2917 210.709 28.375C210.092 29.4417 209.25 30.2667 208.184 30.85C207.117 31.4333 205.934 31.725 204.634 31.725ZM204.634 29.725C205.45 29.725 206.217 29.5333 206.934 29.15C207.65 28.7667 208.225 28.1917 208.659 27.425C209.109 26.6583 209.334 25.725 209.334 24.625C209.334 23.525 209.117 22.5917 208.684 21.825C208.25 21.0583 207.684 20.4917 206.984 20.125C206.284 19.7417 205.525 19.55 204.709 19.55C203.875 19.55 203.109 19.7417 202.409 20.125C201.725 20.4917 201.175 21.0583 200.759 21.825C200.342 22.5917 200.134 23.525 200.134 24.625C200.134 25.7417 200.334 26.6833 200.734 27.45C201.15 28.2167 201.7 28.7917 202.384 29.175C203.067 29.5417 203.817 29.725 204.634 29.725ZM219.525 31.725C218.475 31.725 217.533 31.55 216.7 31.2C215.867 30.8333 215.208 30.3333 214.725 29.7C214.242 29.05 213.975 28.3083 213.925 27.475H216.275C216.342 28.1583 216.658 28.7167 217.225 29.15C217.808 29.5833 218.567 29.8 219.5 29.8C220.367 29.8 221.05 29.6083 221.55 29.225C222.05 28.8417 222.3 28.3583 222.3 27.775C222.3 27.175 222.033 26.7333 221.5 26.45C220.967 26.15 220.142 25.8583 219.025 25.575C218.008 25.3083 217.175 25.0417 216.525 24.775C215.892 24.4917 215.342 24.0833 214.875 23.55C214.425 23 214.2 22.2833 214.2 21.4C214.2 20.7 214.408 20.0583 214.825 19.475C215.242 18.8917 215.833 18.4333 216.6 18.1C217.367 17.75 218.242 17.575 219.225 17.575C220.742 17.575 221.967 17.9583 222.9 18.725C223.833 19.4917 224.333 20.5417 224.4 21.875H222.125C222.075 21.1583 221.783 20.5833 221.25 20.15C220.733 19.7167 220.033 19.5 219.15 19.5C218.333 19.5 217.683 19.675 217.2 20.025C216.717 20.375 216.475 20.8333 216.475 21.4C216.475 21.85 216.617 22.225 216.9 22.525C217.2 22.8083 217.567 23.0417 218 23.225C218.45 23.3917 219.067 23.5833 219.85 23.8C220.833 24.0667 221.633 24.3333 222.25 24.6C222.867 24.85 223.392 25.2333 223.825 25.75C224.275 26.2667 224.508 26.9417 224.525 27.775C224.525 28.525 224.317 29.2 223.9 29.8C223.483 30.4 222.892 30.875 222.125 31.225C221.375 31.5583 220.508 31.725 219.525 31.725ZM226.912 24.6C226.912 23.2 227.195 21.975 227.762 20.925C228.328 19.8583 229.103 19.0333 230.087 18.45C231.087 17.8667 232.195 17.575 233.412 17.575C234.612 17.575 235.653 17.8333 236.537 18.35C237.42 18.8667 238.078 19.5167 238.512 20.3V17.8H240.812V31.5H238.512V28.95C238.062 29.75 237.387 30.4167 236.487 30.95C235.603 31.4667 234.57 31.725 233.387 31.725C232.17 31.725 231.07 31.425 230.087 30.825C229.103 30.225 228.328 29.3833 227.762 28.3C227.195 27.2167 226.912 25.9833 226.912 24.6ZM238.512 24.625C238.512 23.5917 238.303 22.6917 237.887 21.925C237.47 21.1583 236.903 20.575 236.187 20.175C235.487 19.7583 234.712 19.55 233.862 19.55C233.012 19.55 232.237 19.75 231.537 20.15C230.837 20.55 230.278 21.1333 229.862 21.9C229.445 22.6667 229.237 23.5667 229.237 24.6C229.237 25.65 229.445 26.5667 229.862 27.35C230.278 28.1167 230.837 28.7083 231.537 29.125C232.237 29.525 233.012 29.725 233.862 29.725C234.712 29.725 235.487 29.525 236.187 29.125C236.903 28.7083 237.47 28.1167 237.887 27.35C238.303 26.5667 238.512 25.6583 238.512 24.625ZM246.956 13V31.5H244.681V13H246.956Z" fill="url(#paint2_linear_8285_2300)"/>
<defs>
<linearGradient id="paint0_linear_8285_2300" x1="112.934" y1="-5.38608" x2="118.926" y2="57.6775" gradientUnits="userSpaceOnUse">
<stop stop-color="#DEBF1A"/>
<stop offset="0.408854" stop-color="#F2E28A"/>
<stop offset="0.692708" stop-color="#CDB016"/>
<stop offset="1" stop-color="#EDDA75"/>
</linearGradient>
<linearGradient id="paint1_linear_8285_2300" x1="49.9637" y1="6.33861" x2="68.5164" y2="27.146" gradientUnits="userSpaceOnUse">
<stop stop-color="#DEBF1A"/>
<stop offset="0.408854" stop-color="#F2E28A"/>
<stop offset="0.692708" stop-color="#CDB016"/>
<stop offset="1" stop-color="#EDDA75"/>
</linearGradient>
<linearGradient id="paint2_linear_8285_2300" x1="142.356" y1="7.57278" x2="145.239" y2="41.9138" gradientUnits="userSpaceOnUse">
<stop stop-color="#DEBF1A"/>
<stop offset="0.408854" stop-color="#F2E28A"/>
<stop offset="0.692708" stop-color="#CDB016"/>
<stop offset="1" stop-color="#EDDA75"/>
</linearGradient>
</defs>
</svg>
