<svg width="25" height="26" viewBox="0 0 25 26" fill="none" xmlns="http://www.w3.org/2000/svg">
<path d="M11.8652 16.7266C11.3281 17.2637 10.498 17.2637 9.96094 16.7266L6.83594 13.6016C6.29883 13.0645 6.29883 12.2344 6.83594 11.6973C7.37305 11.1602 8.20312 11.1602 8.74023 11.6973L10.9375 13.8457L16.2109 8.57227C16.748 8.03516 17.5781 8.03516 18.1152 8.57227C18.6523 9.10938 18.6523 9.93945 18.1152 10.4766L11.8652 16.7266ZM25 12.625C25 19.5586 19.3848 25.125 12.5 25.125C5.56641 25.125 0 19.5586 0 12.625C0 5.74023 5.56641 0.125 12.5 0.125C19.3848 0.125 25 5.74023 25 12.625ZM12.5 2.46875C6.88477 2.46875 2.34375 7.05859 2.34375 12.625C2.34375 18.2402 6.88477 22.7812 12.5 22.7812C18.0664 22.7812 22.6562 18.2402 22.6562 12.625C22.6562 7.05859 18.0664 2.46875 12.5 2.46875Z" fill="url(#paint0_linear_8793_1985)"/>
<defs>
<linearGradient id="paint0_linear_8793_1985" x1="9.81013" y1="-2.92722" x2="25" y2="22.6266" gradientUnits="userSpaceOnUse">
<stop stop-color="#DEBF1A"/>
<stop offset="0.408854" stop-color="#F2E28A"/>
<stop offset="0.692708" stop-color="#CDB016"/>
<stop offset="1" stop-color="#EDDA75"/>
</linearGradient>
</defs>
</svg>
