<svg width="23" height="28" viewBox="0 0 23 28" fill="none" xmlns="http://www.w3.org/2000/svg">
<path d="M0.75 27.9349V3.05828C0.75 2.23366 1.02622 1.54514 1.57865 0.992708C2.13108 0.440278 2.8196 0.164062 3.64421 0.164062H19.3558C20.1804 0.164062 20.8689 0.440278 21.4214 0.992708C21.9738 1.54514 22.25 2.23366 22.25 3.05828V27.9349L11.5 23.3179L0.75 27.9349ZM2.54167 25.1578L11.5 21.3057L20.4583 25.1578V3.05828C20.4583 2.78266 20.3435 2.52999 20.1138 2.30027C19.8841 2.07058 19.6314 1.95573 19.3558 1.95573H3.64421C3.3686 1.95573 3.11593 2.07058 2.8862 2.30027C2.65651 2.52999 2.54167 2.78266 2.54167 3.05828V25.1578Z" fill="#FFE34E"/>
</svg>
