<svg width="22" height="30" viewBox="0 0 22 30" fill="none" xmlns="http://www.w3.org/2000/svg">
<path d="M20.0272 25.0783H5.87773C5.40933 25.0783 5.0051 24.8835 4.66504 24.4938C4.32498 24.1042 4.15495 23.641 4.15495 23.1044V2.78643C4.15495 2.24974 4.32498 1.78658 4.66504 1.39695C5.0051 1.00732 5.40933 0.8125 5.87773 0.8125H15.6492L21.75 7.8027V23.1044C21.75 23.641 21.58 24.1042 21.2399 24.4938C20.8999 24.8835 20.4956 25.0783 20.0272 25.0783ZM14.9716 8.46855V2.36529H5.87773C5.78584 2.36529 5.7016 2.40915 5.62501 2.49687C5.54845 2.58462 5.51017 2.68114 5.51017 2.78643V23.1044C5.51017 23.2096 5.54845 23.3062 5.62501 23.3939C5.7016 23.4816 5.78584 23.5255 5.87773 23.5255H20.0272C20.1191 23.5255 20.2034 23.4816 20.2799 23.3939C20.3565 23.3062 20.3948 23.2096 20.3948 23.1044V8.46855H14.9716ZM1.97278 29.5525C1.50438 29.5525 1.10015 29.3577 0.760089 28.9681C0.42003 28.5784 0.25 28.1153 0.25 27.5786V8.04494H1.60522V27.5786C1.60522 27.6839 1.6435 27.7804 1.72007 27.8681C1.79665 27.9559 1.88089 27.9997 1.97278 27.9997H15.4079V29.5525L1.97278 29.5525Z" fill="#FFE34E"/>
</svg>
