<svg width="24" height="22" viewBox="0 0 24 22" fill="none" xmlns="http://www.w3.org/2000/svg">
<rect width="24" height="22" transform="matrix(1 0 0 -1 0 22)" fill="#555555"/>
<path d="M4 7.33073C4 6.43573 4.00252 5.87408 4.06264 5.46418C4.11714 5.09261 4.20003 4.99455 4.26151 4.93819C4.3354 4.87046 4.47908 4.77897 4.92777 4.72367C5.39695 4.66585 6.03122 4.66406 7 4.66406H17C17.9688 4.66406 18.603 4.66585 19.0722 4.72367C19.5209 4.77897 19.6646 4.87046 19.7385 4.93819C19.8 4.99455 19.8829 5.09261 19.9374 5.46418C19.9975 5.87408 20 6.43573 20 7.33073V14.5807H4V7.33073Z" stroke="#FFE34E" stroke-width="2"/>
<path d="M3.66667 14.5859C2.82988 14.5859 2 15.2271 2 16.197C2 17.5045 3.12836 18.4193 4.33333 18.4193H19.6667C20.8716 18.4193 22 17.5045 22 16.197C22 15.2271 21.1701 14.5859 20.3333 14.5859H3.66667Z" stroke="#FFE34E" stroke-width="2"/>
</svg>