<svg width="35" height="36" viewBox="0 0 35 36" fill="none" xmlns="http://www.w3.org/2000/svg">
<mask id="mask0_8511_8600" style="mask-type:alpha" maskUnits="userSpaceOnUse" x="0" y="0" width="35" height="36">
<rect width="34.1538" height="36" fill="#D9D9D9"/>
</mask>
<g mask="url(#mask0_8511_8600)">
<path d="M6.56833 30C5.91336 30 5.36649 29.7688 4.9277 29.3063C4.48892 28.8438 4.26953 28.2673 4.26953 27.5769V8.42306C4.26953 7.73269 4.48892 7.15625 4.9277 6.69375C5.36649 6.23125 5.91336 6 6.56833 6H27.5861C28.2411 6 28.788 6.23125 29.2267 6.69375C29.6655 7.15625 29.8849 7.73269 29.8849 8.42306V27.5769C29.8849 28.2673 29.6655 28.8438 29.2267 29.3063C28.788 29.7688 28.2411 30 27.5861 30H6.56833ZM6.56833 28.5H27.5861C27.805 28.5 28.0057 28.4039 28.1882 28.2115C28.3706 28.0192 28.4618 27.8077 28.4618 27.5769V8.42306C28.4618 8.19231 28.3706 7.98078 28.1882 7.78845C28.0057 7.59615 27.805 7.5 27.5861 7.5H6.56833C6.34942 7.5 6.14873 7.59615 5.96627 7.78845C5.78383 7.98078 5.69261 8.19231 5.69261 8.42306V27.5769C5.69261 27.8077 5.78383 28.0192 5.96627 28.2115C6.14873 28.4039 6.34942 28.5 6.56833 28.5ZM7.82722 24.75H13.5195V23.25H7.82722V24.75ZM20.7061 21.4327L26.7377 15.075L25.7224 14.0048L20.7061 19.3298L18.6782 17.1923L17.6984 18.2625L20.7061 21.4327ZM7.82722 18.75H13.5195V17.25H7.82722V18.75ZM7.82722 12.75H13.5195V11.25H7.82722V12.75Z" fill="#FFE34E"/>
</g>
</svg>
