<svg width="25" height="26" viewBox="0 0 25 26" fill="none" xmlns="http://www.w3.org/2000/svg">
<path d="M15.6673 8.66927C15.6673 10.5475 14.2129 12.0026 12.5007 12.0026C10.7884 12.0026 9.33398 10.5475 9.33398 8.66927C9.33398 6.79099 10.7884 5.33594 12.5007 5.33594C14.2129 5.33594 15.6673 6.79099 15.6673 8.66927Z" stroke="#FFE34E" stroke-width="2" stroke-linecap="round"/>
<path d="M15.877 8.61037C16.1655 8.09067 16.6336 7.72312 17.1686 7.57404C17.7024 7.42529 18.2724 7.50195 18.7567 7.79274C19.2426 8.08452 19.6082 8.57241 19.7591 9.15833C19.9102 9.74489 19.8302 10.3688 19.541 10.8896C19.2525 11.4093 18.7843 11.7769 18.2494 11.926C17.7156 12.0747 17.1456 11.9981 16.6613 11.7073C16.1753 11.4155 15.8098 10.9276 15.6588 10.3417C15.5077 9.75511 15.5878 9.13122 15.877 8.61037L15.877 8.61037Z" stroke="#FFE34E" stroke-width="2"/>
<path d="M5.459 8.61037C5.7475 8.09067 6.21565 7.72312 6.75065 7.57404C7.28445 7.42529 7.85444 7.50195 8.33874 7.79274C8.82467 8.08452 9.1902 8.57241 9.34116 9.15833C9.49228 9.74489 9.41218 10.3688 9.12304 10.8896C8.83453 11.4093 8.36638 11.7769 7.83139 11.926C7.29759 12.0747 6.72759 11.9981 6.24329 11.7073C5.75736 11.4155 5.39183 10.9276 5.24087 10.3417C5.08975 9.75511 5.16985 9.13122 5.459 8.61037L5.459 8.61037Z" stroke="#FFE34E" stroke-width="2"/>
<path d="M17.5848 19.4974L16.6031 19.6875L16.7599 20.4974H17.5848V19.4974ZM21.6144 18.4033L22.5652 18.0936L22.5652 18.0936L21.6144 18.4033ZM15.3965 15.9338L14.7766 15.1491L13.6806 16.0149L14.8534 16.7735L15.3965 15.9338ZM20.7474 18.4974H17.5848V20.4974H20.7474V18.4974ZM20.6635 18.713C20.6577 18.695 20.6526 18.6609 20.6608 18.6196C20.6686 18.5806 20.685 18.551 20.7005 18.532C20.7302 18.4956 20.7545 18.4974 20.7474 18.4974V20.4974C21.8963 20.4974 23.0002 19.429 22.5652 18.0936L20.6635 18.713ZM17.7081 16.1641C19.4635 16.1641 20.2755 17.5216 20.6635 18.713L22.5652 18.0936C22.117 16.7175 20.8511 14.1641 17.7081 14.1641V16.1641ZM16.0164 16.7185C16.4243 16.3962 16.9611 16.1641 17.7081 16.1641V14.1641C16.4969 14.1641 15.5262 14.557 14.7766 15.1491L16.0164 16.7185ZM14.8534 16.7735C15.954 17.4854 16.4179 18.7314 16.6031 19.6875L18.5666 19.3073C18.3432 18.1539 17.7219 16.247 15.9396 15.0941L14.8534 16.7735Z" fill="#FFE34E"/>
<path d="M9.60378 15.9338L10.1469 16.7735L11.3197 16.0149L10.2236 15.1491L9.60378 15.9338ZM3.3859 18.4033L4.33673 18.713H4.33673L3.3859 18.4033ZM7.41542 19.4974V20.4974H8.24034L8.39718 19.6875L7.41542 19.4974ZM7.29215 16.1641C8.03914 16.1641 8.57595 16.3962 8.98391 16.7185L10.2236 15.1491C9.47404 14.557 8.50338 14.1641 7.29215 14.1641V16.1641ZM4.33673 18.713C4.7248 17.5216 5.53675 16.1641 7.29215 16.1641V14.1641C4.14924 14.1641 2.88332 16.7175 2.43507 18.0936L4.33673 18.713ZM4.25286 18.4974C4.24579 18.4974 4.27002 18.4956 4.29975 18.532C4.31525 18.551 4.3317 18.5806 4.33947 18.6196C4.34768 18.6609 4.34259 18.695 4.33673 18.713L2.43507 18.0936C2.00007 19.429 3.104 20.4974 4.25286 20.4974V18.4974ZM7.41542 18.4974H4.25286V20.4974H7.41542V18.4974ZM8.39718 19.6875C8.58234 18.7314 9.04626 17.4853 10.1469 16.7735L9.06067 15.0941C7.27833 16.247 6.65701 18.1539 6.43366 19.3073L8.39718 19.6875Z" fill="#FFE34E"/>
<path d="M12.4993 15.1641C16.2849 15.1641 17.319 18.0255 17.6015 19.5889C17.6997 20.1324 17.26 20.5807 16.7077 20.5807H8.29102C7.73873 20.5807 7.29899 20.1324 7.39719 19.5889C7.67969 18.0255 8.71381 15.1641 12.4993 15.1641Z" stroke="#FFE34E" stroke-width="2" stroke-linecap="round"/>
</svg>