<svg width="24" height="24" viewBox="0 0 24 24" fill="none" xmlns="http://www.w3.org/2000/svg">
<path d="M2.03649 22.2746H3.40899L18.3812 7.3154L16.9957 5.9299L2.03649 20.9021V22.2746ZM21.6391 6.21118L18.0999 2.67199L19.5219 1.25003C19.8188 0.953135 20.1821 0.804688 20.6118 0.804688C21.0415 0.804688 21.4048 0.953135 21.7016 1.25003L23.0611 2.60946C23.358 2.90635 23.5042 3.26965 23.4999 3.69936C23.4956 4.12906 23.345 4.49669 23.0481 4.80225L21.6391 6.21118ZM20.5557 7.28154L4.02619 23.8111H0.5V20.2849L17.0296 3.75535L20.5557 7.28154ZM17.6885 6.60963L16.9957 5.9299L18.3812 7.3154L17.6885 6.60963Z" fill="#FFE34E"/>
</svg>
