<svg width="24" height="31" viewBox="0 0 24 31" fill="none" xmlns="http://www.w3.org/2000/svg">
<path d="M7.67382 14.2451C8.07999 13.6215 8.69055 13.0985 9.50551 12.6759C10.3205 12.2533 11.1735 12.042 12.0646 12.042C13.6236 12.042 14.9072 12.5487 15.9154 13.562C16.9236 14.5754 17.4277 15.8615 17.4277 17.4205C17.4277 18.9795 16.9236 20.2697 15.9154 21.2913C14.9072 22.3128 13.6248 22.8236 12.0681 22.8236C10.9627 22.8236 9.97411 22.5539 9.10243 22.0145C8.23075 21.4751 7.56685 20.7622 7.11074 19.8759C7.00922 19.7067 6.85371 19.5773 6.64422 19.4875C6.43473 19.3977 6.2405 19.4041 6.06154 19.5066C5.84615 19.6092 5.70768 19.7656 5.64614 19.9759C5.58462 20.1861 5.60514 20.3907 5.7077 20.5897C6.33333 21.8 7.20306 22.74 8.31691 23.4097C9.43078 24.0795 10.68 24.4143 12.0646 24.4143C14.0215 24.4143 15.6739 23.7379 17.0215 22.3851C18.3692 21.0323 19.0431 19.3748 19.0431 17.4128C19.0431 15.4508 18.3692 13.7959 17.0215 12.4482C15.6739 11.1005 14.0215 10.4266 12.0646 10.4266C10.8544 10.4266 9.77898 10.6928 8.83847 11.2251C7.89796 11.7574 7.13334 12.3651 6.54462 13.0482V10.9528C6.54462 10.7538 6.47231 10.5856 6.3277 10.4482C6.18309 10.3108 6.01334 10.242 5.81846 10.242C5.6195 10.242 5.44463 10.3108 5.29386 10.4482C5.14308 10.5856 5.0677 10.7538 5.0677 10.9528V14.8174C5.0677 15.0472 5.15847 15.2528 5.34002 15.4343C5.52156 15.6159 5.72721 15.7066 5.95694 15.7066H9.88615C10.0851 15.7066 10.2533 15.6312 10.3908 15.4805C10.5282 15.3297 10.5969 15.1548 10.5969 14.9559C10.5969 14.7569 10.5282 14.5887 10.3908 14.4513C10.2533 14.3138 10.0851 14.2451 9.88615 14.2451H7.67382ZM2.30773 30.9313C1.68029 30.9313 1.1388 30.7035 0.683282 30.248C0.22776 29.7925 0 29.251 0 28.6235V2.83898C0 2.21154 0.22776 1.67006 0.683282 1.21453C1.1388 0.759012 1.68029 0.53125 2.30773 0.53125H13.9323C14.242 0.53125 14.5425 0.595359 14.8338 0.723572C15.1251 0.851786 15.3774 1.01743 15.5908 1.22049L23.3108 8.94048C23.5138 9.15381 23.6795 9.40612 23.8077 9.6974C23.9359 9.98871 24 10.2892 24 10.599V28.6235C24 29.251 23.7722 29.7925 23.3167 30.248C22.8612 30.7035 22.3197 30.9313 21.6923 30.9313H2.30773ZM2.30773 29.1159H21.6923C21.8154 29.1159 21.9282 29.0646 22.0308 28.9621C22.1333 28.8595 22.1846 28.7466 22.1846 28.6235V10.4636L14.0677 2.34662H2.30773C2.18463 2.34662 2.07179 2.3979 1.96921 2.50046C1.86665 2.60305 1.81537 2.71588 1.81537 2.83898V28.6235C1.81537 28.7466 1.86665 28.8595 1.96921 28.9621C2.07179 29.0646 2.18463 29.1159 2.30773 29.1159Z" fill="#FFE34E"/>
</svg>
