<svg width="28" height="23" viewBox="0 0 28 23" fill="none" xmlns="http://www.w3.org/2000/svg">
<path d="M2.54962 22.2455C1.99236 22.2455 1.51144 22.0432 1.10686 21.6386C0.702287 21.234 0.5 20.7531 0.5 20.1958V2.97931C0.5 2.42204 0.702287 1.94113 1.10686 1.53655C1.51144 1.13198 1.99236 0.929688 2.54962 0.929688H25.4504C26.0076 0.929688 26.4886 1.13198 26.8931 1.53655C27.2977 1.94113 27.5 2.42204 27.5 2.97931V20.1958C27.5 20.7531 27.2977 21.234 26.8931 21.6386C26.4886 22.0432 26.0076 22.2455 25.4504 22.2455H2.54962ZM14 11.8034L2.11233 3.93572V20.1958C2.11233 20.3234 2.15333 20.4281 2.23532 20.5101C2.31732 20.5921 2.42209 20.6331 2.54962 20.6331H25.4504C25.5779 20.6331 25.6827 20.5921 25.7647 20.5101C25.8467 20.4281 25.8877 20.3234 25.8877 20.1958V3.93572L14 11.8034ZM14 10.1091L25.5679 2.54202H2.46759L14 10.1091ZM2.11233 3.93572V2.54202V20.1958C2.11233 20.3234 2.15333 20.4281 2.23532 20.5101C2.31732 20.5921 2.42209 20.6331 2.54962 20.6331H2.11233V3.93572Z" fill="#FFE34E"/>
</svg>
