<svg width="70" height="70" viewBox="-2 -8 46 45" fill="none" xmlns="http://www.w3.org/2000/svg">
<g id="Frame 124">
<path id="Vector" fill-rule="evenodd" clip-rule="evenodd" d="M21.0849 6.42371H30.6594C30.9133 6.42371 31.1569 6.52597 31.3364 6.70799C31.516 6.89001 31.6169 7.13689 31.6169 7.3943C31.6169 7.65172 31.516 7.89859 31.3364 8.08061C31.1569 8.26263 30.9133 8.36489 30.6594 8.36489H21.0849C20.831 8.36489 20.5875 8.26263 20.4079 8.08061C20.2284 7.89859 20.1275 7.65172 20.1275 7.3943C20.1275 7.13689 20.2284 6.89001 20.4079 6.70799C20.5875 6.52597 20.831 6.42371 21.0849 6.42371ZM21.0849 13.2178H30.6594C30.9133 13.2178 31.1569 13.3201 31.3364 13.5021C31.516 13.6841 31.6169 13.931 31.6169 14.1884C31.6169 14.4458 31.516 14.6927 31.3364 14.8747C31.1569 15.0567 30.9133 15.159 30.6594 15.159H21.0849C20.831 15.159 20.5875 15.0567 20.4079 14.8747C20.2284 14.6927 20.1275 14.4458 20.1275 14.1884C20.1275 13.931 20.2284 13.6841 20.4079 13.5021C20.5875 13.3201 20.831 13.2178 21.0849 13.2178ZM21.0849 20.0119H30.6594C30.9133 20.0119 31.1569 20.1142 31.3364 20.2962C31.516 20.4782 31.6169 20.7251 31.6169 20.9825C31.6169 21.24 31.516 21.4868 31.3364 21.6688C31.1569 21.8509 30.9133 21.9531 30.6594 21.9531H21.0849C20.831 21.9531 20.5875 21.8509 20.4079 21.6688C20.2284 21.4868 20.1275 21.24 20.1275 20.9825C20.1275 20.7251 20.2284 20.4782 20.4079 20.2962C20.5875 20.1142 20.831 20.0119 21.0849 20.0119ZM16.2977 9.33548C15.7898 9.33548 15.3028 9.13096 14.9437 8.76692C14.5846 8.40288 14.3828 7.90913 14.3828 7.3943C14.3828 6.87947 14.5846 6.38572 14.9437 6.02168C15.3028 5.65764 15.7898 5.45312 16.2977 5.45312C16.8056 5.45312 17.2926 5.65764 17.6517 6.02168C18.0109 6.38572 18.2126 6.87947 18.2126 7.3943C18.2126 7.90913 18.0109 8.40288 17.6517 8.76692C17.2926 9.13096 16.8056 9.33548 16.2977 9.33548ZM16.2977 16.1296C15.7898 16.1296 15.3028 15.9251 14.9437 15.561C14.5846 15.197 14.3828 14.7033 14.3828 14.1884C14.3828 13.6736 14.5846 13.1798 14.9437 12.8158C15.3028 12.4518 15.7898 12.2472 16.2977 12.2472C16.8056 12.2472 17.2926 12.4518 17.6517 12.8158C18.0109 13.1798 18.2126 13.6736 18.2126 14.1884C18.2126 14.7033 18.0109 15.197 17.6517 15.561C17.2926 15.9251 16.8056 16.1296 16.2977 16.1296ZM16.2977 22.9237C15.7898 22.9237 15.3028 22.7192 14.9437 22.3552C14.5846 21.9911 14.3828 21.4974 14.3828 20.9825C14.3828 20.4677 14.5846 19.974 14.9437 19.6099C15.3028 19.2459 15.7898 19.0414 16.2977 19.0414C16.8056 19.0414 17.2926 19.2459 17.6517 19.6099C18.0109 19.974 18.2126 20.4677 18.2126 20.9825C18.2126 21.4974 18.0109 21.9911 17.6517 22.3552C17.2926 22.7192 16.8056 22.9237 16.2977 22.9237Z" fill="#2F2F2F"/>
</g>
</svg>
