<svg xmlns="http://www.w3.org/2000/svg" width="40" height="40" viewBox="2 -13 20 50" fill="none">
<path d="M0.0195312 2.26562C0.0195312 1.02298 1.02689 0.015625 2.26953 0.015625C3.51217 0.015625 4.51953 1.02298 4.51953 2.26562V2.51562C4.51953 3.75827 3.51217 4.76562 2.26953 4.76562C1.02689 4.76562 0.0195312 3.75827 0.0195312 2.51562V2.26562ZM13.5195 2.26562C13.5195 1.02298 14.5269 0.015625 15.7695 0.015625C17.0122 0.015625 18.0195 1.02298 18.0195 2.26562V2.51562C18.0195 3.75827 17.0122 4.76562 15.7695 4.76562C14.5269 4.76562 13.5195 3.75827 13.5195 2.51562V2.26562ZM6.76953 2.26562C6.76953 1.02298 7.77689 0.015625 9.01953 0.015625C10.2622 0.015625 11.2695 1.02298 11.2695 2.26562V2.51562C11.2695 3.75827 10.2622 4.76562 9.01953 4.76562C7.77689 4.76562 6.76953 3.75827 6.76953 2.51562V2.26562ZM0.0195312 16.5156C0.0195312 15.273 1.02689 14.2656 2.26953 14.2656C3.51217 14.2656 4.51953 15.273 4.51953 16.5156V16.7656C4.51953 18.0083 3.51217 19.0156 2.26953 19.0156C1.02689 19.0156 0.0195312 18.0083 0.0195312 16.7656V16.5156ZM13.5195 16.5156C13.5195 15.273 14.5269 14.2656 15.7695 14.2656C17.0122 14.2656 18.0195 15.273 18.0195 16.5156V16.7656C18.0195 18.0083 17.0122 19.0156 15.7695 19.0156C14.5269 19.0156 13.5195 18.0083 13.5195 16.7656V16.5156ZM6.76953 16.5156C6.76953 15.273 7.77689 14.2656 9.01953 14.2656C10.2622 14.2656 11.2695 15.273 11.2695 16.5156V16.7656C11.2695 18.0083 10.2622 19.0156 9.01953 19.0156C7.77689 19.0156 6.76953 18.0083 6.76953 16.7656V16.5156ZM0.0195312 9.39062C0.0195312 8.14798 1.02689 7.14062 2.26953 7.14062C3.51217 7.14062 4.51953 8.14798 4.51953 9.39062V9.64062C4.51953 10.8833 3.51217 11.8906 2.26953 11.8906C1.02689 11.8906 0.0195312 10.8833 0.0195312 9.64062V9.39062ZM13.5195 9.39062C13.5195 8.14798 14.5269 7.14062 15.7695 7.14062C17.0122 7.14062 18.0195 8.14798 18.0195 9.39062V9.64062C18.0195 10.8833 17.0122 11.8906 15.7695 11.8906C14.5269 11.8906 13.5195 10.8833 13.5195 9.64062V9.39062ZM6.76953 9.39062C6.76953 8.14798 7.77689 7.14062 9.01953 7.14062C10.2622 7.14062 11.2695 8.14798 11.2695 9.39062V9.64062C11.2695 10.8833 10.2622 11.8906 9.01953 11.8906C7.77689 11.8906 6.76953 10.8833 6.76953 9.64062V9.39062Z" fill="#F4F4F4"/>
</svg>