<svg xmlns="http://www.w3.org/2000/svg" width="46" height="34" viewBox="0 0 46 34" fill="none">
<g opacity="0.5">
<path fill-rule="evenodd" clip-rule="evenodd" d="M21.0849 6.09559H30.6594C30.9133 6.09559 31.1569 6.19785 31.3364 6.37987C31.516 6.56189 31.6169 6.80876 31.6169 7.06618C31.6169 7.32359 31.516 7.57047 31.3364 7.75249C31.1569 7.93451 30.9133 8.03676 30.6594 8.03676H21.0849C20.831 8.03676 20.5875 7.93451 20.4079 7.75249C20.2284 7.57047 20.1275 7.32359 20.1275 7.06618C20.1275 6.80876 20.2284 6.56189 20.4079 6.37987C20.5875 6.19785 20.831 6.09559 21.0849 6.09559ZM21.0849 12.8897H30.6594C30.9133 12.8897 31.1569 12.992 31.3364 13.174C31.516 13.356 31.6169 13.6029 31.6169 13.8603C31.6169 14.1177 31.516 14.3646 31.3364 14.5466C31.1569 14.7286 30.9133 14.8309 30.6594 14.8309H21.0849C20.831 14.8309 20.5875 14.7286 20.4079 14.5466C20.2284 14.3646 20.1275 14.1177 20.1275 13.8603C20.1275 13.6029 20.2284 13.356 20.4079 13.174C20.5875 12.992 20.831 12.8897 21.0849 12.8897ZM21.0849 19.6838H30.6594C30.9133 19.6838 31.1569 19.7861 31.3364 19.9681C31.516 20.1501 31.6169 20.397 31.6169 20.6544C31.6169 20.9118 31.516 21.1587 31.3364 21.3407C31.1569 21.5227 30.9133 21.625 30.6594 21.625H21.0849C20.831 21.625 20.5875 21.5227 20.4079 21.3407C20.2284 21.1587 20.1275 20.9118 20.1275 20.6544C20.1275 20.397 20.2284 20.1501 20.4079 19.9681C20.5875 19.7861 20.831 19.6838 21.0849 19.6838ZM16.2977 9.00735C15.7898 9.00735 15.3028 8.80284 14.9437 8.4388C14.5846 8.07475 14.3828 7.58101 14.3828 7.06618C14.3828 6.55134 14.5846 6.0576 14.9437 5.69356C15.3028 5.32952 15.7898 5.125 16.2977 5.125C16.8056 5.125 17.2926 5.32952 17.6517 5.69356C18.0109 6.0576 18.2126 6.55134 18.2126 7.06618C18.2126 7.58101 18.0109 8.07475 17.6517 8.4388C17.2926 8.80284 16.8056 9.00735 16.2977 9.00735ZM16.2977 15.8015C15.7898 15.8015 15.3028 15.597 14.9437 15.2329C14.5846 14.8689 14.3828 14.3751 14.3828 13.8603C14.3828 13.3455 14.5846 12.8517 14.9437 12.4877C15.3028 12.1236 15.7898 11.9191 16.2977 11.9191C16.8056 11.9191 17.2926 12.1236 17.6517 12.4877C18.0109 12.8517 18.2126 13.3455 18.2126 13.8603C18.2126 14.3751 18.0109 14.8689 17.6517 15.2329C17.2926 15.597 16.8056 15.8015 16.2977 15.8015ZM16.2977 22.5956C15.7898 22.5956 15.3028 22.3911 14.9437 22.027C14.5846 21.663 14.3828 21.1692 14.3828 20.6544C14.3828 20.1396 14.5846 19.6458 14.9437 19.2818C15.3028 18.9178 15.7898 18.7132 16.2977 18.7132C16.8056 18.7132 17.2926 18.9178 17.6517 19.2818C18.0109 19.6458 18.2126 20.1396 18.2126 20.6544C18.2126 21.1692 18.0109 21.663 17.6517 22.027C17.2926 22.3911 16.8056 22.5956 16.2977 22.5956Z" fill="#F4F4F4"/>
</g>
</svg>