<svg xmlns="http://www.w3.org/2000/svg" width="19" height="19" viewBox="0 0 34 34" fill="none">
  <path d="M17 28.1923L24.3077 20.8846L22.2 18.777L18.5 22.477V13.5769H15.5V22.477L11.8 18.777L9.69233 20.8846L17 28.1923ZM2.99996 8.80768V30.3846C2.99996 30.5641 3.05766 30.7115 3.17306 30.8269C3.28846 30.9423 3.43591 31 3.61541 31H30.3846C30.5641 31 30.7115 30.9423 30.8269 30.8269C30.9423 30.7115 31 30.5641 31 30.3846V8.80768H2.99996ZM3.76926 34C2.77182 34 1.89425 33.6211 1.13655 32.8634C0.37885 32.1057 0 31.2282 0 30.2307V7.01157C0 6.58337 0.0686001 6.17503 0.2058 5.78657C0.342968 5.39813 0.548734 5.03981 0.823102 4.71161L3.63081 1.31541C3.95901 0.887205 4.36926 0.560919 4.86156 0.336552C5.35386 0.112185 5.87438 0 6.42312 0H27.5384C28.0871 0 28.6108 0.112185 29.1096 0.336552C29.6083 0.560919 30.0217 0.887205 30.3499 1.31541L33.1769 4.75007C33.4513 5.07827 33.657 5.4398 33.7942 5.83467C33.9314 6.22953 34 6.64107 34 7.06927V30.2307C34 31.2282 33.6211 32.1057 32.8634 32.8634C32.1057 33.6211 31.2282 34 30.2307 34H3.76926ZM3.78071 5.80772H30.2L28.0192 3.21151C27.9551 3.14741 27.8814 3.09613 27.7981 3.05766C27.7147 3.01919 27.6282 2.99996 27.5384 2.99996H6.44237C6.3526 2.99996 6.26605 3.01919 6.18272 3.05766C6.09938 3.09613 6.02565 3.14741 5.96152 3.21151L3.78071 5.80772Z" fill="url(#paint0_linear_6417_5677)"/>
  <defs>
    <linearGradient id="paint0_linear_6417_5677" x1="13.3418" y1="-3.98101" x2="34" y2="30.7722" gradientUnits="userSpaceOnUse">
      <stop stop-color="#DEBF1A"/>
      <stop offset="0.408854" stop-color="#F2E28A"/>
      <stop offset="0.692708" stop-color="#CDB016"/>
      <stop offset="1" stop-color="#EDDA75"/>
    </linearGradient>
  </defs>
</svg>