<svg  width="current" height="current" viewBox="0 0 275 276" fill="none" xmlns="http://www.w3.org/2000/svg">
<path d="M-1 10C-1 4.47715 3.47715 0 9 0H266C271.523 0 276 4.47715 276 10V276H-1V10Z" fill="#F4F4F4"/>
<path d="M163.501 161.656H111.501C108.126 161.656 105.501 159.031 105.501 155.656V119.656C105.501 116.406 108.126 113.656 111.501 113.656H163.501C166.751 113.656 169.501 116.406 169.501 119.656V155.656C169.501 159.031 166.751 161.656 163.501 161.656ZM119.501 120.656C115.626 120.656 112.501 123.906 112.501 127.656C112.501 131.531 115.626 134.656 119.501 134.656C123.251 134.656 126.501 131.531 126.501 127.656C126.501 123.906 123.251 120.656 119.501 120.656ZM113.501 153.656H161.501V139.656L150.501 128.781C149.876 128.156 149.001 128.156 148.376 128.781L131.501 145.656L124.501 138.781C123.876 138.156 123.001 138.156 122.376 138.781L113.501 147.656V153.656Z" fill="#2F2F2F"/>
</svg>
