<?xml version="1.0" encoding="utf-8"?>
<!-- Uploaded to: SVG Repo, www.svgrepo.com, Generator: SVG Repo Mixer Tools -->
<svg width="800px" height="800px" viewBox="0 0 32 32" fill="none" xmlns="http://www.w3.org/2000/svg">
<g clip-path="url(#clip0_901_2807)">
<path d="M31 5V30C31 30.55 30.55 31 30 31H2C1.45 31 1 30.55 1 30V5C1 4.45 1.45 4 2 4H6V6C6 6.55 6.45 7 7 7H9C9.55 7 10 6.55 10 6V4H22V6C22 6.55 22.45 7 23 7H25C25.55 7 26 6.55 26 6V4H30C30.55 4 31 4.45 31 5Z" fill="#FFC44D"/>
<path d="M26 6C26 6.55 25.55 7 25 7H23C22.45 7 22 6.55 22 6V4V2C22 1.45 22.45 1 23 1H25C25.55 1 26 1.45 26 2V4V6ZM10 6C10 6.55 9.55 7 9 7H7C6.45 7 6 6.55 6 6V4V2C6 1.45 6.45 1 7 1H9C9.55 1 10 1.45 10 2V4V6Z" fill="#668077"/>
<path d="M26 4H30C30.553 4 31 4.447 31 5V30C31 30.553 30.553 31 30 31H2C1.447 31 1 30.553 1 30V5C1 4.447 1.447 4 2 4H3M10 4H19M7 13H9M7 19H9M7 25H9M15 13H17M15 19H17M15 25H17M23 13H25M23 19H25M23 25H25M10 6C10 6.553 9.553 7 9 7H7C6.447 7 6 6.553 6 6V2C6 1.447 6.447 1 7 1H9C9.553 1 10 1.447 10 2V6ZM26 6C26 6.553 25.553 7 25 7H23C22.447 7 22 6.553 22 6V2C22 1.447 22.447 1 23 1H25C25.553 1 26 1.447 26 2V6Z" stroke="#000000" stroke-width="2" stroke-linecap="round" stroke-linejoin="round"/>
</g>
<defs>
<clipPath id="clip0_901_2807">
<rect width="32" height="32" fill="white"/>
</clipPath>
</defs>
</svg>