<svg width="19" height="19" viewBox="0 0 19 19" fill="none" xmlns="http://www.w3.org/2000/svg">
<path d="M12.8164 9.625L17.6992 14.5566C18.334 15.1426 18.334 16.1191 17.6992 16.7051L16.625 17.7793C16.0391 18.4141 15.0625 18.4141 14.4766 17.7793L9.59375 12.8965L4.66211 17.7793C4.07617 18.4141 3.09961 18.4141 2.51367 17.7793L1.43945 16.7051C0.804688 16.1191 0.804688 15.1426 1.43945 14.5566L6.32227 9.625L1.43945 4.74219C0.804688 4.15625 0.804688 3.17969 1.43945 2.59375L2.51367 1.51953C3.09961 0.884766 4.07617 0.884766 4.66211 1.51953L9.59375 6.40234L14.4766 1.51953C15.0625 0.884766 16.0391 0.884766 16.625 1.51953L17.6992 2.59375C18.334 3.17969 18.334 4.15625 17.6992 4.74219L12.8164 9.625Z" fill="url(#paint0_linear_8641_6828)"/>
<defs>
<linearGradient id="paint0_linear_8641_6828" x1="8.06329" y1="-8.39557" x2="28.1027" y2="12.5292" gradientUnits="userSpaceOnUse">
<stop stop-color="#DEBF1A"/>
<stop offset="0.408854" stop-color="#F2E28A"/>
<stop offset="0.692708" stop-color="#CDB016"/>
<stop offset="1" stop-color="#EDDA75"/>
</linearGradient>
</defs>
</svg>
