<svg width="30" height="30" viewBox="0 0 30 30" fill="none" xmlns="http://www.w3.org/2000/svg">
<path d="M28.2012 20.3783L18.6137 4.47828C18.226 3.8718 17.6919 3.37268 17.0605 3.02695C16.4292 2.68122 15.721 2.5 15.0012 2.5C14.2814 2.5 13.5732 2.68122 12.9418 3.02695C12.3105 3.37268 11.7764 3.8718 11.3887 4.47828L1.80119 20.3783C1.46251 20.9428 1.27843 21.5866 1.26746 22.2449C1.25649 22.9032 1.41901 23.5527 1.73869 24.1283C2.10829 24.7761 2.64327 25.3142 3.28894 25.6875C3.93462 26.0609 4.66785 26.2561 5.41369 26.2533H24.5887C25.3296 26.2612 26.0596 26.0735 26.7048 25.7092C27.35 25.3449 27.8877 24.8168 28.2637 24.1783C28.5928 23.5968 28.7605 22.9379 28.7495 22.2698C28.7385 21.6017 28.5492 20.9487 28.2012 20.3783ZM15.0012 21.2533C14.754 21.2533 14.5123 21.18 14.3067 21.0426C14.1012 20.9053 13.941 20.71 13.8463 20.4816C13.7517 20.2532 13.727 20.0019 13.7752 19.7594C13.8234 19.5169 13.9425 19.2942 14.1173 19.1194C14.2921 18.9446 14.5149 18.8255 14.7573 18.7773C14.9998 18.7291 15.2511 18.7538 15.4795 18.8484C15.708 18.943 15.9032 19.1033 16.0405 19.3088C16.1779 19.5144 16.2512 19.7561 16.2512 20.0033C16.2512 20.3348 16.1195 20.6527 15.8851 20.8872C15.6507 21.1216 15.3327 21.2533 15.0012 21.2533ZM16.2512 16.2533C16.2512 16.5848 16.1195 16.9027 15.8851 17.1372C15.6507 17.3716 15.3327 17.5033 15.0012 17.5033C14.6697 17.5033 14.3517 17.3716 14.1173 17.1372C13.8829 16.9027 13.7512 16.5848 13.7512 16.2533V11.2533C13.7512 10.9218 13.8829 10.6038 14.1173 10.3694C14.3517 10.135 14.6697 10.0033 15.0012 10.0033C15.3327 10.0033 15.6507 10.135 15.8851 10.3694C16.1195 10.6038 16.2512 10.9218 16.2512 11.2533V16.2533Z" fill="#FF6464"/>
</svg>
