<svg width="24" height="18" viewBox="0 0 24 18" fill="none" xmlns="http://www.w3.org/2000/svg">
<g id="&#240;&#159;&#166;&#134; icon &#34;eye&#34;">
<path id="Vector" d="M12.09 0C4.5 0 0 9 0 9C0 9 4.5 18 12.09 18C19.5 18 24 9 24 9C24 9 19.5 0 12.09 0ZM12 3C15.33 3 18 5.7 18 9C18 12.33 15.33 15 12 15C8.7 15 6 12.33 6 9C6 5.7 8.7 3 12 3ZM12 6C10.35 6 9 7.35 9 9C9 10.65 10.35 12 12 12C13.65 12 15 10.65 15 9C15 8.7 14.88 8.43 14.82 8.16C14.58 8.64 14.1 9 13.5 9C12.66 9 12 8.34 12 7.5C12 6.9 12.36 6.42 12.84 6.18C12.57 6.09 12.3 6 12 6Z" fill="url(#paint0_linear_4243_15697)"/>
</g>
<defs>
<linearGradient id="paint0_linear_4243_15697" x1="9.41772" y1="-2.1076" x2="18.678" y2="18.6638" gradientUnits="userSpaceOnUse">
<stop stop-color="#DEBF1A"/>
<stop offset="0.408854" stop-color="#F2E28A"/>
<stop offset="0.692708" stop-color="#CDB016"/>
<stop offset="1" stop-color="#EDDA75"/>
</linearGradient>
</defs>
</svg>
