<svg width="20" height="21" viewBox="0 0 20 21" fill="none" xmlns="http://www.w3.org/2000/svg">
<path d="M12.2222 20.5V18.1571C13.8889 17.6619 15.2315 16.7095 16.25 15.3C17.2685 13.8905 17.7778 12.2905 17.7778 10.5C17.7778 8.70952 17.2685 7.10952 16.25 5.7C15.2315 4.29048 13.8889 3.3381 12.2222 2.84286V0.5C14.5185 1.03333 16.3889 2.22857 17.8333 4.08571C19.2778 5.94286 20 8.08095 20 10.5C20 12.919 19.2778 15.0571 17.8333 16.9143C16.3889 18.7714 14.5185 19.9667 12.2222 20.5ZM0 13.9571V7.1H4.44444L10 1.38571V19.6714L4.44444 13.9571H0ZM12.2222 15.1V5.9C13.0926 6.31905 13.7731 6.94762 14.2639 7.78571C14.7546 8.62381 15 9.5381 15 10.5286C15 11.5 14.7546 12.4 14.2639 13.2286C13.7731 14.0571 13.0926 14.681 12.2222 15.1ZM7.77778 6.92857L5.38889 9.38571H2.22222V11.6714H5.38889L7.77778 14.1286V6.92857Z" fill="#F4F4F4"/>
</svg>
