<svg width="40" height="40" viewBox="-1 -13 20 50" fill="none" xmlns="http://www.w3.org/2000/svg">
<path id="Vector" d="M0.0195312 2.9375C0.0195312 1.69486 1.02689 0.6875 2.26953 0.6875C3.51217 0.6875 4.51953 1.69486 4.51953 2.9375V3.1875C4.51953 4.43014 3.51217 5.4375 2.26953 5.4375C1.02689 5.4375 0.0195312 4.43014 0.0195312 3.1875V2.9375ZM13.5195 2.9375C13.5195 1.69486 14.5269 0.6875 15.7695 0.6875C17.0122 0.6875 18.0195 1.69486 18.0195 2.9375V3.1875C18.0195 4.43014 17.0122 5.4375 15.7695 5.4375C14.5269 5.4375 13.5195 4.43014 13.5195 3.1875V2.9375ZM6.76953 2.9375C6.76953 1.69486 7.77689 0.6875 9.01953 0.6875C10.2622 0.6875 11.2695 1.69486 11.2695 2.9375V3.1875C11.2695 4.43014 10.2622 5.4375 9.01953 5.4375C7.77689 5.4375 6.76953 4.43014 6.76953 3.1875V2.9375ZM0.0195312 17.1875C0.0195312 15.9449 1.02689 14.9375 2.26953 14.9375C3.51217 14.9375 4.51953 15.9449 4.51953 17.1875V17.4375C4.51953 18.6801 3.51217 19.6875 2.26953 19.6875C1.02689 19.6875 0.0195312 18.6801 0.0195312 17.4375V17.1875ZM13.5195 17.1875C13.5195 15.9449 14.5269 14.9375 15.7695 14.9375C17.0122 14.9375 18.0195 15.9449 18.0195 17.1875V17.4375C18.0195 18.6801 17.0122 19.6875 15.7695 19.6875C14.5269 19.6875 13.5195 18.6801 13.5195 17.4375V17.1875ZM6.76953 17.1875C6.76953 15.9449 7.77689 14.9375 9.01953 14.9375C10.2622 14.9375 11.2695 15.9449 11.2695 17.1875V17.4375C11.2695 18.6801 10.2622 19.6875 9.01953 19.6875C7.77689 19.6875 6.76953 18.6801 6.76953 17.4375V17.1875ZM0.0195312 10.0625C0.0195312 8.81986 1.02689 7.8125 2.26953 7.8125C3.51217 7.8125 4.51953 8.81986 4.51953 10.0625V10.3125C4.51953 11.5551 3.51217 12.5625 2.26953 12.5625C1.02689 12.5625 0.0195312 11.5551 0.0195312 10.3125V10.0625ZM13.5195 10.0625C13.5195 8.81986 14.5269 7.8125 15.7695 7.8125C17.0122 7.8125 18.0195 8.81986 18.0195 10.0625V10.3125C18.0195 11.5551 17.0122 12.5625 15.7695 12.5625C14.5269 12.5625 13.5195 11.5551 13.5195 10.3125V10.0625ZM6.76953 10.0625C6.76953 8.81986 7.77689 7.8125 9.01953 7.8125C10.2622 7.8125 11.2695 8.81986 11.2695 10.0625V10.3125C11.2695 11.5551 10.2622 12.5625 9.01953 12.5625C7.77689 12.5625 6.76953 11.5551 6.76953 10.3125V10.0625Z" fill="#2F2F2F"/>
</svg>
