<svg xmlns="http://www.w3.org/2000/svg" width="10" height="37" viewBox="0 0 10 37" fill="none">
<path d="M0 4.58333C0 2.05203 2.05203 0 4.58333 0H5.41667C7.94797 0 10 2.05203 10 4.58333C10 7.11464 7.94797 9.16667 5.41667 9.16667H4.58333C2.05203 9.16667 0 7.11464 0 4.58333ZM0 32.0833C0 29.552 2.05203 27.5 4.58333 27.5H5.41667C7.94797 27.5 10 29.552 10 32.0833C10 34.6146 7.94797 36.6667 5.41667 36.6667H4.58333C2.05203 36.6667 0 34.6146 0 32.0833ZM0 18.3333C0 15.802 2.05203 13.75 4.58333 13.75H5.41667C7.94797 13.75 10 15.802 10 18.3333C10 20.8646 7.94797 22.9167 5.41667 22.9167H4.58333C2.05203 22.9167 0 20.8646 0 18.3333Z" fill="#F4F4F4"/>
</svg>