<svg width="19" height="29" viewBox="0 0 19 29" fill="none" xmlns="http://www.w3.org/2000/svg">
<path d="M12.8164 14.625L17.6992 19.5566C18.334 20.1426 18.334 21.1191 17.6992 21.7051L16.625 22.7793C16.0391 23.4141 15.0625 23.4141 14.4766 22.7793L9.59375 17.8965L4.66211 22.7793C4.07617 23.4141 3.09961 23.4141 2.51367 22.7793L1.43945 21.7051C0.804688 21.1191 0.804688 20.1426 1.43945 19.5566L6.32227 14.625L1.43945 9.74219C0.804688 9.15625 0.804688 8.17969 1.43945 7.59375L2.51367 6.51953C3.09961 5.88477 4.07617 5.88477 4.66211 6.51953L9.59375 11.4023L14.4766 6.51953C15.0625 5.88477 16.0391 5.88477 16.625 6.51953L17.6992 7.59375C18.334 8.17969 18.334 9.15625 17.6992 9.74219L12.8164 14.625Z" fill="url(#paint0_linear_7494_6766)"/>
<defs>
<linearGradient id="paint0_linear_7494_6766" x1="8.06329" y1="-3.39557" x2="28.1027" y2="17.5292" gradientUnits="userSpaceOnUse">
<stop stop-color="#DEBF1A"/>
<stop offset="0.408854" stop-color="#F2E28A"/>
<stop offset="0.692708" stop-color="#CDB016"/>
<stop offset="1" stop-color="#EDDA75"/>
</linearGradient>
</defs>
</svg>
