<svg xmlns="http://www.w3.org/2000/svg" width="26" height="26" viewBox="0 0 26 26" fill="none">
<path d="M24.2237 17.5058L15.9881 3.84777C15.6551 3.32681 15.1963 2.89807 14.654 2.60109C14.1116 2.30411 13.5033 2.14844 12.885 2.14844C12.2667 2.14844 11.6583 2.30411 11.116 2.60109C10.5737 2.89807 10.1149 3.32681 9.78185 3.84777L1.54621 17.5058C1.25528 17.9908 1.09715 18.5438 1.08773 19.1093C1.0783 19.6747 1.21791 20.2327 1.49252 20.7271C1.81 21.2836 2.26954 21.7458 2.82418 22.0665C3.37882 22.3872 4.00866 22.5549 4.64933 22.5525H21.1206C21.7571 22.5592 22.3841 22.398 22.9383 22.0851C23.4926 21.7721 23.9545 21.3185 24.2774 20.77C24.5601 20.2705 24.7042 19.7045 24.6947 19.1306C24.6853 18.5567 24.5227 17.9958 24.2237 17.5058ZM12.885 18.2575C12.6726 18.2575 12.465 18.1945 12.2884 18.0765C12.1119 17.9585 11.9742 17.7908 11.893 17.5946C11.8117 17.3984 11.7904 17.1825 11.8319 16.9742C11.8733 16.766 11.9756 16.5746 12.1257 16.4245C12.2759 16.2743 12.4672 16.172 12.6755 16.1306C12.8838 16.0892 13.0997 16.1104 13.2959 16.1917C13.4921 16.273 13.6598 16.4106 13.7778 16.5872C13.8957 16.7637 13.9587 16.9713 13.9587 17.1837C13.9587 17.4685 13.8456 17.7416 13.6442 17.943C13.4429 18.1443 13.1698 18.2575 12.885 18.2575ZM13.9587 13.9625C13.9587 14.2472 13.8456 14.5204 13.6442 14.7217C13.4429 14.9231 13.1698 15.0362 12.885 15.0362C12.6002 15.0362 12.3271 14.9231 12.1257 14.7217C11.9244 14.5204 11.8112 14.2472 11.8112 13.9625V9.66748C11.8112 9.38271 11.9244 9.1096 12.1257 8.90823C12.3271 8.70686 12.6002 8.59374 12.885 8.59374C13.1698 8.59374 13.4429 8.70686 13.6442 8.90823C13.8456 9.1096 13.9587 9.38271 13.9587 9.66748V13.9625Z" fill="#FF6464"/>
</svg>