<svg xmlns="http://www.w3.org/2000/svg" width="26" height="26" viewBox="0 0 26 26" fill="none">
<path d="M12.8852 2.14844C10.7615 2.14844 8.68553 2.77818 6.91976 3.95803C5.15399 5.13788 3.77775 6.81484 2.96505 8.77686C2.15236 10.7389 1.93972 12.8978 2.35403 14.9807C2.76834 17.0636 3.79098 18.9768 5.29264 20.4784C6.79431 21.9801 8.70754 23.0028 10.7904 23.4171C12.8733 23.8314 15.0322 23.6187 16.9942 22.806C18.9563 21.9933 20.6332 20.6171 21.8131 18.8513C22.9929 17.0856 23.6227 15.0096 23.6227 12.8859C23.6227 11.4758 23.3449 10.0796 22.8053 8.77686C22.2657 7.47413 21.4748 6.29044 20.4777 5.29337C19.4807 4.2963 18.297 3.50539 16.9942 2.96578C15.6915 2.42617 14.2952 2.14844 12.8852 2.14844ZM12.8852 21.4759C11.1862 21.4759 9.52546 20.9721 8.11285 20.0282C6.70023 19.0843 5.59923 17.7428 4.94908 16.1732C4.29892 14.6035 4.12881 12.8764 4.46026 11.2101C4.7917 9.5438 5.60982 8.01321 6.81115 6.81188C8.01248 5.61055 9.54307 4.79243 11.2094 4.46099C12.8757 4.12954 14.6028 4.29965 16.1724 4.94981C17.742 5.59996 19.0836 6.70096 20.0275 8.11357C20.9714 9.52619 21.4752 11.187 21.4752 12.8859C21.4752 15.1641 20.5701 17.349 18.9592 18.9599C17.3483 20.5709 15.1634 21.4759 12.8852 21.4759Z" fill="#28A8EA"/>
<path d="M15.7846 9.01118L11.7258 14.3799L9.97563 12.1143C9.80049 11.8893 9.54316 11.7432 9.26024 11.7079C8.97732 11.6727 8.69199 11.7513 8.46701 11.9264C8.24204 12.1015 8.09585 12.3589 8.06062 12.6418C8.02538 12.9247 8.10397 13.21 8.27911 13.435L10.8883 16.7744C10.9894 16.9023 11.1184 17.0056 11.2653 17.0763C11.4123 17.147 11.5735 17.1833 11.7366 17.1824C11.9006 17.182 12.0623 17.1441 12.2093 17.0715C12.3563 16.9989 12.4848 16.8936 12.5848 16.7636L17.4919 10.3212C17.6656 10.0933 17.7417 9.80584 17.7034 9.52191C17.6651 9.23798 17.5157 8.98088 17.2878 8.80717C17.06 8.63345 16.7725 8.55736 16.4886 8.59562C16.2047 8.63388 15.9476 8.78336 15.7739 9.01118H15.7846Z" fill="#28A8EA"/>
</svg>