<svg xmlns="http://www.w3.org/2000/svg" width="15" height="15" viewBox="0 0 15 15" fill="none">
  <path d="M8.38091 7.50256L11.0684 4.82131C11.1861 4.70362 11.2522 4.544 11.2522 4.37756C11.2522 4.21112 11.1861 4.0515 11.0684 3.93381C10.9507 3.81612 10.7911 3.75 10.6247 3.75C10.4582 3.75 10.2986 3.81612 10.1809 3.93381L7.49966 6.62131L4.81841 3.93381C4.70072 3.81612 4.5411 3.75 4.37466 3.75C4.20822 3.75 4.0486 3.81612 3.93091 3.93381C3.81322 4.0515 3.7471 4.21112 3.7471 4.37756C3.7471 4.544 3.81322 4.70362 3.93091 4.82131L6.61841 7.50256L3.93091 10.1838C3.87233 10.2419 3.82583 10.311 3.7941 10.3872C3.76237 10.4634 3.74603 10.545 3.74603 10.6276C3.74603 10.7101 3.76237 10.7918 3.7941 10.8679C3.82583 10.9441 3.87233 11.0132 3.93091 11.0713C3.98901 11.1299 4.05813 11.1764 4.1343 11.2081C4.21046 11.2398 4.29215 11.2562 4.37466 11.2562C4.45716 11.2562 4.53886 11.2398 4.61502 11.2081C4.69118 11.1764 4.7603 11.1299 4.81841 11.0713L7.49966 8.38381L10.1809 11.0713C10.239 11.1299 10.3081 11.1764 10.3843 11.2081C10.4605 11.2398 10.5421 11.2562 10.6247 11.2562C10.7072 11.2562 10.7889 11.2398 10.865 11.2081C10.9412 11.1764 11.0103 11.1299 11.0684 11.0713C11.127 11.0132 11.1735 10.9441 11.2052 10.8679C11.2369 10.7918 11.2533 10.7101 11.2533 10.6276C11.2533 10.545 11.2369 10.4634 11.2052 10.3872C11.1735 10.311 11.127 10.2419 11.0684 10.1838L8.38091 7.50256Z" fill="url(#paint0_linear_6998_10812)"/>
  <defs>
    <linearGradient id="paint0_linear_6998_10812" x1="6.69191" y1="2.87111" x2="11.2523" y2="10.5441" gradientUnits="userSpaceOnUse">
      <stop stop-color="#DEBF1A"/>
      <stop offset="0.408854" stop-color="#F2E28A"/>
      <stop offset="0.692708" stop-color="#CDB016"/>
      <stop offset="1" stop-color="#EDDA75"/>
    </linearGradient>
  </defs>
</svg>