<svg width="38" height="34" viewBox="0 0 38 34" fill="none" xmlns="http://www.w3.org/2000/svg">
<g id="&#240;&#159;&#166;&#134; icon &#34;cloud upload outline&#34;">
<g id="Group">
<path id="Vector" d="M19.9538 15.9683C19.6067 15.6281 19.1401 15.4375 18.6541 15.4375C18.168 15.4375 17.7014 15.6281 17.3543 15.9683L11.784 21.3529C11.587 21.5155 11.4256 21.7169 11.31 21.9447C11.1944 22.1725 11.1271 22.4217 11.1122 22.6767C11.0973 22.9317 11.1351 23.187 11.2234 23.4267C11.3117 23.6664 11.4485 23.8853 11.6252 24.0697C11.8019 24.2542 12.0148 24.4001 12.2506 24.4985C12.4863 24.5969 12.7398 24.6456 12.9952 24.6416C13.2506 24.6375 13.5024 24.5808 13.7349 24.475C13.9674 24.3692 14.1756 24.2166 14.3464 24.0266L16.7787 21.6685V32.1407C16.7787 32.6331 16.9743 33.1054 17.3226 33.4536C17.6708 33.8018 18.143 33.9975 18.6355 33.9975C19.1279 33.9975 19.6002 33.8018 19.9484 33.4536C20.2966 33.1054 20.4923 32.6331 20.4923 32.1407V21.7614L22.8875 24.1752C23.0601 24.3492 23.2654 24.4873 23.4917 24.5816C23.718 24.6759 23.9607 24.7244 24.2058 24.7244C24.4509 24.7244 24.6936 24.6759 24.9199 24.5816C25.1461 24.4873 25.3515 24.3492 25.5241 24.1752C25.6981 24.0026 25.8363 23.7972 25.9305 23.5709C26.0248 23.3447 26.0733 23.102 26.0733 22.8569C26.0733 22.6118 26.0248 22.3691 25.9305 22.1428C25.8363 21.9165 25.6981 21.7112 25.5241 21.5386L19.9538 15.9683Z" fill="url(#paint0_linear_6998_10815)"/>
<path id="Vector_2" d="M29.1628 8.00465C28.4051 5.81562 26.984 3.9172 25.0971 2.57354C23.2102 1.22988 20.9513 0.507813 18.6349 0.507812C16.3185 0.507813 14.0597 1.22988 12.1727 2.57354C10.2858 3.9172 8.86468 5.81562 8.10705 8.00465C6.43884 8.22808 4.86276 8.90082 3.54739 9.95089C2.23203 11.001 1.22687 12.3889 0.639448 13.9661C0.0520247 15.5434 -0.0955643 17.2507 0.212468 18.9054C0.520501 20.5601 1.27257 22.0999 2.38821 23.3601C2.52297 23.5975 2.70842 23.8022 2.93133 23.9597C3.15425 24.1173 3.40915 24.2237 3.6779 24.2715C3.94665 24.3193 4.22262 24.3072 4.48617 24.2362C4.74973 24.1651 4.99437 24.0368 5.2027 23.8605C5.41102 23.6841 5.57789 23.4639 5.69143 23.2157C5.80496 22.9675 5.86238 22.6973 5.85958 22.4243C5.85677 22.1514 5.79383 21.8824 5.67522 21.6366C5.55661 21.3907 5.38526 21.1741 5.17336 21.002C4.455 20.1989 3.985 19.2046 3.82031 18.1398C3.65562 17.0749 3.80331 15.9852 4.24549 15.0026C4.68766 14.0199 5.40534 13.1867 6.31154 12.6037C7.21775 12.0208 8.27358 11.7132 9.35108 11.7182H9.53676C9.97114 11.7269 10.3948 11.5831 10.7341 11.3117C11.0734 11.0403 11.3067 10.6585 11.3935 10.2328C11.7344 8.55382 12.6453 7.04436 13.9718 5.96016C15.2983 4.87595 16.9588 4.28367 18.672 4.28367C20.3853 4.28367 22.0458 4.87595 23.3723 5.96016C24.6988 7.04436 25.6096 8.55382 25.9506 10.2328C26.0374 10.6585 26.2707 11.0403 26.61 11.3117C26.9492 11.5831 27.3729 11.7269 27.8073 11.7182H27.9187C28.9962 11.7132 30.0521 12.0208 30.9583 12.6037C31.8645 13.1867 32.5821 14.0199 33.0243 15.0026C33.4665 15.9852 33.6142 17.0749 33.4495 18.1398C33.2848 19.2046 32.8148 20.1989 32.0965 21.002C31.9329 21.1854 31.8074 21.3995 31.7272 21.6318C31.647 21.8641 31.6137 22.11 31.6292 22.3552C31.6448 22.6005 31.7088 22.8402 31.8177 23.0605C31.9266 23.2808 32.0782 23.4773 32.2636 23.6386C32.6021 23.9371 33.0377 24.1021 33.489 24.1028C33.7527 24.1025 34.0132 24.046 34.2533 23.9371C34.4934 23.8283 34.7076 23.6696 34.8816 23.4715C36.0282 22.2134 36.8068 20.6644 37.1324 18.9936C37.458 17.3229 37.318 15.5948 36.7277 13.9982C36.1373 12.4017 35.1195 10.9982 33.7853 9.94113C32.4511 8.88408 30.852 8.21417 29.1628 8.00465Z" fill="url(#paint1_linear_6998_10815)"/>
</g>
</g>
<defs>
<linearGradient id="paint0_linear_6998_10815" x1="16.9811" y1="13.2643" x2="29.2442" y2="29.8977" gradientUnits="userSpaceOnUse">
<stop stop-color="#DEBF1A"/>
<stop offset="0.408854" stop-color="#F2E28A"/>
<stop offset="0.692708" stop-color="#CDB016"/>
<stop offset="1" stop-color="#EDDA75"/>
</linearGradient>
<linearGradient id="paint1_linear_6998_10815" x1="14.672" y1="-2.278" x2="25.5941" y2="26.4875" gradientUnits="userSpaceOnUse">
<stop stop-color="#DEBF1A"/>
<stop offset="0.408854" stop-color="#F2E28A"/>
<stop offset="0.692708" stop-color="#CDB016"/>
<stop offset="1" stop-color="#EDDA75"/>
</linearGradient>
</defs>
</svg>
