<svg xmlns="http://www.w3.org/2000/svg" width="26" height="26" viewBox="0 0 26 26" fill="none">
  <path d="M12.8848 2.14844C12.6 2.14844 12.3269 2.26156 12.1255 2.46293C11.9242 2.6643 11.811 2.93741 11.811 3.22218V5.36968C11.811 5.65445 11.9242 5.92757 12.1255 6.12893C12.3269 6.3303 12.6 6.44343 12.8848 6.44343C13.1696 6.44343 13.4427 6.3303 13.644 6.12893C13.8454 5.92757 13.9585 5.65445 13.9585 5.36968V3.22218C13.9585 2.93741 13.8454 2.6643 13.644 2.46293C13.4427 2.26156 13.1696 2.14844 12.8848 2.14844Z" fill="#28D3EA"/>
  <path d="M22.5486 11.8125H20.4011C20.1164 11.8125 19.8433 11.9256 19.6419 12.127C19.4405 12.3284 19.3274 12.6015 19.3274 12.8862C19.3274 13.171 19.4405 13.4441 19.6419 13.6455C19.8433 13.8469 20.1164 13.96 20.4011 13.96H22.5486C22.8334 13.96 23.1065 13.8469 23.3079 13.6455C23.5093 13.4441 23.6224 13.171 23.6224 12.8862C23.6224 12.6015 23.5093 12.3284 23.3079 12.127C23.1065 11.9256 22.8334 11.8125 22.5486 11.8125Z" fill="#28D3EA"/>
  <path d="M6.44233 12.8862C6.44233 12.6015 6.3292 12.3284 6.12783 12.127C5.92647 11.9256 5.65336 11.8125 5.36858 11.8125H3.22109C2.93631 11.8125 2.6632 11.9256 2.46183 12.127C2.26047 12.3284 2.14734 12.6015 2.14734 12.8862C2.14734 13.171 2.26047 13.4441 2.46183 13.6455C2.6632 13.8469 2.93631 13.96 3.22109 13.96H5.36858C5.65336 13.96 5.92647 13.8469 6.12783 13.6455C6.3292 13.4441 6.44233 13.171 6.44233 12.8862Z" fill="#28D3EA"/>
  <path d="M6.67873 5.36727C6.46942 5.16935 6.19006 5.06268 5.9021 5.07074C5.61415 5.07879 5.34119 5.20091 5.14327 5.41022C4.94535 5.61953 4.83868 5.89889 4.84674 6.18684C4.85479 6.4748 4.97691 6.74776 5.18622 6.94567L6.73241 8.43818C6.83617 8.53837 6.95906 8.61663 7.09373 8.66829C7.2284 8.71994 7.3721 8.74394 7.51625 8.73883C7.66089 8.73828 7.80392 8.70851 7.93677 8.65131C8.06962 8.59411 8.18955 8.51066 8.28935 8.40597C8.48933 8.20479 8.60158 7.93265 8.60158 7.64898C8.60158 7.36531 8.48933 7.09317 8.28935 6.89199L6.67873 5.36727Z" fill="#28D3EA"/>
  <path d="M18.2533 8.74214C18.5298 8.74103 18.7952 8.63334 18.9942 8.44149L20.5404 6.94898C20.729 6.75189 20.8356 6.4904 20.8384 6.21762C20.8412 5.94483 20.7401 5.6812 20.5555 5.48027C20.371 5.27935 20.1169 5.15619 19.8449 5.13581C19.5728 5.11544 19.3033 5.19937 19.0909 5.37057L17.5447 6.89529C17.3447 7.09647 17.2324 7.36861 17.2324 7.65228C17.2324 7.93595 17.3447 8.20809 17.5447 8.40927C17.7306 8.60547 17.9836 8.72433 18.2533 8.74214Z" fill="#28D3EA"/>
  <path d="M12.8848 19.3281C12.6 19.3281 12.3269 19.4413 12.1255 19.6426C11.9242 19.844 11.811 20.1171 11.811 20.4019V22.5494C11.811 22.8341 11.9242 23.1073 12.1255 23.3086C12.3269 23.51 12.6 23.6231 12.8848 23.6231C13.1696 23.6231 13.4427 23.51 13.644 23.3086C13.8454 23.1073 13.9585 22.8341 13.9585 22.5494V20.4019C13.9585 20.1171 13.8454 19.844 13.644 19.6426C13.4427 19.4413 13.1696 19.3281 12.8848 19.3281Z" fill="#28D3EA"/>
  <path d="M19.0374 17.3327C18.8324 17.1347 18.5571 17.0264 18.2722 17.0314C17.9873 17.0365 17.716 17.1545 17.5181 17.3595C17.3202 17.5645 17.2118 17.8398 17.2168 18.1247C17.2219 18.4097 17.3399 18.6809 17.5449 18.8789L19.0911 20.4036C19.2902 20.5954 19.5556 20.7031 19.832 20.7042C19.9759 20.7051 20.1185 20.677 20.2513 20.6217C20.3841 20.5663 20.5044 20.4849 20.6051 20.3821C20.7058 20.2823 20.7856 20.1635 20.8401 20.0327C20.8947 19.9018 20.9227 19.7615 20.9227 19.6197C20.9227 19.478 20.8947 19.3377 20.8401 19.2068C20.7856 19.076 20.7058 18.9572 20.6051 18.8574L19.0374 17.3327Z" fill="#28D3EA"/>
  <path d="M6.73222 17.3317L5.18602 18.8242C5.08538 18.924 5.0055 19.0428 4.95099 19.1736C4.89647 19.3045 4.86841 19.4448 4.86841 19.5866C4.86841 19.7283 4.89647 19.8687 4.95099 19.9995C5.0055 20.1304 5.08538 20.2491 5.18602 20.3489C5.28673 20.4517 5.40706 20.5331 5.53987 20.5885C5.67267 20.6438 5.81525 20.6719 5.95912 20.6711C6.22381 20.6733 6.48001 20.5777 6.67853 20.4026L8.22473 18.9101C8.42976 18.7122 8.54778 18.4409 8.55282 18.156C8.55785 17.8711 8.44949 17.5958 8.25157 17.3908C8.05365 17.1857 7.78239 17.0677 7.49745 17.0627C7.21252 17.0576 6.93726 17.166 6.73222 17.3639V17.3317Z" fill="#28D3EA"/>
</svg>