<svg xmlns="http://www.w3.org/2000/svg" width="9" height="9" viewBox="0 0 9 9" fill="none">
  <path d="M8.6361 5.22054C8.51032 5.18134 8.37415 5.19345 8.25726 5.25423C8.14037 5.31502 8.05225 5.41954 8.01211 5.54502C7.77627 6.2661 7.31651 6.89312 6.6997 7.33484C6.0829 7.77657 5.34124 8.00997 4.58263 8.00107C3.64431 8.01173 2.74006 7.64986 2.06816 6.99481C1.39626 6.33975 1.01155 5.44498 0.998393 4.50669C1.01155 3.56841 1.39626 2.67363 2.06816 2.01858C2.74006 1.36352 3.64431 1.00165 4.58263 1.01232C5.43005 1.01027 6.2514 1.30525 6.90389 1.84597L5.82063 1.66626C5.75571 1.65558 5.68932 1.65784 5.62527 1.6729C5.56122 1.68797 5.50079 1.71555 5.44744 1.75406C5.39409 1.79256 5.34887 1.84123 5.3144 1.89727C5.27993 1.95331 5.25687 2.01561 5.24656 2.0806C5.23587 2.14552 5.23813 2.21191 5.2532 2.27596C5.26826 2.34 5.29584 2.40044 5.33435 2.45379C5.37285 2.50714 5.42153 2.55236 5.47757 2.58683C5.53361 2.6213 5.59591 2.64436 5.66089 2.65467L7.77748 3.00411H7.86235C7.92023 3.00404 7.97766 2.99391 8.03207 2.97416C8.05036 2.96722 8.06726 2.95708 8.08199 2.94421C8.11779 2.9309 8.15143 2.9124 8.18183 2.8893L8.22676 2.83438C8.22676 2.80942 8.27169 2.78946 8.29166 2.7595C8.31162 2.72955 8.29166 2.70958 8.31662 2.68962C8.33041 2.66054 8.34209 2.63051 8.35156 2.59976L8.72596 0.602975C8.73841 0.537419 8.73783 0.470052 8.72426 0.40472C8.71068 0.339389 8.68436 0.277371 8.64681 0.222209C8.60927 0.167047 8.56122 0.119821 8.50542 0.0832263C8.44963 0.0466319 8.38716 0.0213862 8.32161 0.00893062C8.25605 -0.00352491 8.18869 -0.00294639 8.12335 0.0106332C8.05802 0.0242127 7.99601 0.0505274 7.94084 0.0880747C7.82944 0.163905 7.75272 0.280885 7.72756 0.41328L7.59278 1.13712C6.75712 0.412901 5.68844 0.0141376 4.58263 0.0139226C3.37953 0.00327336 2.22134 0.470336 1.36221 1.31262C0.503077 2.15491 0.0131742 3.30362 0 4.50669C0.0131742 5.70976 0.503077 6.85847 1.36221 7.70076C2.22134 8.54305 3.37953 9.01011 4.58263 8.99946C5.55763 9.01444 6.51168 8.71598 7.30431 8.14802C8.09695 7.58005 8.68628 6.7726 8.98554 5.84454C9.00448 5.78063 9.01042 5.71357 9.00302 5.64732C8.99562 5.58108 8.97503 5.51698 8.94246 5.45882C8.90989 5.40066 8.866 5.34962 8.81339 5.30869C8.76077 5.26777 8.70049 5.2378 8.6361 5.22054Z" fill="url(#paint0_linear_6998_10822)"/>
  <defs>
    <linearGradient id="paint0_linear_6998_10822" x1="3.53404" y1="-1.0538" x2="9.00062" y2="8.14883" gradientUnits="userSpaceOnUse">
      <stop stop-color="#DEBF1A"/>
      <stop offset="0.408854" stop-color="#F2E28A"/>
      <stop offset="0.692708" stop-color="#CDB016"/>
      <stop offset="1" stop-color="#EDDA75"/>
    </linearGradient>
  </defs>
</svg>